<?xml version="1.0" encoding="utf-8"?>
<!-- Generator: Adobe Illustrator 26.0.3, SVG Export Plug-In . SVG Version: 6.00 Build 0)  -->
<svg version="1.1" id="Livello_1" xmlns="http://www.w3.org/2000/svg" xmlns:xlink="http://www.w3.org/1999/xlink" x="0px" y="0px"
	 viewBox="0 0 304 113" style="enable-background:new 0 0 304 113;" xml:space="preserve">
<style type="text/css">
	.st0{fill-rule:evenodd;clip-rule:evenodd;fill:#25303B;}
	.st1{fill:#25303B;}
	.st2{fill-rule:evenodd;clip-rule:evenodd;fill:#8ABD24;}
</style>
<g id="Group_1881" transform="translate(-279.213 -245.658)">
	<g id="Group_1789" transform="translate(279.213 245.658)">
		<path id="Path_412" class="st0" d="M213.5,36.3c0-23,11.6-35.9,30.7-35.9c21.4,0,28.9,14.3,29.3,36c0.1,3.4-1.1,5.1-4.7,5.1h-38.5
			c-2.9,0-3.1,1.9-3.1,3.2c0,8.5,5.7,16.4,20.9,16.4c8,0,12.3-0.6,14.7-0.6c2.5,0,3.4,0.9,3.4,2.7c-0.1,0.6-0.2,1.2-0.4,1.8
			l-0.6,1.9c-1,2.6-1.9,3.5-6,4.2c-4.4,0.6-8.8,0.9-13.2,0.9C229.1,72,213.5,65,213.5,36.3z M259,31.8c1.2,0,2.2-0.3,2.1-2
			c-0.4-9.7-4.2-19.5-17.3-19.5c-11.4,0-16.3,8-16.8,18.9c-0.1,2.3,0.2,2.5,2.3,2.5L259,31.8z"/>
		<path id="Path_413" class="st0" d="M300.4,71.1c1.8,0,3.6-1.1,3.6-2.9v-65c-0.1-1.7-1.5-3.1-3.2-3c-0.1,0-0.1,0-0.2,0
			c-0.8,0-1.6,0.2-2.4,0.5L293,3.2c-2.5,1.2-2.9,2.2-2.9,5.1v59.9c0,1.8,1.7,3,3.6,2.9L300.4,71.1z"/>
		<path id="Path_414" class="st0" d="M93,72.4c-15.3,0-31.7-11.2-31.7-36C61.3,13.1,73.6,0,93.6,0s32.3,13.1,32.3,36.4
			C125.9,61.2,110.7,72.4,93,72.4z M93.6,10.2c-14.7,0-18.9,10.3-18.9,26.6c0,17.6,7.3,24.4,18.9,24.4s18.9-6.8,18.9-24.4
			C112.5,20.4,108.3,10.2,93.6,10.2L93.6,10.2z"/>
		<path id="Path_415" class="st1" d="M26.8,0.4c5.4,0.1,10.8,0.7,16,1.9c1.7,0.4,2.5,1.1,2.6,2.4c0,0.8-0.2,1.6-0.5,2.4l-1.6,4.2
			c-0.6,1.6-2,2-3.7,2c-2.4,0-8.3-1.6-14-1.5c-6.9,0.1-12.2,1.4-12.3,6s2.4,6.8,14.6,10.8C44.5,34.1,50,40.4,49.8,51.5
			C49.5,64.1,42,71.8,21.6,72C15.4,72,9.2,71.4,3,70.3C0.9,70,0.1,69.2,0.1,68c0-0.8,0.2-1.5,0.5-2.3L2.2,61
			c0.4-1.3,1.4-1.8,3.3-1.8c2.5,0,6.9,1.4,16.5,1.4c10.7,0,14.9-3.8,14.9-9c0-3.7-0.9-7.2-17.1-13.4C6.4,33.1,0,28.8,0,18.6
			S7.5,0.4,26.8,0.4z"/>
	</g>
	<g id="Group_1790" transform="translate(417.222 246.133)">
		<path id="Path_416" class="st2" d="M49.2,0.5C44,1.2,41.3,0,34,0C11.5,0,0,12.6,0,35.4c0,28,19.1,35.2,30.4,35.9
			c21,1.2,30.1-7.5,30.1-16.8L60.6,10C60.6,5.2,59.2-0.8,49.2,0.5z M47.2,50.4c0,6.8-2.2,10.2-14.5,10.2
			c-12.9,0-18.4-11.1-18.4-25.5c0-18.6,6.4-24.8,21.1-24.9c3.1,0,6.2,0.2,9.2,0.7c1.9,0.2,2.5,1.1,2.5,3.1L47.2,50.4z"/>
		<path id="Path_417" class="st2" d="M8.9,112c-0.8,0.3-1.7,0.5-2.5,0.6c-2.2,0-3.5-1.3-3.4-3.7v-4.8c0.2-3.7,2.6-4.9,5.8-6.2
			l45.9-18.5c0.8-0.3,1.7-0.5,2.5-0.6c2.2,0,3.5,1.3,3.4,3.7v4.8c-0.2,3.7-2.6,4.9-5.8,6.2L8.9,112z"/>
	</g>
</g>
</svg>
