<?xml version="1.0" encoding="utf-8"?>
<!-- Generator: Adobe Illustrator 26.0.3, SVG Export Plug-In . SVG Version: 6.00 Build 0)  -->
<svg version="1.1" id="Livello_1" xmlns="http://www.w3.org/2000/svg" xmlns:xlink="http://www.w3.org/1999/xlink" x="0px" y="0px"
	 viewBox="0 0 357.3 312.5" style="enable-background:new 0 0 357.3 312.5;" xml:space="preserve">
<style type="text/css">
	.st0{fill:#FFFFFF;}
	.st1{fill:url(#SVGID_00000059298072792825066540000015446854017062680980_);}
</style>
<g>
	<path class="st0" d="M228.6,79.2c5.9,2.5,11.3,5.1,16.2,7.7L207.3,0H94.1C81,0,71.7,2.5,66.4,7.3c-5.4,4.9-8,11.2-8,19
		c0,7.8,2.7,14.2,8,19c5.3,4.9,14.6,7.3,27.8,7.3h34.5l-13.2,30.2c18.2-9.3,38-13.9,59.5-13.9C194.4,68.9,212.3,72.3,228.6,79.2"/>
	<path class="st0" d="M346.5,264.6c-3.6-3.2-11.8-4.8-24.8-4.8l-13.1-30.5H252l10.3,24.4c0.1,0,0.3-0.1,0.4-0.1
		c12.2-3.1,20.6-4.7,25.3-4.7c6.4,0,11.8,2.3,16.1,6.8c4.4,4.5,6.5,10.2,6.5,17.1c0,6.2-2.3,11.6-7,15.9
		c-6.2,5.8-21.4,11.3-45.6,16.5c-8.5,1.8-16.9,3.4-25.2,4.5c5.1,1.8,11.5,2.7,19.4,2.7h69.5c13,0,22.1-2.4,27.5-7.3
		c5.4-4.9,8-11.2,8-19C357.2,278.3,353.7,271.1,346.5,264.6"/>
	<path class="st0" d="M46.5,234.7l-11,25.1c-13,0-22.1,2.5-27.5,7.3c-5.4,4.9-8,11.2-8,19s2.7,14.2,8.1,19
		c5.4,4.9,14.5,7.3,27.5,7.3H105c9.7,0,17.3-1.3,22.7-4c-20.2-5.1-37.5-14.4-51.8-27.8C61.7,267.2,51.9,251.9,46.5,234.7"/>
	<path class="st0" d="M300.5,224.2l-0.2-26.3c0-15.6-2.5-29.2-7.5-41.1c-7.3-16.9-16.6-31.2-27.8-42.7c-5-5-11.8-9.9-20.2-14.4
		l53.7,124.5H300.5"/>
	<path class="st0" d="M88.9,113.3c-24.9,21.1-37.3,48.5-37.3,82.2c0,12.1,1.7,23.5,5.1,34.1l58.7-134.1
		C106.2,100.3,97.3,106.2,88.9,113.3"/>
	<path class="st0" d="M202.9,133.2l-24.2-51.1L155,131.8c6.6-1.4,13.5-2.2,21-2.2C185.8,129.7,194.7,130.9,202.9,133.2"/>
	<path class="st0" d="M293.9,250.6c-4.4-4.5-9.7-6.8-16.1-6.8c-4.7,0-13.1,1.6-25.3,4.7c-0.1,0.1-0.3,0.1-0.4,0.1
		c-29.3,7.6-52.8,11.4-70.5,11.4c-21.7,0-38.9-3.8-51.6-11.5c-7.9-4.8-14.4-8.2-19.3-13.1l-8.2,19.3h12.7c13.1,0,22.3,2.5,27.7,7.3
		c5.4,4.9,8,11.2,8,19c0,7.8-2.7,14.2-8,19c-1.4,1.2-3.1,2.3-4.9,3.3c12.3,3.1,25.7,4.7,40.2,4.7c14.4,0,29.2-1.1,44.4-3.3
		c8.3-1.2,16.7-2.7,25.2-4.5c24.2-5.2,39.4-10.7,45.6-16.5c4.7-4.4,7-9.7,7-15.9C300.5,260.8,298.3,255.1,293.9,250.6"/>
	<path class="st0" d="M293.9,250.6c-4.4-4.5-9.7-6.8-16.1-6.8c-4.7,0-13.1,1.6-25.3,4.7c-0.1,0.1-0.3,0.1-0.4,0.1
		c-29.3,7.6-52.8,11.4-70.5,11.4c-21.7,0-38.9-3.8-51.6-11.5c-7.9-4.8-14.4-8.2-19.3-13.1l-8.2,19.3h12.7c13.1,0,22.3,2.5,27.7,7.3
		c5.4,4.9,8,11.2,8,19c0,7.8-2.7,14.2-8,19c-1.4,1.2-3.1,2.3-4.9,3.3c12.3,3.1,25.7,4.7,40.2,4.7c14.4,0,29.2-1.1,44.4-3.3
		c8.3-1.2,16.7-2.7,25.2-4.5c24.2-5.2,39.4-10.7,45.6-16.5c4.7-4.4,7-9.7,7-15.9C300.5,260.8,298.3,255.1,293.9,250.6"/>
	<g>
		<g>
			
				<linearGradient id="SVGID_00000183935395693986833380000001646042507570224786_" gradientUnits="userSpaceOnUse" x1="76.2506" y1="119.7898" x2="284.6334" y2="119.7898" gradientTransform="matrix(1 0 0 -1 0 312.2698)">
				<stop  offset="0" style="stop-color:#FFFFFF;stop-opacity:0"/>
				<stop  offset="1" style="stop-color:#FFFFFF;stop-opacity:0.85"/>
			</linearGradient>
			<path id="SVGID_1_" style="fill:url(#SVGID_00000183935395693986833380000001646042507570224786_);" d="M104.7,170.1
				c7.5-13.6,17.2-23.7,29.1-30.4c6.4-3.6,13.5-6.2,21.3-7.9l23.6-49.7l24.2,51.1c5.6,1.6,10.9,3.8,15.7,6.5
				c11.9,6.7,21.5,16.8,28.9,30.4L104.7,170.1 M244.7,99.6c-4.8-2.7-10.2-5.2-16.2-7.7c-16.3-6.8-34.2-10.3-53.7-10.3
				c-21.5,0-41.3,4.7-59.5,13.9L56.7,229.6c5.4,17.2,15.2,32.5,29.4,45.8c14.3,13.5,31.6,22.8,51.8,27.9c1.9-0.9,3.6-2,4.9-3.3
				c5.4-4.8,8-11.2,8-19s-2.7-14.2-8-19c-5.4-4.9-14.6-7.3-27.7-7.3h-12.7l12.9-30.5l0,0h126.4l0,0h56.5L244.7,99.6z"/>
		</g>
	</g>
</g>
</svg>
