<?xml version="1.0" encoding="utf-8"?>
<!-- Generator: Adobe Illustrator 26.0.3, SVG Export Plug-In . SVG Version: 6.00 Build 0)  -->
<svg version="1.1" id="Livello_1" xmlns="http://www.w3.org/2000/svg" xmlns:xlink="http://www.w3.org/1999/xlink" x="0px" y="0px"
	 viewBox="0 0 1329.3 313.3" style="enable-background:new 0 0 1329.3 313.3;" xml:space="preserve">
<style type="text/css">
	.st0{fill:#FFFFFF;}
	.st1{fill:url(#SVGID_00000019672939256813512790000003397064023018808243_);}
</style>
<path class="st0" d="M1216.7,3.4c0.3,1.8,1.8,3.8,2.6,5.5c-2.3,0.4-4.8-0.6-7-0.9c2.1,1.1,4.9,0.6,6.8,2.5c2.5,2.5-2.2,3.6-4.5,3.9
	c2.2,0.1,4.5-1.1,6.7-1.3c2.2-0.2,4.9-0.3,7,0.4c1.4,0.5,4.1,1.9,3.1,3.7c-0.7,1.1-4.8,2.3-6.1,3c-0.1,0.1-0.1,0.1,0,0
	c3.5-2.4,10.2-3.8,13.9-1.4c1.9,1.3,2.8,3.6,3.3,5.6c0.7,2.8,1,3.5-0.6,6.1c0.9-0.5,2-0.6,2.5-1.5c0.5-1.2-0.4-2.4-0.8-3.4
	c-1-1.9-2.5-3.9-0.7-5.9c1.7-2,3.2-0.6,5.3,0.2c1.9,0.8,4.4,0.5,3.9-2.4c-1.8-0.3-5.3-0.1-7,0.2c-2.2,0.4-3.9,1.9-6.3,0.2
	c-1-0.7-1.3-1.2-2.6-1.8c-1-0.5-1.8-0.8-2.6-1.6c-1.6-1.6-2.9-3.9-3.6-6.1c0.4,1.5,2.3,3.8,0,4.5c-1.2,0.4-4.2-1-5.3-1.5
	c-3.2-1.4-6-4.4-7.3-7.5"/>
<path class="st0" d="M1246.4,23.7c0.8,2.4,4.2,3.8,5.9,5.3c0.7,0.6,2.3,2.4,1.2,3.3c-1.1,0.9-4.5-1-5.2,0.9c0.8,0.7,2,0.5,3.1,0.5
	c0.1,2-2.2,2.6-1.4,4.8c0.6,1.6,2.5,3.5,3.8,4.6c1.1,1,4.7,1.5,3.7,3.2c-0.9,1.7-5.3,1.5-4.8,4.1c1.8,0.1,2.2-0.4,3.6-1.2
	c1.4-0.7,3.5-0.6,4.6-1.4c3.7-2.5-2.1-4.3-3.9-5.1c-2.7-1.2-7.9-3-4.8-7c0.8-1,2.3-0.9,3.1-2.3c1-1.8-0.1-2.8-0.7-4.5
	c-0.7-2.1-0.5-5,0.2-7c0.4-1.2,1.1-2.3,2.4-2.4c0.9-0.1,3.4,1.3,3.4-0.2c0.1-2.6-5.5-0.4-6.5,0.4c-2.2,1.6-1.3,4.5-1.4,7
	c-2.4,0.4-4.3-2.6-6.5-3.2"/>
<path class="st0" d="M1288.1,77.6c0.5-2.1,0.2-3.2-0.6-5.1c-0.7-1.7-0.6-3.7-1.4-5.3c-0.4-0.8-1.4-1.3-1.8-2.1
	c-0.3-0.8-0.2-2.6-0.1-3.5c0.2-1.2,0.7-1.3,1.6-2c1-0.7,1.3-1.3,1.5-2.5c0.2-1.2,0-2.3-0.2-3.5c-0.1-1,0.4-2.9-0.2-3.8
	c-0.2-0.3-0.2-0.4-0.6-0.5c-1.1,2.2-0.1,5.4-0.3,7.8c-0.1,0.9-0.7,2-1.9,1.7c-1-0.3-1.2-2.1-1.7-3c-1.2-2.1-2.1-3.1-2.2-5.5
	c-0.1-1.6-0.2-3.2-0.2-4.8c0-1.9,0.4-4,0.1-5.8c0-0.1,0-0.2,0-0.3c0.1,1.9-0.8,4.2-1.1,6.2c-0.2,0.9,0.1,2.7-1.3,2.2
	c-1.1-0.4-1.9-2.3-2.6-3.1c-1.7-2-3.9-3-4.9-5.6c-0.4-1.2-1.1-2.2-1.1-3.4c0-1.4,0.2-2.8,0.1-4.2c-0.1-2,0.2-4.2-0.6-6.1
	c-0.7,1.3-0.1,3.6-0.1,5c0,1.7,0.1,3.3-0.7,4.8c-2.2-0.3-3.7-3-5.1-4.5c-0.7-0.7-1.5-1.3-2.1-2.1c-0.5-0.6-0.7-1.3-1.4-1.9l0.1-0.2
	c-0.6,3.7,5.7,7.8,7.7,10.4c1.2,1.5,3.3,3.8,0.3,3.9c-2.5,0.1-5.5-1.5-7.9-1.8c1.4,1.6,5.9,2.1,8,2.8c2.4,0.9,5.1,2.9,6.8,4.7
	c1.1,1.1,4.9,5.1,2.7,6.4c-0.8,0.5-4-0.4-5.1-0.4c-1.7-0.1-3.3,0-4.8,0.8c0,0,0.2,0.3,0.2,0.3c4.3-1.5,10.2-0.2,13.4,3.1
	c1.6,1.7,1.8,3.5,1.8,5.8c0.1,1.3,0.1,2.4-0.8,3.3c-0.8,0.8-2,0.5-2.6,1.5c0.2-3.8-3.7-5.6-6.4-7.4c-1-0.7-2.3-2.2-3.7-2.2
	c-1.6-0.1-2.9,1.7-2.6,3c2.6-1.5,5.5,0,7.7,2c1.1,1,1.9,2.1,2.4,3.4c0.6,1.4,0,3.7,0.8,4.9c1.5,2.3,2.7-4.1,4.8-4.2
	c6.2-0.4,2.3,13.6,3.1,16.1c1.4-1.4,2.1-3.7,4.2-4.6c3.2-1.3,3.8,1.5,3.8,4c0,2.4-0.4,4.6-0.6,6.9c-0.2,2.6-1.5,4.1-2.2,6.4
	c0-0.1,5-0.8,5.6-0.8c1.2,0,4,1.1,4.7-0.6c0.9-2.3-3.6-4.6-4.7-5.7c-2.6-2.7-0.5-5.8-1.2-9.3C1294.3,76.2,1290.1,76.6,1288.1,77.6"
	/>
<path class="st0" d="M1292.8,51.6c-0.3,4.9,1.2,8.2,3.2,12.6c0.8,1.8,2.7,5.6-1,4.1c-1.7-0.7-3.3-2.2-4.9-2.8
	c0.1,1.1,4.6,3.4,5.7,4.1c2.5,1.7,3.8,3.5,5.3,6.1c1.2,2.1,3.7,6.4,2.9,9c-1,3.2-4.4-0.9-5.8-1.7c-0.3,1.3,3.9,3.7,4.9,4.5
	c1.9,1.7,3.6,3.9,4.5,6.3c0.6,1.6,2.4,7.5,1.1,8.3c-1.7,1-6-2.2-7.6-2.7c0.1,1,3.8,2.6,4.8,3.2c2.1,1.4,3.4,2.2,4.3,4.7
	c1.8,5.2,1.1,11,2.8,16.1c1.2-1.5,0.7-5.3,0.7-7.2c0-2.8-0.2-5.2-1.2-7.8c-1.1-2.6-0.9-4.8,0.3-7.2c1.1-2.2,2.4-4.4,2.3-6.8
	c-0.3,1.7-1.6,5.3-3.3,6.1c-2.1,0.9-2.7-4.6-3-6.4c-0.5-2.8-1.8-5.6-2.3-8.4c-0.6-3.4,1.3-5.5,2.1-8.6c0.2-0.8,0.4-1.7,0.3-2.6
	c-1.4,1.9-1.4,5.4-3.6,7.2c-1.6-0.4-1.7-3.5-2.2-4.8c-0.8-2.1-1.4-3.7-1.3-6c0.2-3.6,1.4-9-0.5-12.1c0,2.7,0.5,4.9-0.2,7.5
	c-0.8,3.3-2.3,2.4-3.3-0.1c-1.7-4.5-5.6-9.2-4.8-14.3"/>
<path class="st0" d="M1284.7,105.7c-0.5-0.9-1.5-1.9-1.8-2.9c-0.7-2.3,0.8-4.9,1.4-7.1c1.2-4.1,2.8-6.2,5.5-9.4
	c-2.2,0.6-4.3,4.4-5.2,6.3c-0.9,1.9-0.9,4.7-2.5,6.2c-2.3,2.2-2.9-4.4-3.5-6c-1.2-3.2-1.6-5.6-0.9-8.9c0.7-3.4,2.8-6.4,4-9.6
	c-1.6,1.5-3.8,9.7-5.7,9.4c-1.7-2.6-2.3-5.9-3.3-8.8c-0.9-2.7-2.6-5.9-2.7-8.8l-0.3-0.7c0.1,1.4,0.9,4.4,2.2,8.9
	c0.9,3,2.5,6.9,2.2,10c-2.6-1.5-4.6-4.7-7.7-4.9c0.9,1.2,2.7,1.8,3.8,2.7c1.4,1.2,2.7,2.6,3.9,4c1.4,1.6,4.6,7.5,2.9,9.4
	c-3.1-1.6-5.1-3.8-8.9-3.8c1.2,1.3,3.9,1.2,5.3,2.4c1.2,0.9,2.8,2.8,3.6,4.1c0.6,1,0.7,2.2,1.4,3.2c0.8,1.1,2,1.9,2.9,2.9
	c3.2,3.5,5.9,6.4,7,11.2c0.1-2.2-0.6-4.3-0.1-6.5c0.4-2,1.2-3.7,1.8-5.6c-2.3,0.9-1.2,5.1-2.9,6.4
	C1285.5,108.7,1285.6,107.1,1284.7,105.7"/>
<path class="st0" d="M1293.8,95.2c-0.2,0.5-0.2,1.3-0.4,1.8c-0.3,0.7-1,0.8-1,1.7c2.1,0.3,1.9,6.4,1.1,7.8c-0.9,1.6-1.7,1.6-1.6,3.8
	c0,0.6-0.1,2.1,0.6,2.3c0.7,0.3,1.1-0.6,1.7-0.8c1.8-0.5,2.2,0.5,2.6,2.4c0.4,1.9,0.9,3.5,0.3,5.5c-0.4,1.3-1.2,2.6-0.3,3.8
	c1,1.4,1.7,0,3.3,0c4.2,0,1.4,5.5,1.6,8c0.1,1.3,0.9,3.2,2.4,3.5c2.6,0.5,0.1-1.1-0.3-1.9c-1.3-2.4,1.2-5.8,0.1-8.6
	c-0.6-1.4-1.8-1.9-2.7-3c-1.1-1.4-0.9-3.1-1.4-4.6c-0.7-1.9-1.6-3.1-1.9-5.2c-0.4-2.4-0.8-4.8-0.7-7.2c2.9-1.3,4,6,4.1,7.9
	c0.1,1.6,0.5,3.4,1,5c0.8,2.6,1.7,1.9,3.6,2.5c0.5,0.2,1.5,0.6,1.8,1.1c0.8,1.3-0.2,1.2-0.6,2.2c-0.4,0.8-0.7,0.6-0.6,1.6
	c0.1,0.8,0.9,2.1,1.7,2.3c2.6,0.6,2.3-6.1,1.9-7.8c-0.3-1.4-0.8-2.9-1.5-4c-0.9-1.3-2.5-1.9-3.1-3.3c-0.9-2,0.3-2.1,0.8-3.4
	c0.6-1.4-0.4-2.2-1.8-2.9c-2.9-1.3-4.8-2.3-6.9-4.8c-1.3-1.6-2.8-4.8-3.7-5.7"/>
<path class="st0" d="M1320.7,137.2c-1.9,1-3.2,3.9-4.2,5.7c-0.8,1.7-1.6,5.7-3.3,6.6c-1-0.8-0.5-2.2-1.1-3.3
	c-0.8,0.8,0.1,2.2,0.2,3.3c0.1,1.3,0,2.6-0.4,3.8c-0.3,1.1-0.6,1.9-1.8,2.6c-0.9,0.5-3.5,0.2-3.2,1.7c1.8,0,3.8-0.9,5.3-1.8
	c2.1-1.3,3.1-2.1,3.6,1c0.3,1.9,1.6,3.4,1.7,5.3c0.1,1-0.6,2.2,0.4,3.1c1.1,1,2.2-0.4,3.4,0c0.4-1.4-0.8-1.1-1.2-1.8
	c-0.3-0.6-0.4-1.3-0.5-2c-0.3-1.7-0.9-2.2-1.6-3.6c-1.4-2.6,0.2-6.3,3.6-6c-2.5-1-3.9,2.2-6.3,2c-0.3-0.6-1.1-1.3-1.3-1.9
	c-0.4-1.2,0-1.2,0.6-2.4c0.8-1.6,1.1-3.2,1.8-4.8c1.2-2.8,3.3-5.1,4.6-7.8c-0.3,0.1-0.4,0.2-0.7,0.5"/>
<path class="st0" d="M1267.8,147.5c-1.9,4.3,4.2,1.1,5.2,1.6c1.3,0.6,1,6.5,0.8,7.9c-0.1,1.4-0.9,3-0.8,4.3c0.1,1.3,1.3,2,1.6,3.3
	c0.2,0.7,0.1,1.9,0,2.6c-0.2,1.1-0.5,1-0.8,1.8c-0.5,1.4-0.4,2.9-0.4,4.5c0.2,0,0.4,0,0.6,0c0.1-1.2-0.2-2.5,0.4-3.6
	c0.7-1.3,1.4-1.5,1.8-3c0.3-1.1,0.6-1.9,0.4-3.1c-0.2-0.9-1-2-1.1-2.9c0-1.1,1.2-2.1,1.4-3.1c0.2-1.3-0.4-2.6-0.3-4
	c0.1-1.3,0.6-2.5,0-3.8c-0.4-1-1.5-1.7-1.9-2.7c-1.4-1-2.2,0.4-3.6,0.8c-1.6,0.6-1.8-0.2-3.3-0.5"/>
<path class="st0" d="M1278.5,169.2c0,2.4,2.2,8.5,1.9,13.3c-1.5-0.4-3.5-2.4-4.8-3.3c-1.2-0.8-4.3-3.3-5.6-2.7
	c0.4,1.1,2.2,1.6,3.2,2.1c1.5,0.8,2.3,1.8,3.7,2.9c3,2.5,3.7,4.2,4.7,7.7c1.1-0.3,4.1-4.8,1.2-4.3c-0.8-1.9-0.3-5.4,0-7.5
	c0.2-1.5,2.4-5.8,1.4-6.9c-0.6,1-1.8,7.2-3.8,4.3c-1.2-1.7,0.7-7.2-2.3-7.5c-0.2,0.2,0.4,0.4,0.3,0.7L1278.5,169.2"/>
<path class="st0" d="M1313.1,159.9c-1.9,1.5-1.1,3.7-1.9,5.7c-1.2,0-2.2-1.2-2.2,0.7c0,0.4,0.6,0.9,0.7,1.4c0.2,0.6,0.2,1.3,0.2,2
	c0,2.7-0.7,5.4-0.8,8.1c-0.2,3.9-2.3,1.7-3.6-0.4c-1.1-1.8-2.5-4-2.7-6.1c-1.2,1.8,0.6,4.9,1.7,6.4c1.8,2.4,2.9,4.4,2.3,7.6
	c-0.5,2.6-0.9,5.1-2.1,7.6c-0.8,1.8-2.3,6.6-4.3,7.2c-1.1-1.3,0-3.9-1.1-5.3c-1.1,0.9-0.1,5,0,6.4c0.1,2.3-0.3,4.3-1.6,6.2
	c-1,1.5-1.9,3.1-2.9,4.7c-0.9,1.4-2.4,3.1-2.9,4.6c4.2,0.4,7.6-9.4,9-12.3c1.2-2.4,2.7-4.7,4.8-6.6c1.3-1.1,6-3,6-4.3
	c-1.2,0.6-6.6,3.6-6.1,1.2c0.1-0.4,0.9-1,1.1-1.5c0.4-0.9,0.5-2.1,0.7-3.1c0.3-1.3,0.7-2.7,1-4c0.7-2.8,1.5-4.9,3.4-7.2
	c1.6-2,4.4-3.8,5.6-6.2c0.3-0.6,0.5-0.6,0.3-1.1c-2.5,1.6-3.9,5.1-6.6,6.3c-1-0.8-0.1-3.3,0-4.5c0.2-1.8,0.2-3.7,0.6-5.4
	c0.3-1.3,0.6-2.5,0.8-4C1312.8,162.6,1313.6,160.7,1313.1,159.9"/>
<path class="st0" d="M1118.5,148.7c-1.1,0.6-1.8,2-2.6,1c-0.5-0.7-0.2-2.8-0.2-3.6c0-1.3,0.2-2.4-0.6-3.4c-0.1-0.1-1.1-0.7-1.4-0.9
	c-0.3-0.3-0.5-1-0.8-1.4c-1.5,1.9-0.1,7.4-0.1,9.8c0.1,3.9,1.6,7.3,1.4,11.3c-0.4,8.2-2.1,16.8-2.8,25.1c-0.1,0.6,0,1-0.2,1.5
	l0.2,0.3c2.1-0.3,2.3-3.8,2.8-5.4c0.5-1.7,0.2-1.7,0.3-3.5c0.2-3.6,0.4-8.7,0.7-12.2c0.2-1.7,1.2-2.3,1.8-3.8
	c0.8-1.9,0.3-2.1-0.6-3.4c-0.7-1-1.2-2.3-0.8-3.6c0.5-1.4,2-1.5,2.8-2.6c0.8-1.1,1.5-4.1,0.7-5.1L1118.5,148.7"/>
<path class="st0" d="M1108.8,143.9c-0.3,1.7-1.1,4.9-1.2,7.6c-0.2,3.6-0.8,8-1.2,11.6c-0.8,7.8-1.1,15.8-1,23.9c0,2.4,0.5,4.6,0.5,7
	c0,2,0.1,4.1,0.5,6c2,0,0.6-17.6,0.7-20c0.1-3.6-0.2-6.5,0-10.2c0.2-3.6,0.7-7.7,1.2-11.2c0.4-2.7,0.6-5.2,0.9-8
	C1109.3,149.4,1110.6,143.9,1108.8,143.9"/>
<path class="st0" d="M1100.1,210.8c0.9,1.5,1.7,4.5,3.5,5.1c1.4,0.5,2.7-0.2,2.2-1.7c-0.2-0.7-1.3-1.3-1.7-1.9
	c-1-1.4-1.6-4.6-3.7-4.5C1098,206.4,1098.2,207.9,1100.1,210.8 M1098.9,181.8c0.2,2.3-2.3,2.7-2.4,5c0,1.1,0.3,2,1.2,2.7
	c0.4,0.4,1.1,0.5,1.6,0.9c0.3,0.2,0.6,0.9,0.9,1.2c1.4-1.2,1.1-4.8,0.7-6.4c-0.2-1-0.7-1.7-0.8-2.8c-0.2-1.1,0.3-2.4-0.3-3.4
	C1098.5,179.6,1098.5,180.8,1098.9,181.8z M1121,233.5c-1.4-0.7-2.9,0.2-4.3,0.3c-3.1,0.2-5.2-2.5-6.7-4.8c-1.4-2.2-3.2-4.2-4.6-6.3
	c-1-1.6-0.4-2.5-0.2-3.8c0.2-2.1-1.2-1-2.9-1.9c-3.2-1.6-3.2-5.1-5-7.8c-0.7-1.1-1.7-1.7-1.8,0.2c-0.1,1.4,1.1,2.2,1.7,3.3
	c0.7,1.3,0.9,2.7,1.9,3.9c1.2,1.4,1.4,1.7,0,3.2c-3,3.2-4.5-1.4-6-3.7c-1.9-3-6.2-7.5-3.8-11.1c1.7,1.9,1.8,4.3,2.8,6.6
	c0.9,2.2,2.5,4.9,4.1,6.4c1.6-1.9-1.7-5-2.5-6.6c-1.4-2.6-1.5-6.3,2.5-4.7c1.1-0.8,0.3-2.5-0.7-3c-1.9-1-3.2,0.5-3.8-2.4
	c-0.3-1.4,0.3-2.9,0.5-4.2c0.3-1.6,0.2-3.3,0.6-4.9c0.8-3.1,2.5-5.7,3.2-8.9c0.5-1.9,0.4-4.1,1.3-5.9c0.5-1,1.4-1.9,2.1-2.9
	c1.2-1.7,3.3-8.5,1.2-10c-1.9,1.1,0.1,2.5-0.6,3.6c-0.7,1.1-1.8,0.7-2.7,2.3c-0.6,1-1.1,2.1-1.6,3.2c-1.4,3.2-2.5,6.7-3.4,10
	c-0.3,1.2-1.1,9.3-2.9,8.6c-1-0.4,1-6.1,1.2-7.4c0.1-1,1-2.5-0.3-3.1c-0.8,0.8-1.6,1.6-1.8,2.8c-1.1,0.2-2.5-2.5-2-3.4
	c0.4-0.9,1.3-0.1,1.7-0.4c0.6-0.3,0.8-0.8,1-1.4c0.9,0.4,1.3,1.4,1.8,2.1c1.6-2.2,2.3-5.4,3-7.9c0.8-3,2.7-5.9,4.1-8.7
	c1.3-2.6,4.6-4.6,4.6-7.6c0-1.8-1.1-2.9-0.4-4.6c0.5-1.4,1.4-2.6,1.9-3.8c0.5-1.1,0.3-2.4,1.4-3.2c0.5,1.6-0.8,3.4-1,5.1
	c-0.3,1.8-0.2,3.7-0.5,5.5c-0.7,3.4-1.6,6.6-1.8,10.2c-0.2,3.3-0.3,6.5-0.5,9.8c-0.2,3.3,0.2,7,0,10.4c-0.1,3,0,5.1,1.5,7.6
	c0.9,1.6,3.4,4.1,2.9,6.1c-1.9,0.8-4.7-4.9-5.8-5.9c-1.6-1.4-4.8-6.1-5.9-2.4c-1,3.6,2.2,5.7,4.1,8.3c2.4,3.3,4.9,6.4,7.1,9.8
	c0.9,1.4,1.6,2.8,2.2,4.3c0.7,1.8,1.6,2.5,2.6,3.8c1.8,2.4,2.3,6.1,3.6,8.8c1.3,2.9,2.6,3.6,5.4,4.3c1.2,0.3,2.2,0.9,3.1,1.9
	c0.6,0.6,1.6,1.7,1.2,2.5C1122.8,235.3,1122.1,234.1,1121,233.5z"/>
<path class="st0" d="M1100.5,57.6c-0.6,2.9-6.6,11.4-8.3,13.7c-2.6,3.4-5.8,7.7-5.9,12.2c3.2-1.1,5.2-7,7-9.7
	c2-3,7.6-10.7,10.2-15.1c-0.3-0.1,0.9-1.6-0.5-3C1101.7,54.4,1100.5,57.6,1100.5,57.6 M1082.8,114.8c-0.9,2.2-1.6,3.7-2.1,6
	c-0.4,2-2.2,8.2-1.4,10.3c1.1-1.9,2.8-8.3,3.5-10.3c0.6-2,2.5-4.7,1.5-6.8c-0.7,0.2-1.3,0.7-1.8,1.3L1082.8,114.8z M1074.1,114.1
	c-1.4,1.4-0.8,3.8-0.9,5.8c-0.2,1.8-0.6,3.7-1.2,5.3c-0.7,1.8-1.6,6.2-1.3,8.3c0.2,2,1.6,2,2.3,3.7c0.6-1.9,0.4-7,0.7-8.9
	c0.2-1.7,0.9-3.4,1.1-5c0.3-2.3,2.5-8.8,0.8-10.1c-0.5,0.7-0.9,0.5-1.7,0.9L1074.1,114.1z M1085.4,105.6c-0.6,1.4,1,0.1,2.2,1.3
	c2.5-3.3,4.4-8.5,5.1-12.5c-4.3,0.3-6.2,6.1-7.1,9.2L1085.4,105.6z M1080.5,90.1c-0.2,3.1-1,5.6-2.1,8.6c-0.3,0.9-0.7,1.9-0.9,2.9
	c-0.1,0.6-0.7,2.2-0.4,2.8c0.5,1.2,1.5,2.5,2.1,2.1c1.6-1.3,1.7-5,2-6.6c0.2-1.3,0.3-2.4,0.9-3.5c0.8-1.6,2.7-4.8,0.6-6.2
	c-0.8-0.5-1.6-0.5-2.1,0.3L1080.5,90.1L1080.5,90.1z M1134.1,30c-1,0.7-1.1,1.8-0.4,2.7c3.4,0.5,6.4-2.8,9-4.5
	c2.4-1.5,4.8-3.3,7.2-4.7c2.6-1.5,5.2-3.2,8-4.6c2.6-1.2,5.8-4,8.6-4c-2.4,1.9-5.8,3.5-8.5,5.2c-3.1,1.9-6.3,4-9.4,5.9
	c-2.8,1.7-6.1,3.7-8.8,5.6c-1.1,0.8-7.7,5.5-4.2,6.1c1.3,0.2,3.1-1.8,4.1-2.6c1.3-0.9,2.5-1.5,4-2.2c3.1-1.5,5.8-3.1,8.7-4.7
	c5.6-3.2,11.7-6.5,16.8-10.3c2.5-1.9,6.2-7.2,0.9-7.3c-4.3-0.1-7.9,2-11.7,3.7c-6.4,2.8-12.7,6.9-18.7,10.8
	C1137.1,26.7,1135.8,27.8,1134.1,30z M1117.6,40.1c2.6,1.4,8.9-9.9,10.7-11.9c4.5-5.1,10.2-9.2,15.8-12.9c6.1-4,12.9-7.9,20-9.4
	c1.2-0.3-7.1,3.5-10.3,5c-3.7,1.8-7.1,4.4-10.7,6.5c-3.2,2-5.6,4.3-8.4,6.8c-0.6,0.5-3.9,3-3.7,3.9c0.4,2,3.7-1.1,4.3-1.6
	c5.8-4.9,13.1-9.1,20-12.3c2.5-1.2,18.9-7.3,13.2-12.4c-4-1.3-8,1.3-11.6,2.3c-3.6,1-7.8,3-11.1,5c-5.5,3.3-10.8,8.8-15.1,13.7
	c-2.4,2.7-4.9,4.9-6.8,8c-1.7,2.6-3.5,5.4-5.6,7.8C1118.1,38.8,1117.4,39.5,1117.6,40.1z M1107.6,48.4c-2.7,2-2.1,2.5-3.7,5.3
	c0.7-0.3,0.4,5.3,1.4,4.6c1.3-0.9,4.6-6.1,5.3-6.9c1.1-1.2,4-6.5,3.7-8.2c-0.8,0.2-2.8,0.5-4.1,2.3L1107.6,48.4z M1230.8,257.9
	c0.1-0.6,0.4-0.9,1.6-1.5c1.3-0.7,2.6-1.3,3.8-2.1c1.8-1.2,1.4-1.1,1.7-3.4c0.2-2,1.6-3.3,0.7-5.3c-1.3-2.8-5.4-0.9-6.9,1.1
	c-2.3,2.9,0.7,5.1,1.8,7.5c-2.3,1.5-2.9-3.7-6.1-0.6c-1.2,1.2-1,2.9-2.6,3c-0.5,0-4.7-2.1-6.8-1.3c-2.5-3.1,6.1-1.1,8-2.7
	c1.1-1,2.2-1.6,3-2.9c1-1.6,0.6-3.8,2.3-4.9c2.9-2,10.4-1.8,12.2,0.9c1,1.5-0.1,3.6,1.9,4.6c1.5,0.8,2.6-0.7,3.8-1.7
	c2.4-2,5.5-3.8,8.1-5.6c0.7-0.5,2.8-1.6,3.2-2.4c0.8-1.6-0.6-2.4,0.9-4c1.3,1.1,4,1.9,5.7,1.5c-0.4-1-2-2.8-1.5-3.9
	c0.7-1.6,3.7-1.1,5-2.3c1.7-1.5,1.7-4.2,3.1-5.9c1.6-1.9,3.6-3.6,5.1-5.5c1.1-1.4,1.5-1.9,3.2-2.2c1.9-0.3,2.1,0.7,3.9,0.7
	c3.7-0.1,5.3-3.6,8.4-4.7c3-1,6.9,0.2,9-2.8c1.2-1.7-0.5-2.7,0-4.6c0.3-1.2,1.6-2.4,2.4-3.1c2.4-2.1,5.7-3.6,7.5-6.4
	c0.7-1,1.8-2.9,1.9-4.1c0.1-1.9-1.8-3.1-1.7-4.8c0.1-1.3,1.9-4.2,2.6-5.3c1.1-1.9,2.9-3.3,3.8-5.3c0.9-1.9,1.3-4.1,1.8-6.1
	c0.3-1.3,0.8-3.4,0.4-4.9c-0.3-1.2-1.4-2-1.4-3.3c2.4-1.1,6.3-3.9,3.9-6.2c-1.8-1.8-2.8-1-0.9-2.8c1.3-1.2,2.6-1.9,3.1-3.8
	c0.6-2.5-0.7-2.9-1.8-4.5c-1.4-1.9-0.3-1.8,0.5-3.9c1.5-3.9-1-5.9-2.1-9.3c-1.4,0.1-3.3,0.6-4.8,0.9c-1.9,0.4-2.1,1.6-3.3,2.9
	c-1.7,1.8-3.1,0.2-4.7,1.9c-1,1.1-1.4,2.7-1.7,4.1c-0.8,3.6-0.1,8-0.4,11.7c-0.2,1.7-0.2,3.5-0.8,5.2c-0.6,1.5-0.7,3.3-1.4,4.8
	c-1.6,3.1-4.7,0.7-5.4-1.5c3.9,1.6,3.5-3.5,3.9-6.4c0.6-3.7,1.8-6.7,2-10.7c0.1-0.9,0.2-2,0-2.8c-0.1-0.4-0.7-1.4-0.7-1.8
	c0-1.6,1.2-1.7,1.9-3.1c0.9-1.7,0.1-3.1-0.2-4.8c-0.3-2.3-0.2-1.9,1.9-2.7c3.3-1.3,4.5-4.7,3.2-8.3c0.7-0.8,1.8-1.1,2.8-1
	c0.7-1.8,0-3.8,0.3-5.7c0.3-2.2,1.5-3.3,2.5-5.1c0.4-0.8,1.8-4,1.2-4.7c-0.9-1.2-3.2,0-3.7-1.8c-0.3-1.4,2.7-4,3.2-5.1
	c1.1-2.3,1.2-3.8,0.6-6.3c-0.4-1.7-0.2-6-2.8-4.8c-1.3,0.6-2.2,3.7-4.2,2.8c-0.5-1.4,0-2.2,0.3-3.5c0.3-1.4,0.7-2.9,0.9-4.2
	c0.3-1.8-0.6-2.1-1.1-3.4c-1.1-2.6,1.2-7.6-1.2-9.8c-1.5-1.4-2,0.3-3.2,0.9c-2.9,1.5-2.1-1.5-2.3-3.4c-0.2-1.7,0.1-3.6-0.2-5.1
	c-0.2-1.2-2-7.1-3.4-7c-1,0-1.8,2.2-3.1,1.6c-1.1-0.5-1.3-2.6-1.4-3.5c-0.2-1.4-0.3-1.5-1.2-2.6c-1.1-1.3-2.9-4.7-5.2-4.2
	c-1.9,0.4-1.7,4.1-3.6,5.1c-2-0.5-2.6-4.6-3.2-6.3c-0.9-2.8-1.2-5.5-1.7-8.4c-0.3-1.3-0.9-4.4-2.6-4.7c-1.9-0.3-1.1,4.1-3.7,3.7
	c-2.6-0.4-2.2-7.4-3.3-9.2c-0.7-1.2-1.6-2.2-2.2-3.5c-0.5-1-1.2-2.4-2.5-2.2c-1.1,0.1-1.6,1.8-2.7,1.8c-0.7,0-2.9-1.5-3.6-1.9
	c-1.4-0.7-2.9-1.3-4.2-2.3c-1.2-1-1.6-1.8-3.2-1.7c-2.1,0.2-5.2,3.6-6.8,0.7c0.6-1,0.4-2.3-0.4-3.1c-1.4-1.4-1.8-0.2-2.7,0.6
	c-2.6,2.3-4.5-1.1-5.4-3.6c-0.9-2.3-1.9-3.3-4.1-4.7c-1.6-1.1-4.9-4.1-7.1-3.6c-1.7,0.4-2.2,2.3-4.1,1.5c-1.3-0.6-1.8-0.3-3.1-0.8
	c-1.8-0.7-3.6-2.2-7.7-1.9c-1.2,0.1-0.2,1.2-1,2c-0.8,0.8-3.4,0.5-4.5,0.6c-1.5,0.1-3.1-0.5-3.9,1c-1.4,2.3,1.9,4.3,3.6,4.9
	c1.1,0.4,1.9,0.7,2,2c0.1,1.1-0.8,2.4-0.2,3.6c1.1,2.2,6.2,1.5,8.1,1.6c1.9,0.1,2.3,0.4,2.4,2.5c0.1,1.8-0.8,2.8,1,3.6
	c0.9,0.4,2.2,0.2,3.2,0.5c0.7,0.2,1.3,0.9,1.9,1.2c1.7,0.6,3.7,0.1,5.4-0.1c1.1-0.1,3.9-1.6,4.8-0.5c0.8,1-0.7,2.5-0.3,3.7
	c0.6,2.1,1.8,1.6,3.4,1.5c2.8-0.1,2,1.4,2.4,3.2c0.4,2,1.3,3,3.1,3.9c1.9,0.9,4.3,0.2,6.1,1c1.4,0.7,3.3,3.3,2.9,4.9
	c-0.4,1.8-2.6,2.7-3.7,4c-2.7,3.3,3.9,2.3,5.5,3.7c1,0.9,1.6,2.5,2.5,3.6c0.9,1.2,0.8,2.3,1.6,3.4c1.8,2.6,6,1.5,8.3,3
	c-1.1,1.2-1.6,3.5-2,5.1c-0.3,1-0.6,2-0.6,3.1c-0.1,1.4,0.5,2.2,0.6,3.5c0.3,2.8-2.6,3.2-2.8,5.7c-0.2,1.5,0.8,2.4,1.6,3.6
	c1,1.4,1.7,3,2.2,4.7c-0.9,1-2.4,0.7-3.1,1.6c-1,1.2,0,4,0.9,5.1c1.2,1.4,3.2,1.9,4.7,2.9c2.5,1.6,5.7,1.7,8.1,3.8
	c2.2,1.9,3.7,4.7,5.7,6.9c1.3,1.4,2.9,2.5,3.7,4.2c0.6,1.3,0.6,2.6,1.2,3.9c2.1,4.2,4.8,8.9,8.1,12.3c1.8,1.8,3.4,3,4.4,5.4
	c1,2.6,1.9,6,5.3,5.4c-0.1,1.1-1.2,1.5-1.6,2.4c-0.4,0.9-0.3,2.4-0.5,3.4c-0.4,2.2-0.1,4.6-0.3,6.9c-0.2,2.4-1.1,4.4-1.5,6.8
	c-0.4,2-0.4,4.7-1.3,6.4c-0.9,0.9-2-0.4-3,0.2c-1,0.5-0.9,2.2-0.9,3.2c0.1,1.6,0.2,3.1,0.7,4.6c0.5,1.4,1,2.8,0.3,4.2
	c-0.8,1.6-1.9,1.5-3.2,1.2c-1.9-0.4-1.8-0.3-1.3-2c0.7-2.5-0.1-6.2,1.1-8.6c-1.2,0.6-2.7,0-3.4,1c-0.3,0.5-0.3,1.8-0.5,2.4
	c-0.2,0.9-0.5,1.7-0.9,2.5c-2.3,0.5-0.8-5.3-1.2-6.5c-1.1-3.9-3.8-0.1-5.7-1.4c-1.4-0.9-1-6.9-1-8.6c0-3,0.8-5.8,0.8-8.7
	c0-2.2-0.4-8-3.6-7.8c-1.6,0.1-1.9,1.9-3.4,0.5c-1-0.9-1.1-2.5-3-1.8c-2.6,0.9-2.3,4.5-3.3,6.4c-0.9,1.7-1.4,1.2-3.1,1.8
	c-4.9,1.9,1.9,7.4,2.9,9.4c1.2,2.4,1.2,6.5,1.1,9.2c0,1.3,0,3.8-0.8,4.9c-1.1,1.3-3.3,0.3-4.3,1.2c-0.9,0.9,0.2,2.4,0.5,3.4
	c0.4,1.4,0.3,2.9,0.7,4.4c0.9,3.4,4.1,4.3,7,6c1.2,0.7,2.5,1.8,3.2,3c1.3,2.5,1.2,5.1,4.2,2.6c1.8-1.6,3.1-3.8,4.7-5.6
	c2.5-2.7,5.1-5.2,7.4-7.8c1.3,1.2,1.5,2.4,2.1,4.1c0.4,1.1,0.6,4.3,1.2,5.1c0.6,0.8,1.9,0.1,2.6,1.1c0.7,0.9,0.2,1.7,0,2.6
	c-0.6,2.4-1.5,2.1-3.9,2.3c0.2,1.2,1.1,2.5,1.2,3.8c0.1,2.1-0.4,1.4-1.8,2.4c-1.7,1.2-1.8,2.7-1.8,4.6c0.1,2.3,0,4.9-0.6,7.2
	c-0.4,1.3-0.6,2.6-1.4,3.8c-1.2,1.9-4.6,4.1-6.6,1.9c-1.8-1.9,2.4-4.3,3.5-5.8c1.6-2.3,1.9-5.5,2.6-8.1c0.4-1.7,0.9-3.6,2.1-5
	c0.7-0.8,1.3-0.6,1.3-1.9c0-1.1-0.6-1.8-1.4-2.5c-0.9,1.2-1.4,2.5-2.4,3.8c-1.3,1.7-1.9,2.8-2.3,4.9c-0.3,1.5-1.2,2.6-2,4
	c-1.3,2.2-1.6,1.1-3.1-0.2c-0.6,1.3-0.9,2.3-0.4,3.6c0.4,1.1,1.9,1.9,1.6,2.9c-0.4,1.4-2.7,1.1-3.7,1.9c-0.9,0.7-1.6,2.6-2.4,3.6
	c-1.9,2.6-4.3,5-6.5,7.2c-1,1-1.5,2.2-2.3,3.3c-0.9,1.2-2.1,1.3-3.2,2.1c-0.9,0.6-1.7,2.4-2.6,2.6c-1.9,0.4-0.7-2.1-0.1-2.9
	c0.8-1.1,2.2-1.8,3.4-2.3c1.6-0.7,1.9-1.1,2.5-2.8c2.3-6.3,5-12.9,8.6-18.6c1.8-2.8,3.2-5.6,5.2-8.2c2.1-2.7,4.8-4.7,7-7.1
	c1.5-1.7,3.4-4.1,4.4-6.1c1.2-2.5-0.7-6.1-3.1-3.1c-3.2,4-6.6,7.9-9.9,11.8c-1.8,2.1-3.5,4.2-5.2,6.4c-1.8,2.4-2.7,4.9-4.1,7.5
	c-0.6,1.2-0.7,3.6-1.9,3.8c-0.9,0.2-3.1-1-4.2-1.2c0,2.9-0.1,6.3-0.7,9.1c-0.8,3.5-2.5,5.8-4.4,8.7c-0.7,1.1-1.6,2.2-2.3,3.3
	c-1.1,1.7-0.9,2.7-1.2,4.7c-0.5,3.2-3.4,4.6-6.1,6c-1,0.5-2.7,1.7-3.7,2c-0.3,0.4-2.7,2.6-3.4,1.9c-0.5-0.5,1-2.6,1.3-3.1
	c1-1.8,1.6-4.6-1-5.1c-2.9-0.6-6.7,1.9-9.2,3.1c-2.9,1.5-5.5,3.1-8.7,4c-2.9,0.8-5.8,1.4-8.2,3.4c-2.2,1.8-4.1,4.7-5.8,6.9
	c-3.2,4.1-10.5-1.7-15.5-1.8c-12.2-0.2-9.9,5.4-15.2,3.8c-2.9-0.9-5.9,0.9-7.8-1.8c-0.8-1.1-1.1-2.4-1.9-3.4c-0.8-1-1.8-1.6-2.8-2.5
	c-1.8-1.6-4-3.2-6.2-4.3c-2.9-1.4-6.2-2.3-9.3-3.6c-2.4-0.9-5-2.4-7.7-2.2c-1.8,0.2-4.8,1.1-5.6,2.8c-0.5,1.2-0.4,2.2,0.9,2.9
	c1.9,1.1,2.2-0.3,3.2-1.4c1-1.1,2-1.4,3.3-1.6c3.3-0.7,5.5,0.2,6.5,3.6c0.9,3.1,1.4,5.4,3.9,7.6c3.6,3.1,2.8,1.5,4.1,4.2
	c-0.8,0-1.3,0.9-4-1.6c-1.1-1-2.3-1.9-3.3-3c-1.3-1.4-1.5-3.4-2.7-4.7c-0.9,0.8-2.1,0.5-3.2,0.6c-0.3,1.8-0.2,2.4-0.9,4.1
	c-2.2-0.8-2.6-0.8-4-2.9c-1.1-1.6-1.8-2-3.4-3.1c-5.5-3.9-10-8.8-15-13.2c-2-1.7-3.5-3.5-4.8-5.7c-1.2-2.1-2-5.1-3.5-6.9
	c-0.6,0.6-1.7,1.1-2,0.2c2.2-0.3,1.8-8.5,0.6-9.8c0.1,0.1-2.6,0.2-3.4-0.6c-1.2-1.2-2.2-3.5-3.2-4.9c-1-1.5-3.2-3.6-3.1-5.5
	c2.4-0.1,3.2,0.4,4.1-1.9c0.7-1.8,0.8-4.1,1.3-6c1.2-3.8,1.4-7.4,3.5-10.8c2-3.4,4.6-6.6,5.6-10.3c1-3.9,2-8.7,2.2-12.7
	c0.1-1.5-0.6-2.1-1.6-3.1c-1.1-1-1.8,0.1-2.4-1.9c-0.8-2.8,1.7-7.5,0.4-10.1c-1.4-2.7-2.1,1.3-3.9,1c-1.8-0.4-1.6-3.2-2.4-4.4
	c-3.1-4.2-5.1,3.7-5.8,5.8c-0.6,1.8-1.5,2.8-2.3,4.4c-0.9,1.7-1.2,2.1-1.8,3.7c-0.7,1.7-2.5,4.5-3.6,6.1c-1.3,1.9-1.9,3.8-2.9,5.8
	c-2.5,5.1-4.7,9.8-6.5,15.2c-2.3-1.8-2.8-4.9-3.9-7.4c-1.2-2.9-2.8-5.1-3.2-8.2c-0.2-1.7-0.1-2.7-0.9-4.2c-0.8-1.5-1.7-2.4-2.1-4.1
	c-0.8-3.5-3.7-13-0.2-15.6c1.7-1.3,1.8-1.6,2.5-3.9c1.2-3.7,3.3-6.7,5.2-10.1c1.7-3.1,3.1-6.4,5.1-9.5c2.3-3.6,5.5-7.1,7-11.1
	c1.4-3.6,1-4.1,2.1-8c0.7-2.4,3-7.4,4-9.7c1.1-2.4,2.2-4.5,3.2-6.9c1-2.3,2.2-5.2,3.7-7c-1.3,4.2-2.7,7.6-4.1,11.1
	c-1.7,4.5-6.2,12.7-7.1,21.2c2.1-1.6,5.6-6.7,7.2-8.7c2.5-3.1,4.4-8.4,5.6-12.2c1.1-3.7,2-7.6,2.6-11.4c0.2-1.5,1.6-6.4,0.3-7.5
	c-1.3-1.2-8.1,5.4-9.3,6.8c-2.4,2.7-4,6.2-6.1,9c-4.9,6.7-7.8,14.6-10.6,22.3c-2.1,6-5.3,11.7-7.2,18.1c-0.9,3.1-2.2,6.1-2.9,9.2
	c-0.4,2-0.4,7.4-3.9,6.4c0.1-0.9,0.8-1.5,0.9-2.4c0.2-1.2-0.1-2.2-0.1-3.5c0.1-2.2,0.8-4.4,0.9-6.8c0.2-2.4,1.1-4.5,1.6-6.7
	c0.5-2,0.6-4.2,1.2-6.2c1.7-0.6,8.2-2.8,4.5-5.5c-1.3,1.2-2.6,3.3-2.7,0c-0.1-1.8,1.2-3.7,1.8-5.4c1.1-3.1,1.4-8.2,4.8-9.3
	c3.7-1.2,4.9-2.8,6.9-5.9c2.1-3.3,3.6-6.6,5.3-10.1c3.7-8,6.9-16,12.3-22.8c3.8-4.8,7.8-9.9,11.5-14.7c-1.7,2.6-4.1,6.5-5.9,9
	c-2.2,3-3.6,4.2-5.4,7c-1.6,2.5-3.4,5.5-4.9,8.3c-1.2,2.2-4.4,9.8,0.5,6c2.4-1.9,5.2-3.6,7.4-5.7c2.5-2.4,5.2-7,6.6-10.2
	c2-4.6,8.3-14.8,4.1-19.4c-1.5,0.8-2.7,2.4-4.1,3.4c-1.6,1.1-3.5,1.9-4.8,3.4c-2.9,3.3-4.4,7.2-6.9,10.8
	c-4.8,6.9-7.2,14.5-11.2,21.6c-2,3.4-3.4,7-5.3,10.4c-0.9,1.6-1.6,3.8-2.9,5.1c-1.5,1.4-2.6,1.5-2.1-0.7c0.3-1.5,1.9-3.4,2.6-4.7
	c0.8-1.6,1.7-3.6,2.8-5c2.6-3.6,4.9-6.5,6.6-10.6c0.7-1.6,3-6.2,2.6-7.9c-1.4,1.5-3.7,2.5-4.8,4.2c-0.9,1.4-1.3,3.8-2,5.5
	c-1.6,3.4-4,6.2-6.2,9.4c-1.4,2.1-4.3,10.1-7.1,8.3c-3.2-2.1,1.8-9.7,2.8-12c2.1-4.7,4.7-8.3,7.8-12.2c2.6-3.4,4.3-7.1,6.6-10.7
	c2.4-3.8,5.7-7.9,8.1-11.8c2.3-3.8,2-7.7,3.9-11.5c0.9-1.7,4.6-9.9,1-9.1c-2.5,0.6-6.3,4.4-8,6.3c-2.5,2.8-4.7,5.9-6.5,9.2
	c-1.5,2.7-3.6,7.1-3.8,10.1c-0.1,0.5-2.3,6.8-2.3,7.5c3.3-2.6,6.8-11.8,8.9-15.3c1.5-2.6,5-8.9,8.3-9.4c-8.9,11.4-14.3,22.2-21.1,35
	c-1.4,2.6-6.6,9.6-7.8,16.9c-0.3,2.1-0.9,4.4-1.1,6.4c-0.3,2.4,1.3,3.6,3.6,4.4c0.5,2.1-1.1,3.2-2,4.8c-1.1,2-1,4.4-1.7,6.6
	c-0.6,1.8-1.2,5.5-2.5,6.4c-1,0.7-2.3-0.6-2.1,1.4c0.1,1,3.3,3.5,0.3,4c-1.3,3.8-1.4,8.5-2.1,12.6c-0.8,4.5-1.7,8.9-1.6,13.7
	c-2.5-3-4.5-3.9-5.5-8c-0.9-3.5-1.4-7.7-1.4-11.5c0-5.3-0.5-10.5,0.4-15.8c1.3-7,1.7-11.7,2.9-18.8c1-6.1,3.6-15.1,7.9-19.8
	c-1.6,3.4-2.8,4.6-3.6,8.5c-0.8,3.7-1.8,8.7-2.6,12.4c-1.8,9-3.9,17.4-3.9,26.9c0,2.6,0.5,4.7,0.7,7.1c0.2,0.1,0.2,4.5,0.4,4.6
	c1.1-0.9,1.8-2.6,2.1-3.9c0.5-2.3,1-8.3,1.4-10.7c0.9-4.7,2.4-9.5,3.6-14.1c2.3-8.6,5.5-20.2,7.2-28.9c0.8-3.9,1.2-7.5,1.4-11.7
	c0.1-1.1-0.5-3.7-1.6-4.3c-0.9-0.5-3.4,1.9-4,2.7c-4.8,5.5-7.5,12.6-10.2,19.3c-6.4,15.9-8.7,30.1-4.9,47.3c0.9,3.9,1.2,11,3.1,14.7
	c0.7,1.3,1.3,2.7,2.4,3.8c1.4,1.5,2.8,1.2,4.4,2.1c2.5,1.4,1,2.2,0.7,4.2c-0.3,1.8,0.6,3.7,0.9,5.5c0.8,3.9,0.6,9.2,3.2,12.4
	c0.7,0.9,1.2,0.7,1.6,2.1c0.6,2.1,0,4.1,0.8,6.2c0.8,2.3,2.4,4.3,3.8,6.2c1.5,2,2.6,3.8,3,6.2c0.3,1.9-0.4,5.5,0.9,7
	c0.2-0.2-0.9,1.6-0.6,1.5c1,3.5,0.1,5.1,1.4,8.6c1.3,3.5,4.3,3.2,7.2,4.5c0.1,0.2,0.3,1.1,0.2,1.3c-1.3,0.8-4.6-0.2-6.2-0.4
	c-2-0.3-2.8-0.8-3.9-2.6c-1.9-3.3-2.9-7.3-4.4-10.7c-3.9-9.1-6.4-18.6-11.3-27.3c-2.3-4.2-4.5-9.3-6.2-13.7
	c-0.8-2.1-5.4-11.7-8.2-8.8c-1.9,2-1,9.1-0.9,11.2c0.2,4.3,0.3,6.5,1.4,11.3c0.9,3.8,1.5,6.3,3.2,9.9c1.9,4.2,4.1,9.8,6.5,13.7
	c2.1,3.5,4.1,5.7,7.1,8.6c1.7,1.7,5.7,8.5,7.3,7.6c0.8-2.3-3.9-9.2-5.7-12.3c-2.2-4.1-4.5-8.2-6.4-12.3c-2-4.3-7.4-15.2-9.1-19.7
	c-1.8-4.7-0.1-3.4-1.1-8.3c-0.2-0.9-0.3-1.7-0.5-2.6c1.6,7.8,4.1,15.4,8,22.4c4.1,7.4,7.1,15.6,11.6,22.7c2.4,3.8,4.8,7.3,7.2,11.1
	c2.5,3.7,3.4,8.2,6.5,11.4c1.4,1.4,3,2.9,4.9,3.5c2,0.7,4.1-0.3,5.7,0.9c1.3,1,2.7,3.6,3.7,5c1.6,1.9,3,4.1,4.4,6.1
	c0.9,1.3,1.9,3.2,3.4,4c2.1,1.1,4.3,0.3,6.5,0.4c4.6,0.3,7.2,4.4,10.4,7.1c4.4,3.9,9.6,7.2,14.6,10.4c1.6,1,3.3,1.9,5.1,2.7
	l-4.9,1.2c-4.4-2.5-8.6-5.3-12.4-8.5c-2.1-1.8-4.2-4.3-6.6-5.6c-2.7-1.4-5.9-2.7-8.7-3.9c-3.6-1.4-7.3-3.5-9.9-6.3
	c-2.8-2.9-4-6.8-7.1-9.5c-2.1-1.8-4.9-0.5-7.1-2.4c-2.3-2.1-3.9-5.2-6.2-7.3c-2.5-2.2-5.3-4.4-7.6-6.9c-2.8-3.1-6.1-6.7-8.6-10.2
	c-2.8-3.8-5.4-7.5-7.4-11.4c-4.1-7.8-7-14.3-8.3-22.7c-0.6-3.9-0.9-8.2-1-12.2c-0.1-2.8-0.7-8.5,1.4-10.5c2.1-2,5.4,0.6,6.8,2.4
	c2.2,3,3.9,6.6,5.5,9.9c3.4,7.1,6,14.1,9.5,21.1c1.5,3.1,2.9,6.4,4.2,9.5c1.1,2.5,1.5,9.5,3.8,11.2c1.1-3.3,0.9-10.5-0.7-13.4
	c-3-5.5-6.9-9.8-8.4-15.7c-0.8-3.3-2-6.7-3.1-10c-1.5-4.5,0-10.1-3.8-13.6c-1.4-1.3-2.6-2.7-3.4-4.5c-1.6-3.6-2-7.4-2.8-11.2
	c-0.8-3.9-2-7.8-2.4-11.8c-0.4-4.5-0.8-9.1-0.3-13.6c0.4-4.2,0.7-8.7,1.5-12.8c1.9-9.6,4-16.1,6.7-21c1.4-2.7,3.1-6.4,4.6-9.1
	c2.1-3.7,4.3-6.9,7-10.2c1.7-2.1,4.7-5.1,5.9-0.9c0.8,2.7,0.5,5.9,0.4,8.8c-0.1,2.5,0,5.4-0.6,7.6c1.8-3.7,2.8-6.6,4.7-10.3
	c4.2-8.3,7.1-18.4,12.2-26.2c2.5-3.8,5.6-7.3,9.5-9.7c1.7-1.1,6.8-4.9,7-0.6c0.2,3.2-1.2,6.3-1.9,9.3c-0.7,2.7-1.6,5.6-2.7,8.3
	c-1,2.5-3,5-3.7,7.6c-0.1,0.1-0.1,0.1,0,0c0.8-0.9,1.6-1.8,2.4-2.8c4.7-5.6,8.9-11.9,13.6-17.6c4.8-5.7,9.9-9.8,15.5-14.3
	c4.8-3.9,11-5.9,16.7-7.7c2.4-0.8,6.8-2.8,10.4,0.5c2.3,2.2,0.2,3.8,0.3,6.1c0.2,2.7,2.8,0.4,4.5,1.6c1.1,0.8,0.6,3.3,0.1,4.4
	c-1.3,2.9-4.3,5.6-6.8,7.4c-6.4,4.7-13.1,8.2-19.8,12.1c-3.1,1.8-6.6,3-9.6,5.1c-1.3,1-2.7,1.8-4.2,2.6c-1.1,0.6-2.8,0.9-3.6,2
	c-0.8,1-0.8,2.8-1.1,4c-0.8,3.2-2,6.2-3.7,9c-1.2,2-2.4,4-4,5.7c-0.6,0.7-2.5,1.2-2.9,2c-0.3,0.7,0.3,2.4,0.2,3.1
	c-0.2,4.6-1,9.2-2.3,13.7c-2.5,8.9-6.8,17.4-12.5,24.7c-2.6,3.4-5.6,6.1-8.2,9.5c-2.3,3.1-5.1,5.9-7,9.2c-2.5,4.3-5.5,8.3-7.5,12.9
	c-2.1,4.8-2.3,9-1.8,14.2c0.2,1.6-0.2,3.3,0.2,4.7c0.4,1.6,1.6,2.8,2.4,4.1c1.1,1.7,0.6,2.4,0.5,4.2c-0.1,1.6,0.7,3,1.4,4.3
	c1.3,2.5,1.9,5,3.6,7.2c1.5-2.6,1.8-5.5,3.5-8c2.9-4.4,4.8-9.4,7.7-14.1c2.3-3.8,4.4-7.9,6-12.1c0.8-2.1,1.7-8.5,5.2-7.2
	c0.9,0.3,1.8,1.4,2.2,2.2c0.4,0.8,0.2,2.2,0.7,2.7c0.9,0.8,3.4,0.2,4.5,0.7c1.8,0.8,1.9,1.7,2,3.6c0.1,1.6-0.2,3-0.5,4.3
	c-0.1,0.5-0.4,1.6-0.4,2c0.2,1.3,0.1,0.6,0.8,1.2c1.1,1,2,1.2,2.4,2.7c0.4,1.4,0.2,3.3,0.2,4.8c0,3.4-0.4,6.7-1,9.9
	c-0.7,3.8-2.3,7.6-3.9,11.1c-0.7,1.5-1.7,2.6-2.2,4.1c-0.6,1.5-0.9,3.1-1.5,4.6c-1.2,3.2-2.3,6.3-3.2,9.6c-0.4,1.6-0.4,3.2-0.7,4.8
	c-0.6,3.1,0,4.1,2.9,4.5c1.9,0.3,3.4,0.4,4,2.5c0.4,1.5,0.2,3.5,0.3,5.1c0.2,1.6,0.5,3.3,0.9,4.9c0.7,2.8,1.7,5.4,3.6,7.8
	c1.6,2,3.2,3.5,5,5.3c1.8,1.8,8,10.1,11.1,7.4c1.9-1.7,3.5-4.1,6.3-4.2c2.3-0.1,4.7,1,6.8,1.8c6.3,2.4,12.6,5.6,18,9.5
	c2.3,1.7,3.3,3.9,5.2,6c3.2,3.4,9-0.5,12.4-1.5c1.3-0.4,2.9-0.1,4.3-0.2c2.5-0.1,5.1-2.1,7.3-2.1c3.2,0.1,3.6,3.3,5.8,4.3
	c0.9,0.4,2.6,0.5,3.6,0.4c1.4-0.3,1.1-0.2,1.9-1.5c1.7-2.5,3.2-4.5,5.8-6.2c1.2-0.8,2.3-1.7,3.6-2.3c1.6-0.7,3.5-0.9,5-1.5
	c4-1.7,7.7-4,11.6-5.9c2.2-1.1,8.2-4.8,10.6-2.4c0.9,0.9,0.3,2.6,1.3,3.3c1.4,1.2,5.4-1,6.4-2.3c0.7-1,0.4-2.3,0.7-3.4
	c0.4-1.2,1.2-2.1,1.9-3.1c2.6-3.8,4.7-7.1,5.7-11.8c0.4-2.1,0.3-4.3,0.3-6.5c0-2.5-0.7-3.6,1.5-5.2c1.9-1.4,2.7-1.3,4.8-0.7
	c0.7-1.2,0.6-2.4,1.1-3.6c0.4-1,1.4-1.7,1.8-2.8c0.7-2.1-1-3.7,0-5.8c0.5-1,1.4-1.1,1.2-2.6c-0.1-1-0.9-1.9-1.6-2.7
	c-1.9-1.9-4.5-2.7-6.4-4.6c-2.4-2.3-1.5-5.6-2.2-8.6c-0.7-3.3-0.5-4.3,2.6-6.1c3.1-1.8,1.7-4.3,1.9-7.4c0.2-3.8-1.1-5.2-3.1-8.4
	c-1.7-2.6-3.3-4.8-0.7-7.5c1.9-2,3.8-3.3,5-5.9c0.7-1.5,1-2.3,2.8-2.7c1.5-0.3,2.6,0.7,4,0.9c1.1,0.1,2-0.5,3.1-0.3
	c2.1,0.4,3.7,2.9,4.3,4.7c0.9,2.8,0.6,5.8,0.6,8.9c0,1.8,0,3.6-0.2,5.3c-0.1,1.1-0.8,3.6-0.3,4.5c0.7,1.5,2.6,0.7,3.8,1.2
	c1,0.4,1.8,1.4,2.4,2.2c2.2,2.9,2.5,0.4,5-0.7c1.1-0.5,2.6-0.5,3.8-1c1.4-0.7,1.4-1.7,1.7-3.1c1-4.9,1.9-9.8,2.1-14.8
	c0.1-2.1,0.1-3.8-1-5.6c-0.9-1.4-2.4-2.5-2.9-4.1c-0.8-2.5-1.3-4.4-3-6.6c-1.8-2.2-3.8-4.3-5.4-6.7c-1.2-1.8-2.6-3.5-3.8-5.3
	c-0.9-1.3-1.1-2.7-1.7-4.1c-1.7-3.9-4.6-7.2-7.8-9.9c-1.3-1.1-2.9-1.3-4.5-1.9c-1.5-0.6-2.4-1.6-3.6-2.6c-2.5-2.2-6.5-2.2-6.7-6.2
	c-0.1-1.8,0-3,1-4.3c0.9-1.2,1.9-1.6,1.2-3.3c-1-2.7-3.9-4.3-2.4-7.7c0.5-1.2,1.7-1.7,2.1-2.9c0.5-1.6-0.5-3-0.2-4.7
	c0.2-1.3,1-2.4,1.2-3.7c0.2-1.3,0.5-2.5,1.7-3.3c-2.4-0.9-4.9,0-7.2-1.4c-3.5-2-2.8-6.6-6.8-8.2c-1.8-0.7-6.3-1.2-5.6-4.1
	c0.5-2.1,5.9-2.6,4.1-5.5c-1.4-2.2-5.3-2.8-7.5-3.9c-3.1-1.6-2.1-5.5-5.9-6.2c-1.8-0.4-3.4-0.1-3.6-2.2c-0.1-0.8,0.6-1.8-0.2-2.4
	c-0.6-0.5-2.1,0.2-2.8,0.4c-1.7,0.2-3.7,0.9-5.3,0.2c-1.6-0.7-2.1-2-3.8-2.3c-2-0.3-3.9,0.2-4-2.4c0-1.6,1.2-2.9-1-3.8
	c-1.6-0.7-3.1,0.5-4.6,0.4c-1.4-0.1-2-1.4-3-2.3c-1-1-1.7-1.4-1.8-2.9c0-1.4,0.1-2.2-1.1-3.1c-1-0.8-2.8-0.8-3.4-2.2
	c-0.7-1.7-0.6-5.2,1.3-6.1c1.7-0.8,3.9,0.4,5.8-0.3c2.7-0.9,0.1-3.1,4.4-2.7c1.4,0.1,2.8-0.3,3.9,0.4c1.5,0.9,2,0.6,3.7,0.9
	c1.2,0.2,2.5,1.5,3.8,1.4c1.4-0.2,1.9-1.4,3.6-0.9c1.9,0.5,4.7,2.2,6.2,3.3c1.9,1.4,4,2.9,5.3,4.9c0.5,0.7,1.1,2.5,1.8,2.9
	c1.1,0.7,1.3-0.1,2.3-0.6c3.4-1.4,3.7,1.4,5.2,3.6c0.3,0.5,5.1-0.6,5.9-0.4c1.9,0.3,3.6,1.2,5,2.3c1,0.8,1.8,1.7,3,1.8
	c1.6,0.1,2.5-1.2,3.9-1.3c2.6-0.2,4.7,2.8,5.4,5.1c0.4,1.4,0.8,2.6,1.5,4c0.5,1.1,0.6,2.8,1.4,3.6c2.4-1.2,4.9-3.8,6.3,0.1
	c0.5,1.4,0.6,2.7,1.4,4.2c0.8,1.5,1.5,2.6,1.9,4.2c0.4,1.6,0.5,3,0.5,4.7c0.1,1.8,0.2,2.7,1.9,2c1.4-0.6,1.8-1.9,3.2-2
	c1.1-0.1,2.4,0.8,3.2,1.6c1.5,1.5,2.1,1.9,3.6,3.3c0.8,0.7,1.1,3.2,1.9,3.7c1.4,0.7,3.2,0,4,1.4c1,1.7,2.4,3.8,3.1,5.6
	c0.9,2.4-0.2,5-0.2,7.4c2.2-0.3,5.3-0.9,6.2,1.9c0.4,1.2,0.5,3.1,0.5,4.3c0.1,2.8,2.1,5.9,1.4,8.6c-0.2,0.8-1,2.2-0.5,3.1
	c0.7,1.2,1.5,0.4,2.6,0.4c1.6,0,2.6,0.9,3.2,2.3c1.4,2.8,1.2,6.7,0.7,9.7c-0.3,2-1.4,2.7-2.1,4.4c-0.8,1.9,0.7,2.1,1.9,3.4
	c2.6,2.7-1.2,5.6-2.4,8.1c-0.7,1.3-1.4,3-1.4,4.5c0.1,1.3,1,3.6,0.2,4.9c-0.5,0.8-1.2,0.4-1.7,1c-0.6,0.6-0.2,0.8-0.5,1.6
	c-0.6,2-0.5,4.4-2.2,5.8c-1.2,1-2.8,0.7-2.7,2.8c0.1,3,4,1.1,5.5,0c1.7-1.3,2.1-0.5,3.9-1c1.6-0.4,2.3-2,4.2-1.2
	c1.9,0.8,3.5,5.8,3.6,7.9c0.1,1.6-1.5,2.7-1.4,4.1c0.2,1.1,0.8,0.7,1.5,1.5c0.6,0.6,1.1,1.8,1.2,2.7c0.5,3.1-2.3,5.7-3.5,8.3
	c1.2,1.2,2.1,1.5,1.6,3.4c-0.5,1.7-2,2.3-2.9,3.6c-1.2,1.7-0.4,6.1-0.7,8.6c-0.3,3-1.3,5.9-2.9,8.4c-0.8,1.3-1.5,2.6-2.3,3.9
	c-0.6,1-2.1,2.4-2.5,3.4c-0.7,1.9,1.7,3.5,1.4,5.6c-0.3,2.1-2.5,4.5-3.9,6.1c-1.1,1.3-2.5,2.6-3.7,3.9c-1.2,1.2-2.4,1.8-3.6,2.8
	c-1.8,1.6-0.1,2.5-0.4,4.8c-0.2,1.6-1.4,2.5-2.7,3.4c-2.7,1.8-6.1,1.6-8.8,2.9c-1.3,0.7-2.4,1.8-3.6,2.6c-2.7,1.6-5.9,0.7-8.7,1.7
	c-1.3,0.5-2.2,1.7-3,2.8c-1,1.4-1.7,2.9-2.8,4.2c-1,1.2-2.3,2.2-3,3.6c-1.9,3.5-3.3,6.4-6,9.4c-1.2,1.4-2.2,1.7-3.8,1.9
	c-2,0.2-2,0.9-3.5,2.1c-3.1,2.5-6.6,4.3-9.5,7.1c-1.7,1.6-2.3,2.1-4.6,2.4c-1.3,0.2-3.7,0.2-3.7,1.6c-0.1,2.2,4.1,3.5,4.7,4.7
	L1230.8,257.9z M1231.7,286.5c2.1,2.3,4.8,4.7,7.4,6.5c3.4,2.4,7,5,11.1,6.1c1.1,0.3,2.8,0.6,3.4,1.8c1.4,3.1-2.9,3.5-4.6,4.7
	c-1.2,0.8-2.5,1.4-3.8,2c-3.1,1.5-6.5,3.4-10.1,1.9c-1.4-0.6-2.9-1.6-3.7-2.9c-1.1-1.8-0.9-2.5-3.2-3c-3.1-0.8-4.5-4.2-6.8-6.4
	c-2.4-2.3-5.1-4.1-7.5-6.4c-2.6-2.4-5.9-4.8-7.7-7.7c-0.8-1.3-1.5-2.6-2.3-3.8l10.1,3.3c0.9,1.7,1.8,3.5,2.9,5
	c2.6,3.6,5.8,5.8,9.1,8.4c2.2,1.7,3.9,4.1,6.5,5.2c1.6,0.8,6.8,1.1,7.3-1.5c0.2-1.1-2.6-3.7-3.3-4.6c-2.5-3.2-6.2-4.5-9.1-7.4
	c-0.6-0.6-1.2-1.2-1.9-1.9L1231.7,286.5z M1187.1,282.4c-2.7,1.3-5.6,3.6-7.8,5.5c-0.6,0.5-1.2,1-1.8,1.5c-1.4,1-1,0.3-1.4,1.9
	c-0.4,1.6-0.3,1.4-1.5,2.6c-0.4,0.4-0.8,1-1.3,1.3c-0.4,0.2-0.9-0.3-1.2-0.1c-0.9,0.5-1.4,1.6-2.2,2.2c-0.8,0.6-1.7,0.7-2.5,1.2
	c-1.2,0.8-1.9,1.6-2.4,2.9c-0.6,1.5-0.5,3-1.7,4.2c-1.3,1.4-3.1,1.7-4.6,2.8c-1.2,0.9-1.4,2.3-2.3,3.2c-1,1-3.9,1.4-5.2,1.5
	c-2.8,0.2-6.3-0.8-8.2-2.8c-0.9-0.9-1.3-2.5-2.6-3.1c-1.7-0.7-2.9,0-3.6-2c-0.3-1.1-0.2-3.2,0.5-4.1c0.8-1,3.1-0.9,4.6-1.4
	c3-1.1,4.6-3.4,7.2-5.1c1.5-1,2.8-2.2,4.4-3.1c1.7-0.9,3.7-1.5,5.2-2.7c0.6-0.5,1.1-1.1,1.5-1.7l5.8-1c-0.9,1.9-3.9,2.2-5.9,3.2
	c-1.1,0.6-2.1,1.6-3.3,2.2c-1.6,0.8-3.2,1.2-4.8,1.8c-0.1,0.9,0.2,1.7,0.8,2.4c-1.7,1.3-4,1-5.7,2.3c-1.5,1.1-3.3,3.3-5.3,3.6
	c-0.2,2,4.2,1.7,5.6,1.7c3,0.1,4.2-1.2,6.6-2.7c3.7-2.3,7.1-6.5,12.1-8c5.5,2.7-7,5.7-9.4,9.8c0.1,0.3-2.2,0.9-2,1.1
	c1.3-0.8,2.4-2.3,3.8-3.3c1.4-1,4.9-2.4,6.3-3.2c2.7-1.6,3.8-3.5,5.9-5.9c1.9-2.3,3.1-4.7,5.9-6.9c0.9-0.7,1.9-1.4,2.8-2.1
	L1187.1,282.4z"/>
<path class="st0" d="M1216.2,270.2c0,0,0.5,3.2-0.7,4.6c-1.2,1.4-4.8,2.8-5.7,3.5c-0.9,0.7-0.9,1.6,0.2,2.3
	c1.2,0.7,20.2,5.3,28.2,6.4c8,1.1,20.9,2.1,25.7,2.3c4.8,0.2,13.6,0,15.8-1.4c2.3-1.4,13.3-8.7,16.5-11c3.2-2.3,17.2-11.7,18.8-13.3
	c1.6-1.6,4.1-5.7,4.6-6.9c0.5-1.2,0.9-3,0.7-4.1c-0.2-1.1-4.1-13.8-5.1-16.1c-0.9-2.3,0-4.4-0.9-5.1c-0.9-0.7-0.9,1.6-1.6,2.5
	c-0.7,0.9-2.8,1.4-3.9,2.3c-1.2,0.9-9.4,5.8-10.8,6.9c-1.4,1.1-21.6,16.8-24.1,18.8c-2.5,2.1-6,1.9-8.5,2.1
	c-2.5,0.2-17.2-2.1-21.6-2.5c-4.4-0.5-21.1-4.8-22.9-5.3c-1.8-0.5-9.7-0.7-11.3-0.7s-2.3,1.2-2.3,1.2
	C1209.4,259.2,1216.2,270.2,1216.2,270.2 M1070.4,247c-0.2,2.8-3.4,9-3.9,10.3c-0.5,1.4,1.1,4.1,1.6,4.8c0.5,0.7,4.1,5.7,6.4,7.1
	c2.3,1.4,13.1,8.3,16.5,10.1c3.4,1.8,17.2,12.4,21.1,13.3c3.9,0.9,28.5-2.3,34-3.5c5.5-1.1,19.5-4.8,24.6-6c5.1-1.1,20.7-6,21.6-6.4
	c0.9-0.5,3,0,3.4-3c0.5-3-3-15.1-3-16.1c0-0.9-1.4-1.4-1.4-1.4l-25.3,0.2c0,0-3.2-0.2-6.4,0.7c-3.2,0.9-17.2,4.8-20.7,5.5
	c-3.4,0.7-19.3,2.5-20.4,2.8c-1.1,0.2-4.8,0.7-6.4-0.7c-1.6-1.4-19.5-14.2-23-16.8s-17.2-10.1-17.2-10.1
	C1071.1,237.6,1070.7,244.3,1070.4,247z M1078,239.9c0,0,12.4,6.9,17.2,9.9c4.8,3,16.1,13.1,18.4,14c2.3,0.9,15.8-0.7,20-1.4
	c4.1-0.7,13.3-2.8,16.8-3.7c3.4-0.9,8.9-3.2,9.6-3.7c0.7-0.5,30.3-0.9,31.7-0.5c1.4,0.5,1.8,0.9,2.1,1.6c0.2,0.7,2.3,9,2.5,9.9
	c0.2,0.9,2.8,7.6,2.3,9c-0.5,1.4-3.9,5-5.3,6c-1.4,0.9-0.9-1.8-0.9-1.8s-2.1,0.5-2.8,1.4c-0.7,0.9-1.2,1.6-0.7,2.3
	c0.4,0.7,4.8,3.2,6.4,2.8c1.6-0.5,8.7-7.4,9.4-8.3c0.7-0.9,2.3-3.5,2.3-3.5l1.2,2.1c0,0,2.3-0.5,3.4-1.8c1.2-1.4,2.1-3.2,1.2-4.6
	c-0.9-1.4-8.9-14.5-10.6-15.4c-1.6-0.9-4.8-0.9-6-1.2c-1.2-0.2-5.3-0.7-6.2-0.2l-3,3.2l-3.7-0.7l2.3-2.5c0,0,0.7-0.7,1.8-0.9
	c1.2-0.2,6-0.2,8.5-0.9s3.2-1.6,4.1-0.9c0.9,0.7,3.9,3.4,5.5,4.1c1.6,0.7,5.5-0.4,7.3,0c1.8,0.4,8.7,0.7,10.1,1.1
	c1.4,0.5,7.4,2.1,10.1,2.5c2.8,0.5,14,3.5,20.4,3.5c6.4,0,15.8,0.7,16.6,0.7c0.7,0,16.8-12.2,17.9-12.6c1.1-0.5,19.8-14.2,19.8-14.2
	s-0.5-2.1-1.2-2.8c-0.7-0.7,0.2-0.9-1.8-1.2c-2.1-0.2-11.5-0.4-11.5-0.4l-1.8-1.8l0.2-1.6h2.5c0,0,0.9-1.4,0.4-2.1
	c-0.4-0.7-2-1.2-3.2,0c-1.1,1.1-2.1,3.2-1.4,3.9c0.7,0.7,3.4,0.2,3.4,0.2s-2.5,0.5-2.5,1.4c0,0.9,0,14.2,0,14.9c0,0.7,0,2.5,0,2.5
	l-2.8,2.1c0,0,1.4-17.4,1.2-18.6c-0.2-1.2-2.1-2.5-1.2-4.6c0,0,1.2-3.2,2.8-3.9c1.6-0.7,4.8-1.6,5.3-0.9c0.5,0.7-0.4,4.8,0.7,5.7
	c1.2,0.9,2.1,1.4,3.9,1.4s10.3-0.5,11.5,0c1.2,0.5,4.3,0.7,4.8,2.1s-0.5,2.3-0.2,3.7c0.2,1.4,4.6,14.9,5.5,16.3
	c0.9,1.4,2.1,2.3,1.8,3.2c-0.2,0.9-4.4,6.9-5.1,8.1c-0.7,1.1-2.1,3.4-3,4.1c-0.9,0.7-34.4,23.4-35.4,23.6
	c-0.9,0.2-20.7,1.2-23.6,0.9c-3-0.2-20.4-2.5-21.1-2.3c-0.7,0.2-25.7-5-30.5-8.3c-4.8-3.2-1.8,0.5-2.8,1.2c-0.9,0.7-5.5,5.3-6.2,5.7
	c-0.7,0.5-3-0.5-3-0.5s-6.2-3-7.6-3.7c-1.4-0.7-11.9,0.7-15.6,1.8c-3.7,1.1-16.5,4.6-21.1,5.7c-4.6,1.2-24.1,3.7-26.6,3.9
	c-2.5,0.2-11,0.7-11.9,0.2c-0.9-0.5-15.6-10.8-18.1-12.6c-2.5-1.9-14-8.5-16.8-10.1c-2.8-1.6-8.7-8.7-8.7-8.7s-3.2-3.5-3-5.5
	c0.2-2,1.4-2.3,2.8-6c1.4-3.7,2.3-11,2.3-12.9c0-1.9,0-3.7,0.9-4.1c0.9-0.4,4.4-0.9,6.4-0.9c2.1,0,11.2,0,12.9-0.5
	c1.6-0.4,1.1-4.1,0.9-5.1c-0.2-0.9,0.2-3,1.2-2.8c0.9,0.2,6.2,3.7,6.6,4.8c0.5,1.2,0.7,2.1,0,4.8c-0.7,2.8-0.7,7.6-0.4,8.7
	c0.2,1.1,0.7,5.5,0.7,6.2s0,2.3,0,2.3l-3.4-2.1c0,0,0.5-14.2,0.7-14.9c0.2-0.7,0.9-2.1,0.7-3.5c-0.2-1.4-1.6-0.7-2.1,0.7
	s-1.4,2.3-4.4,2.3c-3,0-11.7-0.7-12.2,0.5C1077.3,237.2,1076.9,239.2,1078,239.9z"/>
<path class="st0" d="M1234.2,196.6l-45.1-30.9l-45.2,30.9l16.6-54.1l-45-32.8l55.2-0.1l18.4-53.2l18.4,53.2l55.2,0.1l-45,32.8
	L1234.2,196.6z M1128.9,114.1l36.7,26.8l-13.8,45.1l37.3-25.6l37.3,25.6l-13.8-45.1l36.7-26.8l-44.9-0.1l-15.3-44.2l-15.3,44.2
	L1128.9,114.1z"/>
<path class="st0" d="M1196.9,242.9c0,0,0,0-0.1,0c-0.2,0-6.3-0.1-6.3-0.1c0,0-6.1-0.1-6.3-0.1l0,0c-0.8,0-1.6-0.3-2.1-0.9
	c-0.4-0.4-0.8-1-0.8-2.1l0.1-7.1c0,0,0-0.1,0-0.1c-0.5-0.1-2-0.5-6-1.1l-0.2,0c-2.9-0.5-4.9-0.7-5.6-0.8c0,0.1-0.1,0.1-0.1,0.1
	c0,0-2.1,6.1-2.3,6.7c-0.6,1.6-2.1,2.4-3.7,1.9c-0.3-0.1-3.7-1.2-6-1.9c-1-0.3-5.9-1.9-6.1-2c-0.8-0.2-1.4-0.8-1.8-1.4
	c-0.2-0.5-0.5-1.2-0.1-2.2c0.2-0.6,2.2-6.7,2.2-6.7c0,0,0-0.1,0-0.1c-0.5-0.3-1.8-1-5.3-2.8l-1.4-0.7c-1.1-0.6-3.5-1.8-4.4-2.1
	c-0.1,0.1-0.1,0.1-0.1,0.1c-0.2,0.2-3.9,5.2-4.3,5.7c-0.5,0.7-1.3,1.1-2.1,1.2c-0.7,0-1.4-0.2-2-0.6c-0.2-0.1-5.1-3.6-5.1-3.6
	c0,0-4.8-3.5-5.1-3.7c-0.7-0.5-1.1-1.1-1.3-1.9c-0.1-0.5-0.1-1.4,0.6-2.2c0.4-0.5,4.1-5.5,4.3-5.7c0,0,0-0.1,0.1-0.1
	c-0.4-0.4-1.4-1.2-2-1.8c-0.8-0.7-1.6-1.4-2.2-2c-0.4-0.4-0.9-0.9-1.5-1.5c-0.9-0.9-2.3-2.4-2.9-2.9c-0.1,0-0.1,0.1-0.2,0.1
	c0,0-5.3,3.9-5.8,4.3l-1.7-2.2c0.5-0.4,5.8-4.3,5.8-4.3c0.3-0.2,1.6-1.1,2.9-0.4c0.5,0.2,1.4,1.1,3.8,3.5c0.5,0.6,1.1,1.1,1.4,1.5
	c0.6,0.5,1.3,1.2,2.1,1.9c1.8,1.6,2.5,2.2,2.8,2.8c0.7,1.3-0.2,2.7-0.4,2.9c-1.1,1.5-3.9,5.3-4.2,5.7c0,0.1-0.1,0.1-0.1,0.1
	c0,0,0,0,0.1,0c0.2,0.1,4,2.9,5.1,3.7c0,0,5,3.5,5.1,3.7c0.1,0.1,0.1,0.1,0.2,0.1c0,0,0,0,0.1-0.1c0.3-0.4,3.2-4.2,4.3-5.7
	c0.2-0.3,1.2-1.5,2.6-1.3c0.6,0.1,1.8,0.7,5.4,2.4l1.4,0.7c4.8,2.4,5.8,3,6.2,3.4c1.1,1,0.6,2.6,0.5,2.9c0,0-2,6.1-2.2,6.8
	c0,0.1,0,0.1,0,0.1c0,0,0.1,0,0.1,0c0.3,0.1,6.1,2,6.1,2c1.8,0.6,5.8,1.9,6,1.9c0.1,0,0.1,0,0.1,0c0,0,0,0,0-0.1
	c0.2-0.6,2.3-6.7,2.3-6.7c0.1-0.3,0.7-1.8,2.1-2c0.2,0,0.9-0.1,6.6,0.8l0.2,0c5.7,0.9,6.6,1.2,7,1.4c1.3,0.6,1.3,2.3,1.3,2.6
	l-0.1,7.1c0,0.1,0,0.1,0,0.1c0,0,0.1,0,0.2,0c0.3,0,6.3,0.1,6.3,0.1l0,0c0,0,6.1,0.1,6.3,0.1c0.1,0,0.2,0,0.2,0c0,0,0-0.1,0-0.1
	c0-0.5,0.1-4.9,0.1-7.1c0-0.3,0.1-1.9,1.4-2.6c0.5-0.2,1.8-0.5,5.4-1.1c0.9-0.2,1.8-0.3,2.3-0.4c0.3-0.1,0.7-0.1,1.1-0.2
	c3-0.6,4.5-0.9,5.1-0.8c1.2,0.1,1.9,1.1,2.3,2l0,0c0,0,2.4,5.9,2.6,6.5c0,0.1,0.1,0.1,0.1,0.1c0,0,0.1,0,0.2-0.1
	c0.2-0.1,5-1.8,7-2.5c0,0,4.6-2,4.8-2.1c0.1,0,0.2-0.1,0.2-0.1c0,0,0-0.1,0-0.1l-2.6-6.6c-0.1-0.3-0.7-1.8,0.3-2.9
	c0.4-0.4,1.2-0.8,4.1-2.1c1.1-0.5,2.3-1,2.9-1.4c0.5-0.3,1.1-0.6,1.7-0.9c1.9-1.1,2.8-1.6,3.4-1.7c1.5-0.2,2.5,1.1,2.7,1.3l0,0
	c0,0,3.8,5.3,4.2,5.8c0,0.1,0.1,0.1,0.1,0.1c0,0,0.1,0,0.2-0.1c0,0,0.2-0.1,7.4-4.4c3.3-2.6,4-3.1,4.2-3.3l0,0
	c0.1,0,0.1-0.1,0.1-0.1c0,0,0,0-0.1-0.1c-0.4-0.5-4.2-5.8-4.2-5.8c-0.2-0.3-1.1-1.6-0.4-2.9c0.6-1,5.8-5.3,5.9-5.4
	c0.8-0.7,2.3-2.3,3.4-3.5c1.5-1.7,1.9-2.1,2.3-2.4c1.3-0.7,2.7,0.1,3,0.3c0,0,3.4,2.2,5.1,3.3l-1.5,2.4c-1.7-1.1-5.1-3.3-5.1-3.3
	c0,0-0.1-0.1-0.2-0.1c-0.3,0.4-1,1.1-1.6,1.7c-1.3,1.4-2.7,3-3.7,3.8c-1.1,0.9-4.1,3.5-5.1,4.4c0,0,0.1,0.1,0.1,0.1
	c0,0,3.8,5.2,4.2,5.8c0.6,0.9,0.7,1.6,0.6,2.2c-0.1,0.8-0.6,1.4-1.3,1.9l-0.1,0.1c-0.2,0.1-2.6,2.1-4.1,3.2l-0.2,0.1
	c-2.8,1.6-7.1,4.2-7.4,4.4c-1.4,1-3.1,0.7-4.1-0.7c-0.4-0.6-4.2-5.8-4.2-5.8c0,0-0.1-0.1-0.1-0.1c-0.4,0.2-1.5,0.8-2.3,1.2
	c-0.6,0.3-1.2,0.7-1.7,1c-0.7,0.4-1.9,0.9-3.1,1.4c-1,0.4-2.3,1-3,1.4c0,0,0,0,0,0.1l2.6,6.6c0.4,1,0.2,1.8,0,2.3
	c-0.3,0.7-0.9,1.2-1.7,1.5c-0.2,0.1-4.8,2.1-4.8,2.1c-2.7,1-6.8,2.4-7,2.5c-1.6,0.6-3.2,0-3.8-1.6c-0.2-0.6-2.7-6.6-2.7-6.6
	c0-0.1-0.1-0.1-0.1-0.2c-0.8,0.1-3.1,0.6-4.1,0.8c-0.4,0.1-0.8,0.2-1.1,0.2c-0.5,0.1-1.4,0.2-2.4,0.4c-1.4,0.2-3.7,0.6-4.5,0.8
	c0,0.1,0,0.1,0,0.2c0,0.2-0.1,6.4-0.1,7.1c0,1-0.5,1.7-0.8,2.1C1198.5,242.6,1197.7,242.9,1196.9,242.9z M1088.6,175.6
	c-0.1-0.2-0.8-2.2-2.2-5.9c-0.8-2.2-2-5.6-2.1-5.8c-0.3-0.9-0.3-1.7,0.1-2.4c0.2-0.5,0.7-1.1,1.8-1.5c0.6-0.2,6.9-2.3,6.9-2.3
	c0.1,0,0.1-0.1,0.2-0.1c-0.1-0.4-0.2-1.8-0.9-5.4l-0.2-0.9c-0.2-1.1-0.8-4.2-1.1-5.2c-0.1,0-0.1,0-0.2,0c-2.3,0.1-6.8,0.2-7.3,0.2
	c-1.8,0.1-3-1.1-3.1-2.8c0-0.4-0.2-6.2-0.2-6.2l2.8-0.1c0.1,1.8,0.2,6,0.2,6.2c0,0,0,0.1,0,0.1c0,0,0,0,0.1,0c0,0,0,0,0,0
	c0.6,0,7.1-0.2,7.3-0.2c0.3,0,2,0,2.7,1.3c0.3,0.4,0.5,1.4,1.5,6.2l0.2,0.9c1.1,5.6,1,6.2,1,6.5c-0.2,1.5-1.8,2.1-2.1,2.2l0,0
	c0,0-6.3,2.1-6.9,2.3c-0.1,0-0.1,0-0.1,0.1c0,0,0,0.1,0,0.1c0.1,0.1,1.2,3.2,2.1,5.9c0.8,2.1,2,5.5,2.1,5.8L1088.6,175.6z
	 M1295.4,165.8l-2.6-0.9c0.5-1.5,1.7-4.8,1.8-5c0,0,0-0.1,0-0.1c0,0-0.1,0-0.1,0c-0.6-0.2-6.8-2.4-6.8-2.4c-0.3-0.1-1.8-0.7-2-2.2
	c-0.1-0.5,0.1-1.8,1-7.6l0.1-0.6c0.1-0.5,0.2-1.4,0.3-2.3c0.5-3.5,0.7-4.8,0.9-5.3c0.6-1.3,2.2-1.5,2.6-1.5l0,0c0,0,6.6-0.3,7.2-0.4
	c0.1,0,0.1,0,0.1,0c0,0,0-0.1,0-0.1c0-0.2-0.1-2-0.2-3.6l0-1l2.8-0.1l0,1c0.1,2.9,0.2,3.5,0.2,3.7c0,0.8-0.2,1.5-0.7,2.1
	c-0.4,0.4-1,0.9-2.1,0.9c-0.7,0-7.2,0.4-7.2,0.4c-0.1,0-0.1,0-0.2,0c-0.2,0.7-0.5,3-0.7,4.4c-0.1,1-0.3,1.9-0.3,2.4l-0.1,0.6
	c-0.6,3.6-0.9,5.8-1,6.6c0.1,0,0.1,0.1,0.2,0.1l0,0c0,0,6.2,2.2,6.8,2.4c1,0.3,1.5,1,1.7,1.4c0.3,0.7,0.4,1.5,0.1,2.3
	C1297.1,161.1,1296,164.1,1295.4,165.8z M1289.8,125.2c-0.5,0-1.9-0.1-2.5-1.3c-0.3-0.5-0.9-2.9-1.7-7c-0.1-0.3-0.2-0.8-0.3-1.4
	l2.8-0.5c0.1,0.5,0.2,1,0.2,1.2c0.6,2.8,1.1,5.2,1.4,6.1c0.1,0,0.1,0,0.2,0c0,0,1.4-0.1,3-0.1l0.1,2.8c-1.6,0.1-3,0.1-3,0.1
	C1289.9,125.2,1289.9,125.2,1289.8,125.2z M1263.3,71.2c-0.3,0-0.6-0.1-0.9-0.2c-0.6-0.3-1.2-0.9-2.8-2.6c-0.7-0.8-1.5-1.5-2.1-2.1
	c-0.4-0.4-1.1-0.9-1.7-1.5c-2.5-2.2-3.3-3-3.6-3.5c-0.7-1.3,0.2-2.7,0.4-3c0,0,1.9-2.7,3.2-4.4l2.3,1.6c-1.2,1.8-3.2,4.5-3.2,4.5
	c0,0-0.1,0.1-0.1,0.1c0.5,0.5,1.9,1.8,2.9,2.6c0.7,0.6,1.3,1.1,1.7,1.5c0.7,0.6,1.4,1.4,2.2,2.2c0.6,0.6,1.4,1.5,1.8,1.8
	c0.1,0,0.1-0.1,0.2-0.1l1.7,2.2C1265,70.6,1264.2,71.2,1263.3,71.2z M1120.2,70.1l-1.8-2.1c1.1-0.9,4.2-4,5-5c0-0.1-0.1-0.1-0.1-0.2
	l0,0c0,0-0.8-1.1-1.8-2.4l2.3-1.7c0.9,1.3,1.8,2.4,1.8,2.4c0.2,0.3,1.1,1.6,0.4,3C1125.4,65.2,1120.8,69.6,1120.2,70.1z
	 M1138.2,54.9c-1.2,0-2.1-1.1-2.3-1.3l0,0c0,0-3.9-5.3-4.2-5.8c-0.1-0.1-0.1-0.1-0.1-0.1c0,0-0.1,0-0.1,0.1l-0.1,0.1
	c0,0-0.3,0.2-0.8,0.5l-1.3,0.9l-1.6-2.3l1.3-0.9c0.4-0.3,0.7-0.5,0.9-0.6l0,0c1.4-1,3.1-0.8,4.1,0.6c0.4,0.5,4.3,5.8,4.3,5.8
	c0,0,0.1,0.1,0.1,0.1c0.7-0.3,2.5-1.4,3.6-2c0.6-0.4,1.2-0.7,1.6-0.9c0.5-0.3,1.1-0.6,1.8-0.9c1.1-0.6,2.7-1.5,3.4-1.9
	c0-0.1,0-0.1,0-0.1l-2.7-6.7c-0.4-1-0.2-1.8,0-2.2c0.3-0.7,0.9-1.3,1.7-1.6c0.5-0.2,2.4-1,5.8-2.4c1.3-0.5,5.7-2.3,5.9-2.4
	c0.7-0.3,1.6-0.3,2.3,0c0.5,0.2,1.2,0.7,1.6,1.6c0.2,0.6,2.7,6.7,2.7,6.7c0,0,0.1,0.1,0.1,0.2c0.7-0.1,3-0.5,6.7-1.3l0.6-0.1
	c0.5-0.1,1.4-0.3,2.4-0.5c1.4-0.3,3.7-0.7,4.5-0.9c0-0.1,0-0.1,0-0.2c0,0,0-6.5,0-7.2c0-1.7,1.2-3,3-3c0.2,0,6.3,0,6.3,0
	c0,0,6.1,0,6.3,0c1.8,0,3,1.2,3,3c0,0.7,0,7.2,0,7.2c0,0,0,0.1,0,0.2c0.5,0.1,2,0.4,5.8,1l0.4,0.1c3.4,0.5,5,0.7,5.6,0.7
	c0-0.1,0.1-0.1,0.1-0.2c0,0,2-6.2,2.2-6.9c0.3-1,0.9-1.5,1.4-1.8c0.7-0.4,1.5-0.4,2.3-0.1l6,1.9c2.3,0.7,5.8,1.8,6,1.9
	c1.7,0.5,2.5,2.1,2,3.7c-0.2,0.6-2.1,6.9-2.1,6.9c0,0,0,0.1,0,0.2c0.5,0.3,1.8,1,5.7,2.9c0.4,0.2,0.9,0.4,1.5,0.7
	c1.1,0.5,3.2,1.6,4,1.9c0.1,0,0.1-0.1,0.1-0.1c0,0,3.8-5.3,4.2-5.8c0.6-0.9,1.4-1.2,1.9-1.2c0.8-0.1,1.6,0.1,2.3,0.6l0.1,0.1
	c0,0,0.4,0.3,1,0.7c0.5,0.4,1.2,0.8,1.8,1.3l-1.6,2.3c-0.6-0.5-1.3-0.9-1.8-1.3c-0.8-0.5-1-0.7-1.1-0.8c-0.1,0-0.1-0.1-0.1-0.1
	c0,0,0,0-0.1,0.1c-0.4,0.5-4.2,5.9-4.2,5.9c-0.2,0.3-1.2,1.6-2.6,1.3c-0.6-0.1-1.8-0.7-5-2.2c-0.6-0.3-1-0.5-1.4-0.7
	c-5.5-2.7-6.3-3.2-6.6-3.5c-1.1-1.1-0.6-2.6-0.5-2.9c0,0,1.9-6.3,2.1-6.9c0-0.1,0-0.1,0-0.2c0,0-0.1,0-0.2-0.1
	c-0.1,0-3.9-1.2-6.1-1.9l-6-1.9c-0.1,0-0.2,0-0.2,0c0,0,0,0,0,0.1c-0.2,0.6-2.2,6.9-2.2,6.9c-0.1,0.3-0.7,1.9-2.1,2.1
	c-0.2,0-0.9,0.2-6.6-0.7l-0.4-0.1c-5.1-0.8-6.3-1.1-6.8-1.3c-1.3-0.7-1.4-2.3-1.4-2.6l0,0c0,0,0-6.5,0-7.2c0-0.1,0-0.1,0-0.1
	c0,0-0.1,0-0.2,0c-0.2,0-6.3,0-6.3,0c0,0-6.1,0-6.3,0c-0.1,0-0.1,0-0.2,0c0,0,0,0.1,0,0.1c0,0.7,0,7.2,0,7.2c0,0.3-0.1,2-1.4,2.6
	c-0.5,0.2-1.8,0.5-5.4,1.2c-0.9,0.2-1.8,0.3-2.3,0.4l-0.6,0.1c-5.8,1.2-7.1,1.4-7.7,1.4c-1.4-0.1-2.1-1.6-2.3-1.9
	c0,0-2.5-6.1-2.7-6.7c0-0.1-0.1-0.1-0.1-0.1c0,0-0.1,0-0.1,0c-0.3,0.1-5.9,2.4-5.9,2.4c-2.1,0.8-5.5,2.2-5.8,2.4
	c-0.1,0-0.2,0.1-0.2,0.1c0,0,0,0,0,0.1l2.7,6.7c0.1,0.3,0.7,1.9-0.3,3c-0.4,0.5-1.4,1-4.3,2.6c-0.6,0.3-1.2,0.7-1.7,0.9
	c-0.4,0.2-1,0.6-1.6,0.9c-3,1.8-4.1,2.3-4.7,2.4C1138.5,54.8,1138.4,54.9,1138.2,54.9z"/>
<path class="st0" d="M1087.3,130.7l-0.1-2.8c1.6-0.1,2.9-0.1,2.9-0.1c0.1,0,0.2,0,0.2,0c0.2-0.8,0.6-3.2,0.8-4.6
	c0.1-0.9,0.3-1.7,0.3-2.2c0.2-0.8,0.5-2.9,0.8-4.7l2.8,0.5c-0.3,1.8-0.7,4-0.8,4.8c-0.1,0.4-0.2,1.2-0.3,2.1c-0.6,3.7-0.8,5-1,5.5
	c-0.7,1.3-2.3,1.4-2.6,1.4C1090.2,130.6,1088.9,130.6,1087.3,130.7z"/>
<path class="st0" d="M1187.2,216c-11.8,0-23-2.5-32.7-7.6l-1.6-0.8l36.3-44.9l37.9,44.4l-1.8,0.8
	C1212.4,213.3,1199.5,216,1187.2,216z M1157.4,206.7c18.4,8.8,41.8,8.6,64.8-0.7l-33-38.7L1157.4,206.7z M1130.7,190.8l-1.2-1.5
	c-3.5-4.1-7.5-10.2-10.4-15.8l2.6-1.4c2.5,4.8,5.8,9.9,8.8,13.8l28.7-42.9l-45.3-14.8c-0.1,1.4-0.2,2.3-0.3,3
	c-0.2,1.8-0.3,2.4,0,5.8l-2.9,0.2c-0.3-3.7-0.2-4.4,0-6.3c0.1-1,0.3-2.4,0.4-4.8l0.1-1.9l52.6,17.1L1130.7,190.8z M1248.1,187.6
	l-33.6-45.7l53.3-20.6l0.2,1.8c2.9,22.7-3.9,45.6-18.8,63.1L1248.1,187.6z M1219.2,143.3l29.1,39.7c13.2-16.1,19.3-36.9,17.2-57.5
	L1219.2,143.3z M1206.6,113.8l-3-57.1l1.8,0.3c22.4,4.2,42.1,17.9,54.1,37.5l1,1.6L1206.6,113.8z M1206.8,60.3l2.6,49.5l46.7-15.3
	C1244.8,77,1227,64.7,1206.8,60.3z M1171.7,113.8l-53.9-17.7l1-1.6c11.9-19.6,31.6-33.3,54.1-37.5l1.8-0.3L1171.7,113.8z
	 M1122.3,94.5l46.7,15.3l2.6-49.5C1151.3,64.7,1133.5,77,1122.3,94.5z"/>
<path class="st0" d="M1078.1,266.4c-0.7-0.6-0.8-1.3-0.9-2.1l-0.1-7.5c1,0.5,3.6,2,5.4-0.5c2.1-2.8-0.4-5.5-1.9-6.8l-4.7-3.9
	l-0.2,0.3c1.1,1.1,1.2,1.5,0.2,2.8l-5.9,7.8c-1,1.4-1.4,1.7-2.8,0.6l-0.3,0.3l4.7,4l0.2-0.3c-1.3-1.2-1.2-1.7-0.3-2.9l2.7-3.6l1,0.8
	l-0.1,8.9l2.8,2.3L1078.1,266.4 M1078.1,249.7c0.4-0.5,0.7-0.5,1.6,0.2c0.7,0.6,2.9,2.5,1.1,4.9c-2,2.6-4.5,0.5-6-0.7L1078.1,249.7z
	"/>
<path class="st0" d="M1088.4,272.4l-9.6-7.1l0.2-0.4c1.2,0.8,1.7,0.9,2.7-0.5l5.6-8.3c1-1.5,0.7-1.9-0.4-2.9l0.2-0.4l9.5,7l-1.8,2.7
	l-0.4-0.3c0.9-1.9,0.6-2.5-1.4-4l-2.4-1.8c-0.4-0.3-0.6-0.4-1,0.2l-2.8,4.2l2.8,2c1.6,1.2,2.1,0.9,3.2-0.3l0.4,0.3l-2.9,4.4
	l-0.4-0.3c0.8-1.7,0.7-2.1-0.8-3.2l-2.7-2.1l-3.1,4.7c-0.5,0.8-0.5,0.8,2.1,2.8c2.2,1.6,3.5,1.8,5.6,0.4l0.5,0.4L1088.4,272.4"/>
<path class="st0" d="M1097.3,260.1c1.2,1.1,1.3,1.5,0.4,2.8l-5.4,8.2c-0.9,1.4-1.2,1.8-2.8,0.8l-0.2,0.4l5,3.6l0.2-0.4
	c-1.4-1-1.5-1.5-0.6-2.9l2.3-3.5c0.4,0.3,0.7,0.6,1.2,0.9c1.9,1.4,3.3,1.9,4.6,1.6c0.5-0.1,1.8-0.3,2.8-1.8c1.6-2.4,0-5-2.4-6.8
	l-4.8-3.4L1097.3,260.1 M1100,263.5c0.4-0.6,0.6-0.5,1.2-0.1c0.8,0.6,3.4,2.5,1.6,5.2c-1.9,2.9-4.3,1.1-5,0.6
	c-0.4-0.3-0.7-0.5-1.1-0.9L1100,263.5z"/>
<path class="st0" d="M1118.8,273.3c-0.9-0.5-1.4-0.3-2.7,0.9l-10.2,8.9l-0.3-0.2l1.1-13.8c0.2-2.3,0-2.7-0.9-3.3l0.2-0.4l5.1,2.9
	l-0.2,0.4c-1.1-0.6-1.5-0.8-1.8-0.1c-0.2,0.3-0.2,1.3-0.3,2.6l-0.7,8.5l6.7-5.8c0.1-0.1,0.9-0.8,1.1-1.2c0.4-0.8-0.2-1.3-0.9-1.7
	l0.2-0.4l3.9,2.3L1118.8,273.3"/>
<path class="st0" d="M1122.6,272.6c0-0.3,0.1-0.7,0.5-0.6c0.2,0,0.6,0,1,0c1.6,0.1,3.8,0.6,3.7,3.3c-0.1,2.7-2.7,2.7-3.3,2.6l-2.1,0
	L1122.6,272.6 M1118.3,271.3c1.8,0.2,2.1,0.5,2,2.2l-0.4,10.2c-0.1,1.6-0.3,2-2.2,2l0,0.5l7.3,0.3c4.9,0.2,5.4-3,5.5-3.9
	c0.1-2.4-1.6-3.6-3.5-4v0c1-0.2,2.9-0.6,3-3.2c0.1-3.6-3.7-4-5.6-4.1l-6.1-0.3L1118.3,271.3z M1122.4,278.8c2.1,0.1,2.8,0.2,3.5,0.5
	c1.1,0.4,2.2,1.2,2.1,3.1c-0.1,3.1-2.8,3.2-4.2,3.1c-1.3-0.1-1.7-0.2-1.6-1L1122.4,278.8z"/>
<path class="st0" d="M1134.8,271.6c0-0.4,0-0.7,0.5-0.7c0.2,0,0.5,0,1,0c1.6,0,3.8,0.4,3.9,3.1c0.1,2.7-2.5,2.9-3.1,2.9l-2.1,0.1
	L1134.8,271.6 M1130.4,270.6c1.8,0,2.1,0.3,2.2,2l0.3,10.2c0.1,1.6-0.2,2-2.1,2.1l0,0.4l7.3-0.2c4.8-0.1,5.2-3.3,5.2-4.2
	c-0.1-2.4-1.8-3.5-3.8-3.9v0c1-0.3,2.9-0.8,2.8-3.4c-0.1-3.6-3.9-3.8-5.8-3.7l-6.1,0.2V270.6z M1134.9,277.8c2.1-0.1,2.8,0,3.6,0.2
	c1.1,0.3,2.2,1.1,2.3,3c0.1,3.1-2.6,3.4-4,3.4c-1.3,0-1.7,0-1.7-0.9L1134.9,277.8z"/>
<path class="st0" d="M1147.9,268.4c-1.3,0.2-1.8,0.5-1.5,2.2l1.7,10.7c0.2,0.9,0.5,0.9,2.2,0.7c3-0.3,4.3-0.6,4.9-3.7l0.5,0l-0.3,4
	l-10.8,1.2l-0.1-0.4c1.3-0.2,1.7-0.5,1.4-2.2l-1.6-10c-0.3-1.8-0.8-1.9-2.1-1.8l-0.1-0.4l5.6-0.6L1147.9,268.4"/>
<path class="st0" d="M1156.5,280.5c1.9-0.3,2.1-0.7,1.8-2.3l-1.7-9.9c-0.3-1.6-0.6-1.9-2.5-1.7l-0.1-0.4l6.6-0.8l0.1,0.4
	c-1.6,0.3-2.1,0.5-1.8,2.3l1.7,9.9c0.3,1.7,0.9,1.9,2.5,1.7l0.1,0.4l-6.6,0.8L1156.5,280.5"/>
<path class="st0" d="M1174.4,266.4c-1-2.2-3-3.8-5.7-3.3c-1.1,0.2-2.3,0.8-3,1.9c-0.7,1-1.4,2.5-0.7,5.7c1,4.7,4,6.2,6.8,5.8
	c2.7-0.5,4-2.3,4.5-3l0.5,0.4c0,0-1.3,3.1-5.4,3.7c-3.5,0.6-7.8-1-8.9-6.5c-1-5,2.1-8.2,5.9-8.8c2-0.3,3.6,0.2,4,0.1
	c0.1,0,0.9-0.1,0.9-0.9l0.5-0.1l1.2,4.9L1174.4,266.4"/>
<path class="st0" d="M1192.4,273.3c-1,0-1.3-0.1-2.3-1.7l-7.9-11.8l-0.4,0.1l-2.6,11.5c-0.2,1-0.6,2.8-1,3.4c-0.3,0.5-0.7,0.6-1,0.7
	l0.1,0.4l4.4-0.6l-0.1-0.4c-0.5,0.1-1.5,0.2-1.7-0.7c-0.1-0.2,0-0.6,0-0.9l0.5-2.7l5.8-0.8l1.3,2c0.2,0.3,0.6,1,0.7,1.3
	c0.2,0.8-0.6,1-1.4,1.1l0.1,0.4l5.6-0.8L1192.4,273.3 M1180.6,269.5l1.4-6.4l3.7,5.8L1180.6,269.5z"/>
<path class="st0" d="M1215.5,275c1.8,0.5,2.2,0.3,2.6-1.3l2.7-9.6c0.5-1.6,0.2-2-1.5-2.6l0.1-0.4l6.3,2.1l-0.1,0.4
	c-1.6-0.5-2.1-0.5-2.6,1.3l-2.7,9.6c-0.5,1.7,0,2.1,1.5,2.6l-0.1,0.4l-6.3-2.1L1215.5,275"/>
<path class="st0" d="M1233,279.5l-6.4-1.3l0.1-0.4c2,0.3,2.2-0.2,2.4-1.8l1.7-11.2l-1.2-0.2c-2.4-0.5-3.1-0.2-3.9,2.2l-0.5-0.1
	l0.7-3.8l12.3,2.5l-0.4,3.8l-0.5-0.1c-0.1-2.5-0.6-3.1-3.1-3.5l-1.2-0.2l-1.7,11.4c-0.2,1.5,0,2,1.8,2.4L1233,279.5"/>
<path class="st0" d="M1249.7,283.3c-1-0.2-1.2-0.5-1.7-2.3l-3.8-13.7l-0.4-0.1l-6,10.1c-0.6,0.9-1.4,2.4-2,2.9
	c-0.4,0.3-0.8,0.3-1.2,0.3l-0.1,0.4l4.3,0.8l0.1-0.4c-0.4-0.1-1.5-0.3-1.4-1.2c0-0.2,0.2-0.5,0.3-0.8l1.4-2.4l5.8,1l0.6,2.3
	c0.1,0.3,0.3,1.1,0.2,1.5c-0.1,0.8-0.8,0.7-1.7,0.6l-0.1,0.4l5.6,1L1249.7,283.3 M1239.6,276l3.3-5.7l1.7,6.6L1239.6,276z"/>
<path class="st0" d="M1257.5,269.4c-1.4,0-1.9,0.1-2,1.9l-0.4,10.7c0,0.9,0.3,1,2.1,1.1c3.1,0.3,4.5,0.3,5.8-2.6l0.5,0l-1.1,3.8
	l-11.2-0.9l0-0.4c1.3,0,1.8-0.2,1.9-1.9l0.3-10c0.1-1.8-0.4-2-1.7-2.2l0-0.4l5.8,0.5L1257.5,269.4"/>
<path class="st0" d="M1265.1,283.2c1.9,0.1,2.2-0.3,2.2-1.9l0.1-10c0-1.7-0.3-2-2.2-2.2l0-0.4l6.6,0.4v0.4c-1.6,0-2.2,0.1-2.2,1.9
	l-0.1,10c0,1.8,0.5,2,2.2,2.2v0.4l-6.6-0.4L1265.1,283.2"/>
<path class="st0" d="M1290.2,273.8c-0.9,0.5-1.3,0.5-2.9-0.5l-12.5-7.3l-0.4,0.2l2.7,11.7c0.2,1,0.7,2.8,0.5,3.5
	c-0.1,0.6-0.4,0.8-0.7,1l0.2,0.4l3.8-2.5l-0.3-0.3c-0.4,0.3-1.3,0.9-1.9,0.1c-0.1-0.2-0.3-0.5-0.4-0.8l-0.7-2.7l5-3.3l2.1,1.2
	c0.3,0.2,1,0.6,1.2,0.9c0.5,0.7-0.1,1.1-0.8,1.6l0.2,0.4l4.9-3.2L1290.2,273.8 M1277.6,275.6l-1.5-6.5l5.9,3.6L1277.6,275.6z"/>
<path class="st0" d="M1295.1,253c-1,1-1.5,1.5,0.2,3.5l7.7,9l-0.3,0.2l-15.8-3.4l-0.1,0l5.7,6.7c1.5,1.8,2.2,1.9,3.6,0.9l0.3,0.4
	l-4.2,3.2l-0.3-0.3c1.3-1.1,1.4-1.7-0.2-3.5l-6.4-7.6c-1.4-0.3-1.8-0.2-2.5,0.4l-0.3-0.3l3-2.3l13.8,3l0,0l-4.9-5.8
	c-1.7-2-2.3-1.7-3.6-0.9l-0.3-0.3l4.2-3.2L1295.1,253"/>
<path class="st0" d="M1316.4,254.9c-0.8,0.6-1.2,0.6-2.9-0.3l-12.7-6.4l-0.4,0.3l3.5,11.3c0.3,1,0.8,2.7,0.8,3.5
	c0,0.6-0.3,0.8-0.6,1.1l0.3,0.3l3.5-2.7l-0.3-0.3c-0.4,0.3-1.2,0.9-1.8,0.2c-0.2-0.2-0.3-0.5-0.4-0.8l-0.9-2.6l4.6-3.6l2.1,1.1
	c0.3,0.2,1,0.5,1.3,0.8c0.5,0.6,0,1.1-0.7,1.6l0.3,0.3l4.5-3.4L1316.4,254.9 M1304.2,257.4l-2-6.3l6.1,3.1L1304.2,257.4z"/>
<path class="st0" d="M228.6,80c5.9,2.5,11.3,5.1,16.2,7.7L207.3,0.8H94.1C81,0.8,71.7,3.3,66.4,8.1c-5.4,4.9-8,11.2-8,19
	c0,7.8,2.7,14.2,8,19c5.3,4.9,14.6,7.3,27.8,7.3h34.5l-13.2,30.2c18.2-9.3,38-13.9,59.5-13.9C194.4,69.7,212.3,73.1,228.6,80"/>
<path class="st0" d="M346.5,265.4c-3.6-3.2-11.8-4.8-24.8-4.8l-13.1-30.5H252l10.3,24.4c0.1,0,0.3-0.1,0.4-0.1
	c12.2-3.1,20.6-4.7,25.3-4.7c6.4,0,11.8,2.3,16.1,6.8c4.4,4.5,6.5,10.2,6.5,17.1c0,6.2-2.3,11.6-7,15.9
	c-6.2,5.8-21.4,11.3-45.6,16.5c-8.5,1.8-16.9,3.4-25.2,4.5c5.1,1.8,11.5,2.7,19.4,2.7h69.5c13,0,22.1-2.4,27.5-7.3
	c5.4-4.9,8-11.2,8-19C357.2,279.1,353.7,271.9,346.5,265.4"/>
<path class="st0" d="M46.5,235.6l-11,25.1c-13,0-22.1,2.5-27.5,7.3c-5.4,4.9-8,11.2-8,19s2.7,14.2,8.1,19c5.4,4.9,14.5,7.3,27.5,7.3
	H105c9.7,0,17.3-1.3,22.7-4c-20.2-5.1-37.5-14.4-51.8-27.8C61.7,268,51.9,252.7,46.5,235.6"/>
<path class="st0" d="M300.5,225l-0.2-26.3c0-15.6-2.5-29.2-7.5-41.1c-7.3-16.9-16.6-31.2-27.8-42.7c-5-5-11.8-9.9-20.2-14.4
	L298.4,225H300.5"/>
<path class="st0" d="M88.9,114.1c-24.9,21.1-37.3,48.5-37.3,82.2c0,12.1,1.7,23.5,5.1,34.1l58.7-134.1
	C106.2,101.1,97.3,107,88.9,114.1"/>
<path class="st0" d="M202.9,134L178.6,83L155,132.6c6.6-1.4,13.5-2.2,21-2.2C185.8,130.5,194.7,131.7,202.9,134"/>
<path class="st0" d="M293.9,251.4c-4.4-4.5-9.7-6.8-16.1-6.8c-4.7,0-13.1,1.6-25.3,4.7c-0.1,0.1-0.3,0.1-0.4,0.1
	c-29.3,7.6-52.8,11.4-70.5,11.4c-21.7,0-38.9-3.8-51.6-11.5c-7.9-4.8-14.4-8.2-19.3-13.1l-8.2,19.3h12.7c13.1,0,22.3,2.5,27.7,7.3
	c5.4,4.9,8,11.2,8,19c0,7.8-2.7,14.2-8,19c-1.4,1.2-3.1,2.3-4.9,3.3c12.3,3.1,25.7,4.7,40.2,4.7c14.4,0,29.2-1.1,44.4-3.3
	c8.3-1.2,16.7-2.7,25.2-4.5c24.2-5.2,39.4-10.7,45.6-16.5c4.7-4.4,7-9.7,7-15.9C300.5,261.6,298.3,255.9,293.9,251.4"/>
<path class="st0" d="M293.9,251.4c-4.4-4.5-9.7-6.8-16.1-6.8c-4.7,0-13.1,1.6-25.3,4.7c-0.1,0.1-0.3,0.1-0.4,0.1
	c-29.3,7.6-52.8,11.4-70.5,11.4c-21.7,0-38.9-3.8-51.6-11.5c-7.9-4.8-14.4-8.2-19.3-13.1l-8.2,19.3h12.7c13.1,0,22.3,2.5,27.7,7.3
	c5.4,4.9,8,11.2,8,19c0,7.8-2.7,14.2-8,19c-1.4,1.2-3.1,2.3-4.9,3.3c12.3,3.1,25.7,4.7,40.2,4.7c14.4,0,29.2-1.1,44.4-3.3
	c8.3-1.2,16.7-2.7,25.2-4.5c24.2-5.2,39.4-10.7,45.6-16.5c4.7-4.4,7-9.7,7-15.9C300.5,261.6,298.3,255.9,293.9,251.4"/>
<g>
	<g>
		
			<linearGradient id="SVGID_00000022520331718164901420000012897999790705173427_" gradientUnits="userSpaceOnUse" x1="76.2506" y1="120.5998" x2="284.6334" y2="120.5998" gradientTransform="matrix(1 0 0 -1 0 313.8898)">
			<stop  offset="0" style="stop-color:#FFFFFF;stop-opacity:0"/>
			<stop  offset="1" style="stop-color:#FFFFFF;stop-opacity:0.85"/>
		</linearGradient>
		<path id="SVGID_1_" style="fill:url(#SVGID_00000022520331718164901420000012897999790705173427_);" d="M104.7,170.9
			c7.5-13.6,17.2-23.7,29.1-30.4c6.4-3.6,13.5-6.2,21.3-7.9L178.6,83l24.2,51.1c5.6,1.6,10.9,3.8,15.7,6.5
			c11.9,6.7,21.5,16.8,28.9,30.4L104.7,170.9 M244.7,100.4c-4.8-2.7-10.2-5.2-16.2-7.7c-16.3-6.8-34.2-10.3-53.7-10.3
			c-21.5,0-41.3,4.7-59.5,13.9L56.7,230.4c5.4,17.2,15.2,32.5,29.4,45.8c14.3,13.5,31.6,22.8,51.8,27.9c1.9-0.9,3.6-2,4.9-3.3
			c5.4-4.8,8-11.2,8-19s-2.7-14.2-8-19c-5.4-4.9-14.6-7.3-27.7-7.3h-12.7l12.9-30.5l0,0h126.4l0,0h56.5L244.7,100.4z"/>
	</g>
</g>
<path class="st0" d="M368.3,118.6c0-5.8-2.1-10.9-6.5-15.2c-4.3-4.3-9.5-6.4-15.5-6.4c-6,0-11.2,2.2-15.5,6.4
	c-4.3,4.3-6.5,9.4-6.5,15.2c0,5.9,2.1,11,6.5,15.2c4.3,4.3,9.5,6.4,15.5,6.4c6,0,11.2-2.1,15.5-6.4
	C366.2,129.5,368.3,124.5,368.3,118.6 M368.3,88v-4.8h18.6c4,0,6.9,0.7,8.5,2.2c1.6,1.5,2.4,3.4,2.4,5.8c0,2.4-0.8,4.3-2.4,5.8
	c-1.6,1.4-4.5,2.2-8.5,2.2h-2.7V157c0,5.6-1.2,10.4-3.5,14.6c-2.3,4.2-6,7.7-10.8,10.7s-10.3,4.5-16.5,4.5h-18
	c-3.8,0-6.5-0.7-8.2-2.2c-1.6-1.5-2.5-3.4-2.5-5.7c0-2.4,0.8-4.3,2.5-5.8c1.6-1.5,4.4-2.2,8.2-2.2H353c4.9,0,8.6-1.3,11.3-3.9
	c2.7-2.6,4-5.9,4-10v-7.7c-3.5,2.2-7.1,3.9-10.7,5.1c-3.6,1.1-7.4,1.7-11.2,1.7c-10.8,0-19.8-3.6-27.1-10.8
	c-7.3-7.2-10.9-16.1-10.9-26.7c0-10.6,3.6-19.6,10.9-26.8c7.3-7.2,16.3-10.8,27.1-10.8c4,0,7.8,0.6,11.5,1.7
	C361.6,83.9,365,85.7,368.3,88z"/>
<path class="st0" d="M468.4,110.5c-2.5-4.5-5.6-7.8-9.5-10.1c-4-2.2-8.6-3.3-14.1-3.3c-5.4,0-10,1.1-14,3.3
	c-3.9,2.2-7.2,5.6-9.6,10.1H468.4 M485.9,126.4h-65.2c1.6,4.1,4.6,7.5,8.8,10c4.2,2.5,9.9,3.8,17.1,3.8c5.9,0,13.7-1.3,23.5-3.8
	c4-1,6.8-1.6,8.4-1.6c2.1,0,3.9,0.8,5.3,2.2c1.4,1.5,2.2,3.4,2.2,5.7c0,2.1-0.8,3.8-2.3,5.3c-2.1,1.9-7.1,3.7-15.1,5.5
	c-8,1.7-15.7,2.6-23,2.6c-12.7,0-22.8-3.6-30.5-10.8c-7.6-7.2-11.4-16-11.4-26.4c0-11.1,4.1-20.2,12.3-27.2
	c8.2-7,17.7-10.5,28.4-10.5c6.5,0,12.4,1.1,17.7,3.4c5.4,2.3,9.4,4.7,12,7.3c3.7,3.8,6.8,8.5,9.2,14.1c1.6,3.9,2.5,8.4,2.5,13.6
	L485.9,126.4z"/>
<path class="st0" d="M525.1,83.3v5.2c2.9-2.4,6-4.2,9.5-5.4c3.5-1.2,7.2-1.8,11.3-1.8c9.3,0,16.7,2.9,22.2,8.7
	c4.3,4.7,6.5,10.7,6.5,18.3v29.5c4,0,6.9,0.7,8.5,2.2c1.6,1.5,2.4,3.4,2.4,5.8c0,2.4-0.8,4.3-2.4,5.8c-1.6,1.4-4.5,2.2-8.5,2.2
	h-15.9c-3.9,0-6.7-0.7-8.3-2.2c-1.6-1.5-2.4-3.4-2.4-5.8c0-2.4,0.8-4.3,2.4-5.8c1.6-1.4,4.4-2.2,8.3-2.2v-29.9c0-3.5-0.9-6-2.8-7.6
	c-2.4-2.1-6-3.1-10.8-3.1c-3.7,0-6.8,0.7-9.6,2.1c-2.7,1.4-6.2,4.4-10.4,8.8v29.7c4,0,6.6,0.5,7.6,1.5c2.2,1.9,3.3,4.1,3.3,6.5
	c0,2.4-0.8,4.3-2.4,5.8c-1.6,1.4-4.5,2.2-8.5,2.2h-15.9c-3.9,0-6.7-0.7-8.3-2.2c-1.6-1.5-2.4-3.4-2.4-5.8c0-2.4,1.1-4.5,3.2-6.5
	c1.1-0.9,3.6-1.4,7.5-1.4V99.2c-3.9,0-6.7-0.7-8.3-2.2c-1.6-1.5-2.4-3.4-2.4-5.8c0-2.4,0.8-4.3,2.4-5.8c1.6-1.4,4.4-2.2,8.3-2.2
	L525.1,83.3"/>
<path class="st0" d="M627.5,137.7h27.8c0-4,0.7-6.9,2.2-8.5c1.4-1.6,3.4-2.4,5.7-2.4c2.4,0,4.3,0.8,5.8,2.4c1.5,1.6,2.2,4.5,2.2,8.5
	v15.9h-68.9v-13.2L644,99.2h-24.3v1.7c0,3.9-0.7,6.7-2.2,8.3c-1.5,1.6-3.4,2.4-5.8,2.4c-2.4,0-4.3-0.8-5.7-2.4
	c-1.5-1.6-2.2-4.4-2.2-8.3l0.1-17.5h65.5v13L627.5,137.7"/>
<path class="st0" d="M717.9,53.4h19v16.7h-19V53.4z M739.1,83.3v54.5h19c4,0,6.9,0.7,8.5,2.2c1.6,1.5,2.4,3.4,2.4,5.8
	c0,2.4-0.8,4.3-2.4,5.8c-1.6,1.4-4.5,2.2-8.5,2.2h-53.8c-3.9,0-6.7-0.7-8.3-2.2c-1.6-1.5-2.5-3.4-2.5-5.8c0-2.4,0.8-4.3,2.5-5.8
	c1.6-1.4,4.4-2.2,8.3-2.2h19V99.2h-12.8c-3.9,0-6.7-0.7-8.3-2.2c-1.6-1.5-2.4-3.4-2.4-5.8c0-2.4,0.8-4.3,2.4-5.8
	c1.6-1.4,4.4-2.2,8.3-2.2L739.1,83.3L739.1,83.3z"/>
<path class="st0" d="M840.6,125.1c-6.4-1.2-12.2-1.9-17.6-1.9c-6.5,0-12,1.6-16.7,4.7c-2.9,2-4.3,4-4.3,6.1c0,1.5,0.7,2.7,2.1,3.6
	c2.6,1.7,6.1,2.5,10.6,2.5c3.8,0,8.2-0.7,13-2.2c4.8-1.5,9.1-3.5,12.9-6.1L840.6,125.1 M840.6,153.6v-3.7c-4,2.1-8.4,3.6-13.2,4.6
	c-4.8,1-9.2,1.6-13.1,1.6c-8.5,0-15.5-2.3-20.8-6.7c-5.3-4.5-8-9.5-8-14.9c0-6.6,3.4-12.8,10.2-18.5c6.8-5.7,16.2-8.5,28.2-8.5
	c4.8,0,10.4,0.5,16.7,1.6v-3.8c0-2.4-1-4.3-3.1-5.8c-2-1.5-5.9-2.3-11.7-2.3c-4.7,0-10.8,0.9-18.3,2.7c-2.8,0.7-5,1-6.5,1
	c-2.1,0-3.9-0.8-5.3-2.3c-1.5-1.5-2.2-3.5-2.2-5.8c0-1.3,0.3-2.5,0.8-3.5c0.5-1,1.2-1.8,2.2-2.3c0.9-0.6,2.8-1.3,5.8-2.1
	c3.9-1.1,7.9-1.9,12-2.6c4.1-0.6,7.8-0.9,11.1-0.9c9.9,0,17.5,2.1,23,6.4c5.4,4.3,8.2,10.1,8.2,17.5v32.7h2.7c4,0,6.9,0.7,8.5,2.2
	c1.6,1.5,2.4,3.4,2.4,5.8c0,2.4-0.8,4.3-2.4,5.8c-1.6,1.4-4.5,2.2-8.5,2.2L840.6,153.6L840.6,153.6z"/>
<path class="st0" d="M410,227.5v6.3c3.4-2.9,7.1-5.1,11.2-6.6c4.1-1.5,8.5-2.2,13.3-2.2c11,0,19.7,3.6,26.1,10.6
	c5.1,5.7,7.6,13.1,7.6,22.3v36c4.8,0,8.1,0.9,10,2.7c1.9,1.8,2.9,4.1,2.9,7c0,2.9-1,5.2-2.9,7c-1.9,1.8-5.2,2.7-10,2.7h-18.7
	c-4.6,0-7.8-0.9-9.8-2.7c-1.9-1.8-2.9-4.1-2.9-7c0-2.9,1-5.2,2.9-7c1.9-1.8,5.2-2.7,9.8-2.7v-36.5c0-4.2-1.1-7.3-3.2-9.2
	c-2.8-2.5-7.1-3.8-12.8-3.8c-4.3,0-8,0.8-11.3,2.5c-3.2,1.7-7.3,5.3-12.3,10.8v36.2c4.8,0,7.8,0.6,9,1.8c2.6,2.3,3.9,5,3.9,7.9
	c0,2.9-1,5.2-2.9,7c-1.9,1.8-5.2,2.7-10,2.7h-18.7c-4.6,0-7.8-0.9-9.8-2.7c-1.9-1.8-2.9-4.1-2.9-7c0-2.9,1.3-5.5,3.8-8
	c1.3-1.1,4.2-1.7,8.8-1.7v-47c-4.6,0-7.8-0.9-9.8-2.7c-1.9-1.8-2.9-4.1-2.9-7s1-5.2,2.9-7c1.9-1.8,5.2-2.7,9.8-2.7H410"/>
<path class="st0" d="M530.7,246.1v37.4c0,4,0.8,6.6,2.4,7.9c2.6,2,7.1,3,13.7,3c9.5,0,18.3-2,26.4-6.1c3.1-1.6,5.5-2.4,7.3-2.4
	c2.4,0,4.5,0.9,6.3,2.7c1.8,1.8,2.7,4.1,2.7,6.7c0,2.4-1,4.5-2.9,6.3c-3,2.9-8.8,5.5-17.6,7.9c-8.8,2.4-16.2,3.6-22.2,3.6
	c-11.6,0-20.3-2.5-26.1-7.5c-5.8-5-8.7-11.2-8.7-18.5v-41.1h-6.7c-4.5,0-7.7-0.9-9.6-2.6c-1.9-1.7-2.9-4-2.9-6.8c0-2.7,1-5,2.9-6.7
	c1.9-1.7,5.1-2.6,9.6-2.6h6.7v-16.9c0-4.5,0.9-7.7,2.6-9.6c1.7-1.9,4-2.9,6.8-2.9c2.7,0,5,1,6.7,2.9c1.7,1.9,2.6,5.1,2.6,9.6v16.9
	h34.4c4.5,0,7.7,0.9,9.6,2.6c1.9,1.7,2.8,4,2.8,6.8c0,2.8-1,5-2.8,6.7c-1.9,1.7-5.1,2.6-9.6,2.6L530.7,246.1"/>
<path class="st0" d="M648.9,227.5v12.1c7.8-5.9,14-9.8,18.5-11.7c4.5-1.9,8.7-2.9,12.7-2.9c6,0,12,2.3,17.6,6.9
	c3.9,3.1,5.8,6.3,5.8,9.6c0,2.8-0.9,5.1-2.8,7c-1.9,1.9-4.1,2.9-6.7,2.9c-2.3,0-4.7-1.2-7.3-3.5c-2.5-2.4-4.8-3.5-6.8-3.5
	c-2.6,0-6.5,1.7-11.7,5.1c-5.2,3.4-11.7,8.5-19.4,15.3v29.1h26.7c4.8,0,8.1,0.9,10,2.7c1.9,1.8,2.9,4.1,2.9,7c0,2.9-1,5.2-2.9,7
	c-1.9,1.8-5.2,2.7-10,2.7H619c-4.6,0-7.8-0.9-9.8-2.7c-1.9-1.8-2.9-4.1-2.9-7c0-2.9,1-5.2,2.9-7c1.9-1.8,5.2-2.7,9.8-2.7h11.2v-47
	h-6.8c-4.6,0-7.8-0.9-9.8-2.7c-1.9-1.8-2.9-4.1-2.9-7s1-5.2,2.9-7c1.9-1.8,5.2-2.7,9.8-2.7L648.9,227.5"/>
<path class="st0" d="M781.4,276.7c-7.5-1.5-14.4-2.2-20.7-2.2c-7.6,0-14.1,1.8-19.6,5.5c-3.4,2.3-5.1,4.7-5.1,7.1
	c0,1.8,0.8,3.2,2.5,4.3c3,2,7.2,3,12.5,3c4.5,0,9.6-0.9,15.3-2.6c5.7-1.8,10.8-4.2,15.2-7.2V276.7 M781.4,310.2v-4.4
	c-4.7,2.4-9.9,4.2-15.5,5.5c-5.7,1.2-10.8,1.8-15.5,1.8c-10,0-18.2-2.6-24.5-8c-6.3-5.3-9.4-11.1-9.4-17.6c0-7.8,4-15.1,12-21.7
	c8-6.7,19.1-10.1,33.2-10.1c5.7,0,12.2,0.6,19.6,1.8v-4.5c0-2.8-1.2-5.1-3.6-6.9c-2.4-1.8-7-2.6-13.7-2.6c-5.5,0-12.7,1.1-21.5,3.2
	c-3.3,0.8-5.8,1.2-7.6,1.2c-2.5,0-4.6-0.9-6.3-2.7c-1.7-1.8-2.6-4.1-2.6-6.9c0-1.6,0.3-2.9,0.9-4.1c0.6-1.1,1.5-2.1,2.5-2.8
	c1.1-0.7,3.4-1.5,6.8-2.5c4.6-1.3,9.3-2.3,14.1-3.1c4.8-0.7,9.2-1.1,13-1.1c11.6,0,20.6,2.5,27,7.5c6.4,5,9.6,11.9,9.6,20.6v38.5
	h3.2c4.8,0,8.1,0.9,10,2.6c1.9,1.7,2.9,4,2.9,6.8c0,2.8-1,5-2.9,6.8c-1.9,1.7-5.2,2.6-10,2.6L781.4,310.2L781.4,310.2z"/>
<path class="st0" d="M866.5,246.1v37.4c0,4,0.8,6.6,2.4,7.9c2.6,2,7.1,3,13.7,3c9.5,0,18.3-2,26.4-6.1c3.1-1.6,5.5-2.4,7.3-2.4
	c2.4,0,4.5,0.9,6.3,2.7c1.8,1.8,2.7,4.1,2.7,6.7c0,2.4-1,4.5-2.9,6.3c-3,2.9-8.8,5.5-17.6,7.9c-8.8,2.4-16.2,3.6-22.2,3.6
	c-11.6,0-20.3-2.5-26.1-7.5c-5.8-5-8.7-11.2-8.7-18.5v-41.1H841c-4.5,0-7.7-0.9-9.6-2.6c-1.9-1.7-2.8-4-2.8-6.8c0-2.7,0.9-5,2.8-6.7
	c1.9-1.7,5.1-2.6,9.6-2.6h6.8v-16.9c0-4.5,0.9-7.7,2.6-9.6c1.7-1.9,4-2.9,6.8-2.9c2.8,0,5,1,6.7,2.9c1.7,1.9,2.6,5.1,2.6,9.6v16.9
	h34.4c4.5,0,7.7,0.9,9.6,2.6c1.9,1.7,2.9,4,2.9,6.8c0,2.8-1,5-2.9,6.7c-1.9,1.7-5.1,2.6-9.6,2.6L866.5,246.1"/>
<path class="st0" d="M1014.8,259.5c-2.9-5.3-6.6-9.2-11.3-11.9c-4.6-2.6-10.2-3.9-16.5-3.9c-6.3,0-11.8,1.3-16.5,3.9
	c-4.7,2.6-8.5,6.6-11.4,11.9H1014.8 M1035.4,278.1h-76.7c1.9,4.9,5.4,8.8,10.3,11.8c4.9,3,11.7,4.5,20.1,4.5
	c6.9,0,16.1-1.5,27.6-4.5c4.7-1.2,8-1.8,9.8-1.8c2.5,0,4.6,0.9,6.3,2.6c1.7,1.7,2.6,4,2.6,6.7c0,2.4-0.9,4.5-2.7,6.2
	c-2.4,2.3-8.3,4.4-17.8,6.4c-9.4,2-18.5,3.1-27.1,3.1c-15,0-26.9-4.2-35.8-12.7c-9-8.4-13.4-18.8-13.4-31.1c0-13.1,4.8-23.8,14.5-32
	c9.7-8.2,20.8-12.3,33.5-12.3c7.6,0,14.6,1.3,20.9,4c6.3,2.7,11,5.6,14.2,8.6c4.4,4.5,8,10.1,10.9,16.6c1.9,4.6,2.9,10,2.9,16
	L1035.4,278.1z"/>
</svg>
