<?xml version="1.0" encoding="utf-8"?>
<!-- Generator: Adobe Illustrator 26.0.3, SVG Export Plug-In . SVG Version: 6.00 Build 0)  -->
<svg version="1.1" id="Livello_1" xmlns="http://www.w3.org/2000/svg" xmlns:xlink="http://www.w3.org/1999/xlink" x="0px" y="0px"
	 viewBox="0 0 1329.3 313.26" style="enable-background:new 0 0 1329.3 313.26;" xml:space="preserve">
<style type="text/css">
	.st0{fill:#EB641F;}
	.st1{fill:#15427C;}
	.st2{fill:#00457C;}
</style>
<path class="st0" d="M228.55,79.96c5.95,2.5,11.33,5.07,16.17,7.73L207.3,0.81H94.13c-13.15,0-22.41,2.45-27.76,7.3
	c-5.36,4.86-8.04,11.21-8.04,19.03c0,7.84,2.68,14.18,8.04,19.04c5.35,4.87,14.61,7.3,27.76,7.3h34.5l-13.21,30.16
	c18.17-9.27,37.98-13.95,59.47-13.95C194.38,69.68,212.27,73.11,228.55,79.96"/>
<path class="st0" d="M346.51,265.37c-3.56-3.19-11.84-4.77-24.8-4.77l-13.13-30.48h-56.55l10.3,24.35c0.15-0.04,0.27-0.07,0.42-0.11
	c12.16-3.12,20.58-4.7,25.26-4.7c6.39,0,11.77,2.27,16.13,6.8c4.36,4.53,6.55,10.23,6.55,17.11c0,6.25-2.34,11.56-7.02,15.94
	c-6.23,5.78-21.42,11.29-45.59,16.52c-8.53,1.84-16.95,3.35-25.24,4.55c5.07,1.76,11.51,2.66,19.38,2.66h69.52
	c12.97,0,22.13-2.42,27.5-7.29c5.36-4.85,8.04-11.21,8.04-19.04C357.24,279.1,353.67,271.92,346.51,265.37"/>
<path class="st0" d="M46.51,235.55L35.55,260.6c-12.98,0-22.13,2.45-27.5,7.29C2.68,272.76,0,279.1,0,286.93s2.68,14.19,8.05,19.04
	c5.37,4.87,14.52,7.29,27.5,7.29H105c9.7,0,17.27-1.34,22.73-4.02c-20.23-5.1-37.49-14.38-51.8-27.84
	C61.74,268.02,51.94,252.73,46.51,235.55"/>
<path class="st1" d="M300.46,225l-0.23-26.3c0-15.55-2.49-29.25-7.49-41.09c-7.32-16.95-16.6-31.2-27.82-42.71
	c-5.05-5.03-11.79-9.86-20.2-14.45L298.37,225H300.46"/>
<path class="st1" d="M88.95,114.13c-24.86,21.13-37.3,48.52-37.3,82.19c0,12.11,1.7,23.48,5.07,34.12l58.7-134.05
	C106.17,101.11,97.34,107,88.95,114.13"/>
<path class="st1" d="M202.85,134.03l-24.23-51.06l-23.58,49.66c6.55-1.43,13.54-2.17,21.02-2.17
	C185.79,130.46,194.71,131.67,202.85,134.03"/>
<path class="st1" d="M293.91,251.38c-4.36-4.54-9.74-6.82-16.13-6.82c-4.68,0-13.1,1.59-25.26,4.7c-0.14,0.05-0.27,0.08-0.41,0.1
	c-29.27,7.61-52.77,11.41-70.48,11.41c-21.71,0-38.91-3.82-51.64-11.49c-7.95-4.78-14.38-8.17-19.32-13.09l-8.17,19.3h12.71
	c13.08,0,22.31,2.45,27.68,7.3c5.37,4.87,8.04,11.21,8.04,19.04c0,7.83-2.67,14.19-8.04,19.03c-1.39,1.25-3.05,2.34-4.95,3.28
	c12.3,3.11,25.7,4.66,40.22,4.66c14.41,0,29.23-1.11,44.44-3.3c8.3-1.2,16.71-2.7,25.25-4.55c24.16-5.22,39.36-10.73,45.59-16.51
	c4.68-4.38,7.02-9.69,7.02-15.94C300.46,261.6,298.28,255.91,293.91,251.38"/>
<path class="st1" d="M293.91,251.38c-4.36-4.54-9.74-6.82-16.13-6.82c-4.68,0-13.1,1.59-25.26,4.7c-0.14,0.05-0.27,0.08-0.41,0.1
	c-29.27,7.61-52.77,11.41-70.48,11.41c-21.71,0-38.91-3.82-51.64-11.49c-7.95-4.78-14.38-8.17-19.32-13.09l-8.17,19.3h12.71
	c13.08,0,22.31,2.45,27.68,7.3c5.37,4.87,8.04,11.21,8.04,19.04c0,7.83-2.67,14.19-8.04,19.03c-1.39,1.25-3.05,2.34-4.95,3.28
	c12.3,3.11,25.7,4.66,40.22,4.66c14.41,0,29.23-1.11,44.44-3.3c8.3-1.2,16.71-2.7,25.25-4.55c24.16-5.22,39.36-10.73,45.59-16.51
	c4.68-4.38,7.02-9.69,7.02-15.94C300.46,261.6,298.28,255.91,293.91,251.38"/>
<path class="st1" d="M1216.65,3.39c0.33,1.83,1.77,3.77,2.64,5.5c-2.34,0.4-4.76-0.59-7-0.87c2.12,1.15,4.93,0.63,6.75,2.51
	c2.48,2.54-2.17,3.6-4.53,3.95c2.16,0.09,4.53-1.09,6.69-1.3c2.2-0.23,4.94-0.3,6.97,0.4c1.39,0.48,4.09,1.9,3.05,3.71
	c-0.67,1.12-4.8,2.34-6.12,3c-0.08,0.08-0.08,0.08,0.02,0.01c3.47-2.43,10.16-3.82,13.91-1.41c1.94,1.26,2.75,3.59,3.27,5.59
	c0.73,2.78,1,3.45-0.63,6.06c0.88-0.55,2.04-0.56,2.48-1.45c0.53-1.2-0.38-2.41-0.84-3.35c-0.98-1.93-2.47-3.87-0.66-5.9
	c1.72-1.95,3.23-0.63,5.26,0.16c1.91,0.77,4.36,0.5,3.95-2.41c-1.82-0.3-5.27-0.1-7,0.23c-2.21,0.44-3.88,1.93-6.32,0.19
	c-1.04-0.73-1.35-1.17-2.59-1.77c-0.99-0.47-1.78-0.81-2.6-1.63c-1.63-1.59-2.88-3.92-3.6-6.06c0.38,1.52,2.27,3.77-0.02,4.53
	c-1.15,0.38-4.23-1.02-5.29-1.5c-3.17-1.41-5.98-4.39-7.3-7.52"/>
<path class="st2" d="M1246.45,23.7c0.78,2.39,4.21,3.8,5.9,5.34c0.73,0.65,2.33,2.42,1.16,3.29c-1.13,0.87-4.52-1.02-5.15,0.86
	c0.85,0.74,2.02,0.48,3.07,0.54c0.11,2.05-2.25,2.56-1.36,4.79c0.64,1.62,2.53,3.51,3.82,4.64c1.13,0.99,4.7,1.45,3.71,3.25
	c-0.91,1.7-5.27,1.48-4.76,4.13c1.83,0.09,2.16-0.44,3.57-1.17c1.38-0.71,3.47-0.63,4.63-1.41c3.7-2.45-2.09-4.27-3.88-5.07
	c-2.7-1.24-7.88-3.01-4.84-6.95c0.8-1.05,2.27-0.94,3.05-2.27c1.03-1.76-0.13-2.83-0.66-4.45c-0.67-2.15-0.54-4.99,0.21-7.05
	c0.41-1.16,1.05-2.26,2.41-2.42c0.93-0.12,3.37,1.34,3.42-0.18c0.05-2.63-5.5-0.36-6.52,0.39c-2.19,1.63-1.32,4.52-1.45,7
	c-2.43,0.39-4.34-2.57-6.53-3.25"/>
<path class="st1" d="M1288.13,77.6c0.52-2.09,0.18-3.17-0.59-5.05c-0.71-1.71-0.58-3.66-1.38-5.33c-0.4-0.84-1.44-1.28-1.79-2.09
	c-0.34-0.82-0.25-2.57-0.14-3.46c0.16-1.23,0.67-1.3,1.64-2.01c1.02-0.73,1.32-1.26,1.48-2.54c0.15-1.2-0.02-2.27-0.16-3.45
	c-0.09-1.02,0.45-2.9-0.23-3.76c-0.22-0.27-0.23-0.37-0.55-0.48c-1.05,2.18-0.07,5.44-0.32,7.82c-0.12,0.89-0.69,2.05-1.87,1.72
	c-1.02-0.3-1.19-2.09-1.69-2.98c-1.18-2.09-2.09-3.09-2.21-5.52c-0.05-1.59-0.24-3.15-0.24-4.75c0-1.89,0.38-3.98,0.12-5.84
	c0-0.11,0-0.2,0-0.3c0.07,1.9-0.79,4.23-1.1,6.22c-0.15,0.91,0.09,2.7-1.26,2.22c-1.08-0.37-1.91-2.28-2.57-3.08
	c-1.66-2.05-3.94-3.04-4.89-5.64c-0.45-1.18-1.07-2.16-1.08-3.39c-0.01-1.4,0.19-2.75,0.12-4.17c-0.09-1.95,0.18-4.22-0.58-6.05
	c-0.7,1.29-0.11,3.62-0.1,5.05c0.02,1.66,0.08,3.32-0.71,4.77c-2.18-0.27-3.74-3.05-5.14-4.54c-0.69-0.73-1.48-1.32-2.05-2.09
	c-0.48-0.65-0.73-1.34-1.41-1.85l0.09-0.21c-0.58,3.72,5.74,7.84,7.7,10.43c1.16,1.49,3.32,3.8,0.27,3.92
	c-2.48,0.11-5.52-1.5-7.95-1.82c1.36,1.62,5.92,2.06,7.99,2.83c2.37,0.88,5.05,2.86,6.85,4.65c1.09,1.07,4.88,5.12,2.69,6.41
	c-0.84,0.5-4.04-0.37-5.05-0.41c-1.71-0.08-3.31-0.05-4.82,0.85c-0.02-0.02,0.25,0.35,0.25,0.34c4.28-1.48,10.24-0.2,13.4,3.09
	c1.62,1.71,1.77,3.52,1.84,5.8c0.07,1.27,0.13,2.38-0.8,3.27c-0.79,0.77-2.03,0.48-2.62,1.51c0.25-3.82-3.73-5.62-6.39-7.39
	c-1.02-0.68-2.34-2.17-3.66-2.23c-1.64-0.08-2.95,1.72-2.59,3c2.63-1.45,5.52,0,7.66,2c1.09,1.01,1.88,2.09,2.42,3.43
	c0.55,1.39,0.02,3.71,0.77,4.87c1.47,2.3,2.69-4.08,4.82-4.21c6.15-0.4,2.34,13.62,3.09,16.09c1.4-1.41,2.1-3.71,4.17-4.57
	c3.22-1.33,3.84,1.49,3.84,3.99c0,2.42-0.37,4.59-0.59,6.91c-0.24,2.55-1.52,4.11-2.2,6.36c0.02-0.12,5.03-0.81,5.61-0.82
	c1.2-0.02,4,1.06,4.65-0.55c0.88-2.27-3.56-4.55-4.65-5.65c-2.59-2.68-0.47-5.8-1.2-9.27C1294.28,76.21,1290.08,76.63,1288.13,77.6"
	/>
<path class="st1" d="M1292.77,51.61c-0.29,4.92,1.21,8.21,3.23,12.6c0.83,1.8,2.7,5.55-1,4.13c-1.73-0.66-3.3-2.2-4.95-2.77
	c0.05,1.11,4.63,3.39,5.68,4.06c2.54,1.66,3.8,3.53,5.3,6.06c1.23,2.09,3.73,6.43,2.95,8.96c-0.99,3.16-4.45-0.86-5.83-1.7
	c-0.31,1.29,3.95,3.66,4.91,4.51c1.93,1.67,3.58,3.88,4.52,6.31c0.61,1.58,2.41,7.47,1.05,8.28c-1.68,1-6.02-2.17-7.55-2.73
	c0.06,1.01,3.79,2.58,4.8,3.25c2.07,1.39,3.38,2.18,4.26,4.66c1.82,5.17,1.1,10.98,2.83,16.11c1.21-1.48,0.66-5.29,0.66-7.16
	c0-2.8-0.16-5.22-1.2-7.76c-1.07-2.58-0.91-4.84,0.29-7.21c1.12-2.21,2.37-4.36,2.29-6.85c-0.3,1.66-1.57,5.35-3.33,6.09
	c-2.12,0.89-2.66-4.62-3.01-6.37c-0.53-2.77-1.84-5.59-2.27-8.4c-0.55-3.45,1.29-5.52,2.05-8.61c0.22-0.84,0.45-1.7,0.3-2.56
	c-1.41,1.95-1.41,5.38-3.6,7.19c-1.55-0.41-1.71-3.53-2.18-4.84c-0.8-2.11-1.38-3.7-1.26-6.03c0.16-3.55,1.45-9.04-0.5-12.11
	c-0.04,2.66,0.47,4.86-0.2,7.46c-0.85,3.28-2.3,2.45-3.27-0.08c-1.73-4.45-5.56-9.25-4.79-14.34"/>
<path class="st1" d="M1284.7,105.69c-0.49-0.95-1.47-1.95-1.77-2.9c-0.71-2.3,0.77-4.92,1.41-7.1c1.22-4.07,2.84-6.21,5.52-9.45
	c-2.24,0.61-4.27,4.44-5.15,6.35c-0.92,1.93-0.86,4.69-2.48,6.2c-2.29,2.16-2.9-4.43-3.52-6.03c-1.22-3.2-1.59-5.6-0.9-8.92
	c0.7-3.36,2.83-6.39,3.97-9.62c-1.58,1.5-3.77,9.66-5.67,9.39c-1.74-2.58-2.32-5.86-3.34-8.79c-0.95-2.72-2.61-5.9-2.73-8.75
	l-0.34-0.7c0.08,1.39,0.88,4.45,2.25,8.95c0.91,3,2.5,6.86,2.2,9.98c-2.57-1.5-4.58-4.7-7.7-4.95c0.89,1.16,2.7,1.75,3.82,2.67
	c1.45,1.2,2.7,2.6,3.94,4.02c1.41,1.62,4.62,7.54,2.88,9.45c-3.09-1.57-5.09-3.85-8.87-3.77c1.24,1.33,3.9,1.2,5.32,2.37
	c1.2,0.95,2.78,2.76,3.55,4.05c0.59,1.02,0.73,2.25,1.44,3.21c0.81,1.12,2,1.88,2.95,2.91c3.22,3.53,5.91,6.38,7.02,11.18
	c0.05-2.25-0.55-4.27-0.12-6.54c0.36-2.03,1.25-3.73,1.81-5.61c-2.33,0.91-1.2,5.08-2.9,6.36
	C1285.52,108.69,1285.6,107.1,1284.7,105.69"/>
<path class="st1" d="M1293.82,95.18c-0.23,0.47-0.16,1.28-0.39,1.85c-0.27,0.73-1.03,0.81-0.97,1.72c2.09,0.31,1.92,6.39,1.05,7.84
	c-0.95,1.59-1.7,1.59-1.6,3.77c0.03,0.58-0.12,2.05,0.57,2.35c0.7,0.3,1.09-0.63,1.68-0.8c1.84-0.52,2.23,0.54,2.59,2.37
	c0.38,1.95,0.88,3.48,0.31,5.48c-0.36,1.3-1.21,2.6-0.32,3.83c1.02,1.41,1.72-0.01,3.27,0.01c4.15,0.03,1.42,5.52,1.58,8.04
	c0.08,1.28,0.94,3.2,2.42,3.46c2.6,0.47,0.08-1.12-0.32-1.86c-1.34-2.41,1.22-5.84,0.05-8.6c-0.57-1.41-1.81-1.9-2.66-2.98
	c-1.07-1.37-0.91-3.09-1.45-4.61c-0.73-1.91-1.55-3.06-1.87-5.16c-0.37-2.42-0.79-4.75-0.66-7.23c2.91-1.32,3.96,6.02,4.11,7.88
	c0.13,1.59,0.53,3.42,0.97,4.97c0.77,2.62,1.67,1.91,3.64,2.48c0.5,0.16,1.46,0.62,1.78,1.14c0.78,1.33-0.16,1.2-0.64,2.2
	c-0.43,0.84-0.69,0.56-0.59,1.57c0.06,0.76,0.86,2.1,1.67,2.3c2.61,0.61,2.26-6.12,1.93-7.79c-0.3-1.37-0.76-2.88-1.52-4.01
	c-0.86-1.26-2.5-1.91-3.14-3.28c-0.94-1.98,0.31-2.07,0.85-3.4c0.59-1.45-0.37-2.2-1.79-2.86c-2.86-1.35-4.77-2.34-6.91-4.84
	c-1.33-1.59-2.76-4.77-3.66-5.7"/>
<path class="st1" d="M1320.69,137.19c-1.91,1.01-3.24,3.89-4.15,5.69c-0.84,1.7-1.58,5.7-3.27,6.57c-1.02-0.76-0.54-2.23-1.08-3.27
	c-0.8,0.84,0.1,2.23,0.23,3.26c0.13,1.3,0,2.58-0.36,3.79c-0.34,1.12-0.62,1.91-1.75,2.55c-0.93,0.52-3.49,0.16-3.17,1.73
	c1.77,0.04,3.83-0.87,5.31-1.82c2.05-1.3,3.09-2.05,3.57,0.98c0.3,1.89,1.56,3.45,1.74,5.34c0.08,0.99-0.55,2.23,0.37,3.05
	c1.12,1.02,2.2-0.38,3.38,0.02c0.4-1.41-0.77-1.07-1.18-1.81c-0.34-0.62-0.36-1.28-0.47-1.98c-0.28-1.68-0.86-2.22-1.59-3.57
	c-1.39-2.6,0.16-6.33,3.56-6.04c-2.51-1.02-3.88,2.23-6.3,2.03c-0.33-0.55-1.09-1.29-1.32-1.88c-0.41-1.19,0-1.2,0.61-2.39
	c0.77-1.55,1.09-3.23,1.77-4.79c1.2-2.81,3.26-5.12,4.58-7.76c-0.31,0.06-0.37,0.22-0.66,0.49"/>
<path class="st1" d="M1267.81,147.53c-1.87,4.3,4.25,1.12,5.18,1.55c1.29,0.59,0.98,6.52,0.83,7.95c-0.11,1.35-0.95,3-0.85,4.27
	c0.12,1.33,1.28,2.02,1.55,3.27c0.16,0.71,0.11,1.92,0,2.63c-0.16,1.06-0.52,1.02-0.82,1.84c-0.49,1.4-0.45,2.93-0.36,4.46
	c0.23,0.02,0.41,0,0.64,0c0.06-1.22-0.2-2.52,0.4-3.59c0.73-1.28,1.38-1.52,1.82-2.97c0.35-1.11,0.59-1.9,0.4-3.05
	c-0.17-0.95-1.03-1.99-1.05-2.93c-0.02-1.09,1.21-2.05,1.4-3.09c0.23-1.3-0.43-2.61-0.34-3.97c0.08-1.33,0.59-2.48,0.03-3.84
	c-0.43-1.04-1.5-1.68-1.95-2.67c-1.45-0.96-2.23,0.35-3.56,0.82c-1.58,0.58-1.84-0.25-3.3-0.52"/>
<path class="st1" d="M1278.48,169.22c0,2.41,2.25,8.46,1.88,13.26c-1.47-0.38-3.47-2.45-4.78-3.29c-1.2-0.77-4.26-3.3-5.55-2.73
	c0.45,1.07,2.19,1.59,3.25,2.12c1.49,0.77,2.34,1.8,3.66,2.89c3.02,2.46,3.7,4.16,4.69,7.72c1.09-0.27,4.12-4.79,1.2-4.32
	c-0.84-1.88-0.29-5.45-0.03-7.54c0.19-1.52,2.4-5.77,1.42-6.88c-0.58,1.01-1.75,7.22-3.78,4.27c-1.15-1.7,0.73-7.24-2.3-7.54
	c-0.21,0.23,0.38,0.38,0.34,0.66L1278.48,169.22"/>
<path class="st1" d="M1313.1,159.92c-1.91,1.48-1.12,3.74-1.92,5.67c-1.22,0.03-2.17-1.25-2.22,0.72c-0.02,0.44,0.59,0.95,0.7,1.37
	c0.17,0.63,0.17,1.33,0.17,2.03c0.02,2.66-0.7,5.42-0.85,8.15c-0.24,3.86-2.34,1.66-3.59-0.41c-1.12-1.84-2.52-4.04-2.66-6.14
	c-1.25,1.76,0.57,4.88,1.71,6.41c1.8,2.44,2.92,4.41,2.27,7.55c-0.5,2.56-0.95,5.1-2.06,7.55c-0.8,1.79-2.34,6.62-4.27,7.17
	c-1.1-1.32,0.03-3.88-1.06-5.3c-1.12,0.95-0.07,4.98,0,6.44c0.11,2.31-0.31,4.29-1.55,6.17c-1.02,1.53-1.93,3.08-2.92,4.69
	c-0.89,1.42-2.39,3.08-2.91,4.58c4.15,0.42,7.57-9.43,8.98-12.32c1.19-2.45,2.67-4.73,4.79-6.56c1.3-1.09,6-3.02,6-4.33
	c-1.2,0.59-6.57,3.63-6.05,1.16c0.09-0.45,0.86-1.02,1.07-1.49c0.44-0.89,0.52-2.11,0.73-3.08c0.3-1.33,0.65-2.7,0.98-4.02
	c0.7-2.8,1.54-4.88,3.45-7.23c1.64-1.99,4.44-3.8,5.57-6.2c0.26-0.55,0.46-0.62,0.31-1.15c-2.54,1.63-3.93,5.05-6.55,6.3
	c-1.02-0.8-0.12-3.31,0-4.5c0.17-1.77,0.19-3.66,0.55-5.44c0.27-1.32,0.64-2.53,0.83-4C1312.76,162.57,1313.55,160.73,1313.1,159.92
	"/>
<path class="st1" d="M1118.48,148.74c-1.06,0.61-1.83,1.98-2.58,1.03c-0.52-0.67-0.16-2.76-0.16-3.61c0-1.3,0.2-2.41-0.55-3.41
	c-0.11-0.15-1.1-0.66-1.36-0.9c-0.35-0.34-0.46-1.01-0.8-1.36c-1.53,1.9-0.12,7.39-0.05,9.8c0.12,3.91,1.59,7.3,1.39,11.27
	c-0.37,8.25-2.12,16.84-2.76,25.1c-0.05,0.59,0.03,1.01-0.2,1.52l0.23,0.31c2.14-0.34,2.26-3.81,2.75-5.4
	c0.53-1.7,0.19-1.71,0.31-3.53c0.22-3.55,0.38-8.72,0.7-12.22c0.16-1.72,1.2-2.3,1.85-3.84c0.79-1.87,0.31-2.05-0.6-3.45
	c-0.71-1.03-1.25-2.33-0.79-3.62c0.53-1.44,2-1.52,2.77-2.59c0.76-1.05,1.51-4.14,0.73-5.12h-0.88"/>
<path class="st1" d="M1108.84,143.91c-0.34,1.73-1.08,4.94-1.2,7.58c-0.15,3.64-0.84,7.97-1.2,11.55
	c-0.8,7.84-1.12,15.78-1.03,23.86c0.02,2.36,0.52,4.59,0.52,6.98c0,2.01,0.06,4.06,0.53,5.99c2-0.02,0.59-17.55,0.67-19.96
	c0.11-3.62-0.16-6.52,0-10.16c0.15-3.56,0.68-7.7,1.2-11.19c0.42-2.71,0.62-5.23,0.91-7.96
	C1109.35,149.36,1110.55,143.85,1108.84,143.91"/>
<path class="st1" d="M1100.07,210.78c0.94,1.52,1.67,4.52,3.48,5.12c1.38,0.48,2.68-0.2,2.21-1.7c-0.23-0.7-1.28-1.26-1.73-1.88
	c-1.02-1.4-1.57-4.58-3.73-4.53C1098.04,206.35,1098.24,207.89,1100.07,210.78 M1098.88,181.82c0.18,2.26-2.34,2.73-2.41,5.02
	c-0.03,1.11,0.33,1.97,1.16,2.71c0.4,0.36,1.1,0.52,1.55,0.86c0.32,0.23,0.6,0.94,0.89,1.23c1.36-1.19,1.08-4.75,0.66-6.39
	c-0.24-0.98-0.67-1.71-0.81-2.76c-0.17-1.15,0.33-2.44-0.34-3.43C1098.46,179.56,1098.48,180.76,1098.88,181.82z M1121.02,233.52
	c-1.44-0.72-2.89,0.22-4.27,0.3c-3.07,0.2-5.16-2.54-6.66-4.81c-1.42-2.18-3.22-4.16-4.58-6.33c-0.98-1.61-0.36-2.49-0.24-3.84
	c0.18-2.06-1.15-0.97-2.87-1.85c-3.15-1.59-3.23-5.12-4.98-7.77c-0.7-1.06-1.72-1.73-1.84,0.16c-0.08,1.41,1.09,2.22,1.68,3.34
	c0.69,1.28,0.91,2.67,1.94,3.89c1.2,1.41,1.41,1.67-0.03,3.23c-2.99,3.2-4.52-1.44-5.98-3.73c-1.95-2.99-6.2-7.51-3.8-11.15
	c1.72,1.93,1.84,4.34,2.79,6.62c0.95,2.25,2.47,4.88,4.1,6.44c1.57-1.87-1.67-4.99-2.54-6.55c-1.45-2.62-1.47-6.34,2.54-4.66
	c1.06-0.78,0.32-2.46-0.69-2.98c-1.89-0.97-3.24,0.48-3.8-2.41c-0.27-1.4,0.31-2.87,0.51-4.25c0.26-1.65,0.16-3.31,0.58-4.85
	c0.85-3.15,2.48-5.72,3.23-8.92c0.46-1.91,0.44-4.14,1.34-5.91c0.51-1.04,1.42-1.91,2.11-2.87c1.16-1.66,3.3-8.53,1.19-10.02
	c-1.89,1.09,0.14,2.46-0.6,3.59c-0.71,1.11-1.82,0.74-2.66,2.28c-0.59,1.04-1.11,2.13-1.59,3.23c-1.42,3.18-2.52,6.66-3.39,10.03
	c-0.34,1.25-1.12,9.27-2.94,8.59c-0.96-0.38,0.99-6.12,1.2-7.38c0.14-1.01,0.96-2.53-0.34-3.12c-0.75,0.79-1.62,1.58-1.76,2.77
	c-1.08,0.25-2.46-2.48-2.04-3.4c0.39-0.85,1.33-0.15,1.73-0.37c0.56-0.31,0.76-0.84,1.04-1.41c0.94,0.41,1.31,1.36,1.85,2.07
	c1.64-2.17,2.31-5.38,2.96-7.89c0.79-3.03,2.69-5.95,4.11-8.66c1.31-2.58,4.59-4.56,4.62-7.57c0.03-1.77-1.1-2.95-0.45-4.63
	c0.5-1.37,1.38-2.62,1.89-3.77c0.5-1.11,0.32-2.37,1.41-3.23c0.48,1.65-0.77,3.44-1.04,5.11c-0.28,1.84-0.16,3.71-0.52,5.51
	c-0.66,3.45-1.56,6.65-1.8,10.16c-0.2,3.27-0.32,6.49-0.47,9.77c-0.16,3.33,0.19,7.01,0.04,10.41c-0.12,3.02-0.04,5.07,1.48,7.58
	c0.95,1.56,3.38,4.14,2.93,6.12c-1.88,0.83-4.7-4.88-5.78-5.86c-1.55-1.39-4.84-6.07-5.89-2.37c-1,3.59,2.21,5.67,4.08,8.3
	c2.36,3.3,4.95,6.41,7.13,9.78c0.9,1.38,1.59,2.8,2.22,4.3c0.73,1.78,1.57,2.46,2.58,3.76c1.84,2.4,2.35,6.07,3.6,8.82
	c1.32,2.93,2.55,3.55,5.38,4.3c1.25,0.32,2.16,0.91,3.09,1.86c0.62,0.65,1.63,1.66,1.19,2.49
	C1122.85,235.29,1122.14,234.08,1121.02,233.52z"/>
<path class="st1" d="M1100.51,57.57c-0.56,2.87-6.58,11.39-8.3,13.73c-2.55,3.41-5.75,7.73-5.89,12.2c3.19-1.14,5.23-7.03,7.03-9.69
	c1.99-2.97,7.62-10.73,10.15-15.09c-0.34-0.06,0.91-1.63-0.46-2.98C1101.7,54.38,1100.51,57.57,1100.51,57.57 M1082.85,114.76
	c-0.87,2.19-1.61,3.66-2.07,5.97c-0.38,1.96-2.19,8.18-1.4,10.34c1.09-1.88,2.81-8.27,3.47-10.34c0.62-2.02,2.53-4.66,1.53-6.85
	c-0.73,0.21-1.34,0.66-1.77,1.34L1082.85,114.76z M1074.12,114.06c-1.41,1.4-0.75,3.8-0.93,5.76c-0.16,1.75-0.59,3.65-1.2,5.26
	c-0.66,1.77-1.58,6.25-1.33,8.27c0.25,1.96,1.59,2.03,2.3,3.67c0.64-1.88,0.38-6.97,0.7-8.95c0.23-1.66,0.88-3.38,1.14-5.04
	c0.35-2.26,2.47-8.78,0.75-10.08c-0.52,0.67-0.95,0.54-1.66,0.88L1074.12,114.06z M1085.37,105.57c-0.61,1.38,1,0.05,2.23,1.29
	c2.5-3.3,4.38-8.48,5.06-12.51c-4.32,0.31-6.18,6.1-7.08,9.15L1085.37,105.57z M1080.53,90.07c-0.18,3.12-1.04,5.63-2.07,8.59
	c-0.33,0.95-0.67,1.95-0.92,2.95c-0.12,0.6-0.69,2.21-0.44,2.81c0.48,1.23,1.49,2.52,2.06,2.06c1.58-1.3,1.7-5.01,1.98-6.57
	c0.22-1.26,0.34-2.4,0.91-3.53c0.83-1.6,2.7-4.77,0.56-6.16c-0.8-0.51-1.57-0.47-2.09,0.3L1080.53,90.07L1080.53,90.07z M1134.05,30
	c-1.01,0.67-1.12,1.78-0.42,2.73c3.36,0.52,6.41-2.84,8.98-4.49c2.4-1.55,4.75-3.31,7.23-4.7c2.62-1.52,5.2-3.24,7.98-4.6
	c2.56-1.24,5.84-4.02,8.59-4.02c-2.38,1.87-5.83,3.55-8.53,5.24c-3.08,1.91-6.32,4.04-9.44,5.9c-2.82,1.7-6.09,3.66-8.82,5.64
	c-1.11,0.79-7.73,5.48-4.17,6.14c1.34,0.24,3.05-1.84,4.05-2.59c1.28-0.94,2.54-1.53,3.97-2.19c3.11-1.45,5.79-3.06,8.67-4.7
	c5.55-3.2,11.66-6.48,16.8-10.33c2.52-1.87,6.16-7.22,0.94-7.29c-4.32-0.07-7.93,2.01-11.71,3.66c-6.43,2.82-12.69,6.87-18.65,10.76
	C1137.1,26.71,1135.77,27.76,1134.05,30z M1117.62,40.13c2.55,1.36,8.89-9.87,10.7-11.89c4.54-5.09,10.21-9.2,15.84-12.92
	c6.05-4,12.95-7.87,19.97-9.38c1.17-0.26-7.06,3.46-10.33,5.02c-3.65,1.75-7.11,4.35-10.67,6.53c-3.2,1.96-5.56,4.32-8.37,6.84
	c-0.6,0.53-3.88,2.95-3.7,3.86c0.38,2.05,3.7-1.09,4.33-1.63c5.77-4.95,13.12-9.05,20.04-12.32c2.48-1.17,18.86-7.33,13.16-12.45
	c-4.01-1.26-8.03,1.32-11.56,2.3c-3.6,1-7.77,2.98-11.09,4.98c-5.52,3.3-10.85,8.8-15.09,13.66c-2.37,2.7-4.88,4.93-6.85,7.98
	c-1.65,2.58-3.52,5.41-5.56,7.8C1118.12,38.81,1117.43,39.55,1117.62,40.13z M1107.63,48.42c-2.66,1.95-2.12,2.49-3.65,5.27
	c0.7-0.34,0.45,5.26,1.37,4.58c1.27-0.91,4.55-6.11,5.27-6.88c1.13-1.19,3.98-6.53,3.66-8.25c-0.8,0.24-2.76,0.47-4.12,2.3
	L1107.63,48.42z M1230.81,257.91c0.08-0.56,0.42-0.88,1.56-1.52c1.26-0.71,2.61-1.3,3.81-2.12c1.81-1.25,1.43-1.09,1.73-3.38
	c0.24-1.96,1.61-3.28,0.67-5.31c-1.31-2.81-5.36-0.95-6.95,1.05c-2.3,2.88,0.7,5.07,1.8,7.53c-2.29,1.54-2.94-3.66-6.09-0.55
	c-1.21,1.17-1.01,2.91-2.55,3.05c-0.47,0.04-4.68-2.15-6.75-1.27c-2.47-3.14,6.09-1.07,7.96-2.67c1.13-0.98,2.23-1.65,2.99-2.94
	c0.98-1.62,0.62-3.81,2.26-4.94c2.91-1.97,10.38-1.8,12.23,0.95c1.04,1.53-0.12,3.58,1.9,4.64c1.54,0.83,2.62-0.7,3.8-1.72
	c2.38-2.01,5.49-3.83,8.12-5.64c0.73-0.5,2.77-1.56,3.15-2.38c0.75-1.65-0.57-2.4,0.91-4.01c1.33,1.15,4.02,1.85,5.74,1.53
	c-0.42-0.98-2.03-2.75-1.48-3.95c0.71-1.55,3.72-1.15,4.99-2.29c1.67-1.52,1.73-4.19,3.11-5.92c1.55-1.92,3.56-3.64,5.08-5.52
	c1.13-1.38,1.53-1.94,3.22-2.24c1.89-0.34,2.06,0.74,3.93,0.7c3.71-0.1,5.3-3.62,8.37-4.7c2.97-1.03,6.86,0.23,8.97-2.78
	c1.2-1.7-0.5-2.67-0.01-4.62c0.3-1.21,1.57-2.36,2.44-3.11c2.43-2.12,5.7-3.57,7.53-6.41c0.65-0.98,1.82-2.89,1.88-4.09
	c0.09-1.85-1.85-3.06-1.73-4.84c0.08-1.27,1.93-4.17,2.6-5.34c1.11-1.94,2.87-3.31,3.84-5.34c0.92-1.94,1.29-4.05,1.76-6.12
	c0.29-1.34,0.76-3.43,0.38-4.88c-0.31-1.23-1.45-1.99-1.45-3.26c2.43-1.12,6.3-3.9,3.95-6.24c-1.77-1.77-2.84-1-0.86-2.81
	c1.33-1.22,2.63-1.89,3.08-3.84c0.55-2.54-0.65-2.91-1.79-4.48c-1.38-1.9-0.3-1.75,0.49-3.88c1.48-3.95-0.99-5.94-2.09-9.32
	c-1.4,0.15-3.31,0.58-4.79,0.9c-1.9,0.42-2.11,1.56-3.31,2.88c-1.69,1.83-3.14,0.23-4.74,1.89c-1.02,1.06-1.41,2.68-1.72,4.05
	c-0.76,3.59-0.09,8-0.45,11.71c-0.17,1.73-0.22,3.5-0.84,5.16c-0.58,1.53-0.7,3.32-1.45,4.77c-1.57,3.11-4.74,0.67-5.43-1.48
	c3.92,1.64,3.52-3.46,3.95-6.45c0.58-3.72,1.8-6.73,1.99-10.67c0.05-0.85,0.17-1.99,0-2.82c-0.08-0.45-0.67-1.45-0.66-1.77
	c0.03-1.64,1.16-1.69,1.94-3.15c0.91-1.72,0.07-3.08-0.16-4.8c-0.27-2.31-0.16-1.9,1.88-2.69c3.26-1.27,4.48-4.72,3.2-8.32
	c0.69-0.81,1.8-1.07,2.84-1.01c0.66-1.8-0.04-3.8,0.27-5.68c0.34-2.15,1.51-3.32,2.52-5.08c0.41-0.77,1.76-3.96,1.19-4.66
	c-0.95-1.23-3.23,0.02-3.69-1.85c-0.34-1.36,2.66-3.96,3.23-5.13c1.12-2.34,1.19-3.82,0.61-6.28c-0.38-1.66-0.23-5.97-2.81-4.84
	c-1.34,0.59-2.25,3.73-4.22,2.8c-0.54-1.43,0-2.17,0.27-3.5c0.28-1.41,0.7-2.89,0.87-4.23c0.26-1.75-0.59-2.08-1.13-3.41
	c-1.07-2.64,1.18-7.61-1.16-9.77c-1.49-1.36-2,0.27-3.23,0.89c-2.89,1.49-2.14-1.48-2.35-3.37c-0.16-1.66,0.08-3.59-0.15-5.09
	c-0.16-1.15-2.02-7.06-3.42-7.02c-1.03,0.02-1.79,2.16-3.09,1.62c-1.1-0.45-1.3-2.59-1.42-3.51c-0.2-1.38-0.3-1.46-1.22-2.56
	c-1.07-1.3-2.88-4.73-5.23-4.22c-1.91,0.41-1.69,4.09-3.58,5.08c-2.02-0.54-2.58-4.58-3.2-6.34c-0.94-2.77-1.19-5.52-1.73-8.36
	c-0.26-1.31-0.92-4.44-2.56-4.7c-1.9-0.31-1.05,4.12-3.69,3.72c-2.55-0.38-2.18-7.39-3.27-9.23c-0.72-1.23-1.57-2.23-2.23-3.51
	c-0.52-0.98-1.2-2.39-2.49-2.23c-1.13,0.12-1.59,1.77-2.66,1.82c-0.74,0.03-2.87-1.48-3.6-1.85c-1.45-0.7-2.92-1.27-4.18-2.32
	c-1.24-1.02-1.56-1.84-3.24-1.68c-2.05,0.16-5.21,3.6-6.8,0.66c0.55-0.96,0.42-2.3-0.38-3.08c-1.41-1.38-1.77-0.22-2.67,0.59
	c-2.62,2.27-4.47-1.09-5.45-3.56c-0.94-2.34-1.89-3.27-4.08-4.69c-1.59-1.08-4.94-4.12-7.05-3.6c-1.66,0.41-2.24,2.29-4.06,1.49
	c-1.3-0.58-1.77-0.27-3.11-0.77c-1.78-0.67-3.59-2.2-7.67-1.87c-1.2,0.12-0.21,1.16-1.02,1.97c-0.8,0.81-3.38,0.5-4.52,0.56
	c-1.47,0.05-3.06-0.49-3.91,0.97c-1.37,2.32,1.91,4.27,3.59,4.92c1.05,0.41,1.88,0.67,2.04,2.03c0.12,1.1-0.79,2.42-0.23,3.57
	c1.1,2.2,6.18,1.53,8.09,1.61c1.94,0.07,2.33,0.41,2.41,2.51c0.05,1.8-0.77,2.76,1.02,3.56c0.95,0.41,2.24,0.18,3.19,0.52
	c0.69,0.24,1.27,0.94,1.9,1.16c1.67,0.58,3.7,0.06,5.36-0.15c1.13-0.12,3.95-1.6,4.84-0.5c0.84,1-0.67,2.45-0.3,3.67
	c0.64,2.09,1.81,1.62,3.38,1.55c2.78-0.14,1.96,1.37,2.36,3.2c0.42,1.95,1.32,3.05,3.05,3.87c1.86,0.86,4.33,0.2,6.08,1.02
	c1.41,0.66,3.34,3.29,2.95,4.88c-0.38,1.77-2.6,2.71-3.68,4.01c-2.7,3.26,3.9,2.27,5.47,3.73c0.99,0.9,1.64,2.48,2.53,3.56
	c0.95,1.16,0.82,2.29,1.6,3.43c1.8,2.59,6.01,1.52,8.28,3.02c-1.14,1.23-1.62,3.54-2.04,5.15c-0.26,1-0.58,2.03-0.63,3.09
	c-0.07,1.38,0.48,2.23,0.63,3.52c0.3,2.75-2.61,3.25-2.82,5.7c-0.16,1.54,0.77,2.4,1.59,3.56c1.02,1.44,1.65,3,2.25,4.69
	c-0.86,0.98-2.41,0.73-3.12,1.6c-1.02,1.22,0,4.02,0.88,5.1c1.16,1.4,3.19,1.95,4.68,2.9c2.52,1.63,5.74,1.71,8.07,3.75
	c2.17,1.89,3.73,4.7,5.74,6.88c1.3,1.42,2.88,2.48,3.67,4.22c0.57,1.27,0.59,2.62,1.21,3.91c2.08,4.23,4.8,8.87,8.09,12.3
	c1.77,1.84,3.41,2.97,4.39,5.43c0.98,2.55,1.91,6,5.29,5.43c-0.08,1.09-1.23,1.46-1.63,2.45c-0.38,0.91-0.3,2.36-0.5,3.37
	c-0.45,2.25-0.12,4.55-0.35,6.87c-0.23,2.42-1.08,4.42-1.53,6.76c-0.41,1.99-0.44,4.72-1.31,6.44c-0.88,0.91-1.96-0.36-3,0.2
	c-0.99,0.53-0.92,2.2-0.88,3.16c0.08,1.65,0.2,3.05,0.73,4.55c0.47,1.35,1.01,2.8,0.33,4.18c-0.77,1.55-1.9,1.48-3.23,1.21
	c-1.94-0.4-1.78-0.3-1.31-1.98c0.7-2.53-0.08-6.16,1.12-8.62c-1.18,0.62-2.74-0.04-3.37,0.99c-0.28,0.52-0.3,1.78-0.47,2.4
	c-0.2,0.85-0.52,1.66-0.9,2.46c-2.29,0.53-0.81-5.33-1.15-6.53c-1.06-3.89-3.77-0.09-5.73-1.4c-1.44-0.95-1-6.91-1-8.59
	c0-3.01,0.84-5.77,0.84-8.74c0-2.2-0.42-8.02-3.57-7.76c-1.56,0.13-1.95,1.85-3.38,0.5c-0.99-0.91-1.06-2.5-3.02-1.84
	c-2.58,0.85-2.31,4.49-3.34,6.41c-0.94,1.74-1.41,1.22-3.05,1.84c-4.88,1.88,1.94,7.45,2.92,9.4c1.2,2.45,1.16,6.46,1.12,9.16
	c-0.01,1.34,0.03,3.84-0.8,4.88c-1.05,1.33-3.27,0.27-4.27,1.16c-0.94,0.86,0.25,2.45,0.52,3.39c0.38,1.43,0.3,2.95,0.66,4.38
	c0.9,3.41,4.11,4.3,6.97,6.02c1.15,0.72,2.48,1.75,3.15,2.98c1.32,2.47,1.16,5.09,4.2,2.56c1.85-1.56,3.05-3.79,4.69-5.55
	c2.47-2.69,5.08-5.21,7.45-7.8c1.35,1.24,1.53,2.38,2.12,4.06c0.38,1.06,0.59,4.34,1.18,5.07c0.62,0.78,1.87,0.13,2.55,1.07
	c0.72,0.94,0.22,1.7-0.02,2.64c-0.58,2.44-1.5,2.15-3.91,2.27c0.17,1.21,1.12,2.53,1.16,3.81c0.08,2.12-0.45,1.41-1.84,2.35
	c-1.73,1.16-1.85,2.72-1.77,4.62c0.09,2.34-0.02,4.88-0.63,7.16c-0.36,1.33-0.61,2.62-1.37,3.83c-1.16,1.87-4.61,4.09-6.55,1.9
	c-1.75-1.95,2.42-4.31,3.5-5.83c1.64-2.27,1.88-5.48,2.55-8.11c0.41-1.67,0.94-3.62,2.09-4.98c0.7-0.82,1.33-0.55,1.33-1.92
	c0.02-1.09-0.64-1.82-1.38-2.53c-0.92,1.17-1.41,2.53-2.36,3.76c-1.33,1.73-1.86,2.84-2.29,4.92c-0.3,1.53-1.18,2.65-2.01,4.02
	c-1.34,2.18-1.55,1.06-3.12-0.16c-0.57,1.27-0.87,2.29-0.38,3.6c0.39,1.05,1.88,1.9,1.59,2.93c-0.39,1.41-2.73,1.12-3.67,1.85
	c-0.94,0.73-1.63,2.62-2.38,3.62c-1.9,2.6-4.33,4.99-6.54,7.25c-0.98,1.02-1.5,2.2-2.3,3.29c-0.93,1.23-2.06,1.29-3.23,2.06
	c-0.93,0.6-1.66,2.4-2.62,2.59c-1.95,0.38-0.69-2.08-0.11-2.88c0.8-1.11,2.25-1.78,3.44-2.29c1.59-0.68,1.87-1.09,2.49-2.79
	c2.34-6.3,4.98-12.87,8.55-18.57c1.77-2.84,3.16-5.59,5.16-8.25c2.06-2.74,4.79-4.66,6.99-7.12c1.53-1.71,3.44-4.05,4.38-6.12
	c1.16-2.52-0.67-6.09-3.11-3.09c-3.21,3.96-6.56,7.88-9.88,11.8c-1.78,2.09-3.54,4.18-5.18,6.37c-1.77,2.38-2.7,4.88-4.05,7.48
	c-0.61,1.2-0.69,3.55-1.91,3.76c-0.92,0.17-3.12-0.98-4.15-1.18c0,2.94-0.09,6.27-0.73,9.08c-0.83,3.54-2.48,5.77-4.41,8.7
	c-0.74,1.12-1.59,2.18-2.31,3.32c-1.14,1.72-0.88,2.73-1.16,4.69c-0.47,3.2-3.44,4.6-6.08,5.98c-0.99,0.54-2.68,1.74-3.73,1.98
	c-0.33,0.38-2.7,2.55-3.36,1.91c-0.5-0.51,0.99-2.56,1.3-3.09c1-1.79,1.57-4.55-1.02-5.05c-2.88-0.59-6.74,1.85-9.18,3.1
	c-2.93,1.53-5.47,3.13-8.72,4.01c-2.9,0.8-5.77,1.4-8.21,3.4c-2.22,1.81-4.05,4.73-5.76,6.92c-3.2,4.14-10.52-1.72-15.53-1.81
	c-12.19-0.23-9.95,5.4-15.25,3.76c-2.91-0.9-5.94,0.88-7.84-1.8c-0.76-1.06-1.09-2.35-1.95-3.4c-0.81-1.01-1.83-1.65-2.84-2.49
	c-1.83-1.56-3.99-3.18-6.24-4.27c-2.93-1.44-6.19-2.34-9.27-3.59c-2.41-0.95-5-2.45-7.69-2.18c-1.8,0.18-4.84,1.05-5.62,2.83
	c-0.54,1.18-0.43,2.2,0.88,2.93c1.93,1.09,2.19-0.3,3.23-1.41c0.96-1.05,2.03-1.39,3.34-1.64c3.34-0.67,5.54,0.24,6.52,3.58
	c0.9,3.08,1.41,5.43,3.91,7.62c3.55,3.11,2.84,1.52,4.09,4.23c-0.77,0-1.27,0.85-4.01-1.56c-1.08-0.96-2.35-1.94-3.34-3
	c-1.34-1.4-1.48-3.36-2.71-4.72c-0.91,0.77-2.12,0.51-3.25,0.56c-0.27,1.75-0.23,2.37-0.91,4.09c-2.22-0.78-2.62-0.84-3.97-2.91
	c-1.05-1.56-1.84-2.04-3.38-3.1c-5.53-3.85-9.98-8.83-15.03-13.21c-1.98-1.7-3.46-3.5-4.78-5.73c-1.23-2.12-1.96-5.05-3.52-6.87
	c-0.55,0.62-1.68,1.09-2.01,0.18c2.24-0.34,1.78-8.46,0.64-9.83c0.07,0.11-2.61,0.19-3.39-0.55c-1.23-1.19-2.23-3.48-3.23-4.94
	c-1.04-1.48-3.17-3.62-3.12-5.53c2.43-0.1,3.22,0.4,4.09-1.87c0.72-1.83,0.77-4.09,1.31-5.98c1.16-3.8,1.41-7.41,3.48-10.84
	c2-3.36,4.64-6.55,5.59-10.29c1.02-3.88,1.96-8.66,2.19-12.73c0.1-1.49-0.55-2.11-1.6-3.14c-1.06-1.02-1.8,0.12-2.4-1.92
	c-0.84-2.75,1.73-7.47,0.39-10.09c-1.39-2.72-2.07,1.34-3.91,0.99c-1.85-0.35-1.61-3.21-2.45-4.38c-3.08-4.21-5.12,3.72-5.75,5.8
	c-0.57,1.75-1.46,2.82-2.3,4.43c-0.88,1.66-1.15,2.05-1.77,3.66c-0.68,1.68-2.49,4.48-3.62,6.09c-1.34,1.9-1.89,3.77-2.88,5.8
	c-2.48,5.09-4.74,9.8-6.52,15.16c-2.32-1.83-2.79-4.89-3.87-7.36c-1.23-2.87-2.85-5.06-3.21-8.25c-0.2-1.69-0.12-2.72-0.86-4.2
	c-0.75-1.49-1.74-2.37-2.13-4.08c-0.79-3.53-3.73-12.96-0.21-15.59c1.74-1.3,1.79-1.63,2.51-3.92c1.17-3.68,3.35-6.69,5.23-10.09
	c1.73-3.12,3.06-6.42,5.06-9.47c2.32-3.56,5.48-7.05,7-11.05c1.4-3.64,0.98-4.14,2.09-7.96c0.69-2.41,2.98-7.45,4.02-9.66
	c1.12-2.38,2.25-4.5,3.23-6.86c0.98-2.31,2.19-5.16,3.7-7.04c-1.28,4.22-2.74,7.55-4.1,11.09c-1.74,4.48-6.25,12.68-7.05,21.17
	c2.11-1.62,5.62-6.66,7.25-8.69c2.52-3.1,4.42-8.41,5.57-12.24c1.09-3.68,2.02-7.64,2.63-11.41c0.24-1.46,1.56-6.39,0.33-7.53
	c-1.34-1.23-8.07,5.38-9.3,6.76c-2.37,2.73-4.01,6.16-6.14,9.03c-4.95,6.7-7.85,14.57-10.57,22.27c-2.06,5.97-5.34,11.73-7.16,18.09
	c-0.87,3.06-2.23,6.05-2.88,9.24c-0.43,2.01-0.4,7.43-3.92,6.38c0.11-0.88,0.76-1.53,0.95-2.43c0.24-1.16-0.13-2.23-0.07-3.52
	c0.12-2.2,0.8-4.44,0.93-6.84c0.15-2.36,1.05-4.52,1.62-6.66c0.5-1.97,0.59-4.16,1.19-6.17c1.73-0.63,8.17-2.75,4.5-5.46
	c-1.34,1.2-2.55,3.33-2.7-0.03c-0.09-1.81,1.18-3.73,1.8-5.38c1.12-3.12,1.38-8.18,4.85-9.33c3.65-1.21,4.88-2.77,6.95-5.95
	c2.12-3.27,3.62-6.64,5.27-10.12c3.72-7.96,6.87-15.96,12.34-22.76c3.83-4.77,7.75-9.87,11.53-14.73c-1.66,2.62-4.13,6.51-5.94,9.05
	c-2.19,3.05-3.56,4.17-5.36,6.97c-1.62,2.54-3.37,5.51-4.87,8.27c-1.19,2.21-4.38,9.82,0.46,5.96c2.42-1.94,5.16-3.6,7.41-5.68
	c2.53-2.37,5.19-6.99,6.59-10.16c2.04-4.59,8.26-14.78,4.14-19.42c-1.48,0.8-2.71,2.43-4.14,3.41c-1.63,1.13-3.48,1.88-4.83,3.38
	c-2.94,3.27-4.41,7.16-6.88,10.76c-4.77,6.9-7.16,14.5-11.24,21.59c-1.99,3.45-3.4,6.96-5.31,10.37c-0.91,1.62-1.59,3.84-2.92,5.1
	c-1.49,1.41-2.58,1.5-2.14-0.73c0.34-1.52,1.95-3.39,2.6-4.73c0.81-1.62,1.74-3.58,2.82-5.04c2.62-3.57,4.95-6.48,6.61-10.62
	c0.66-1.64,2.98-6.18,2.63-7.92c-1.43,1.46-3.73,2.53-4.75,4.2c-0.88,1.44-1.26,3.8-2.02,5.45c-1.59,3.44-4.04,6.24-6.19,9.41
	c-1.42,2.08-4.34,10.06-7.08,8.33c-3.23-2.06,1.75-9.69,2.77-12c2.05-4.65,4.74-8.3,7.75-12.23c2.6-3.42,4.3-7.09,6.59-10.66
	c2.43-3.78,5.74-7.87,8.13-11.77c2.29-3.75,1.96-7.69,3.91-11.55c0.88-1.73,4.61-9.88,1.03-9.08c-2.5,0.58-6.3,4.45-7.97,6.27
	c-2.53,2.77-4.66,5.91-6.48,9.18c-1.52,2.7-3.59,7.12-3.84,10.12c-0.05,0.5-2.33,6.84-2.32,7.45c3.27-2.57,6.78-11.75,8.88-15.33
	c1.5-2.56,5.02-8.87,8.27-9.36c-8.87,11.38-14.27,22.21-21.05,35.02c-1.38,2.62-6.64,9.61-7.81,16.88
	c-0.34,2.14-0.86,4.43-1.14,6.42c-0.35,2.38,1.32,3.61,3.64,4.42c0.46,2.08-1.14,3.21-1.98,4.83c-1.05,2.04-0.96,4.45-1.66,6.59
	c-0.59,1.85-1.17,5.53-2.53,6.45c-1.02,0.69-2.35-0.56-2.12,1.36c0.12,1.01,3.27,3.48,0.33,3.96c-1.33,3.84-1.38,8.53-2.09,12.6
	c-0.8,4.51-1.68,8.88-1.6,13.69c-2.48-2.98-4.54-3.95-5.53-7.98c-0.91-3.54-1.38-7.72-1.38-11.47c0-5.34-0.54-10.54,0.42-15.81
	c1.27-7.04,1.72-11.72,2.91-18.79c1.02-6.05,3.55-15.11,7.88-19.8c-1.64,3.39-2.76,4.64-3.59,8.47c-0.76,3.65-1.84,8.68-2.57,12.4
	c-1.75,9-3.91,17.36-3.91,26.87c0,2.55,0.46,4.7,0.73,7.09c0.24,0.1,0.2,4.52,0.43,4.62c1.05-0.91,1.75-2.61,2.06-3.9
	c0.53-2.31,0.97-8.34,1.42-10.68c0.95-4.69,2.39-9.5,3.63-14.12c2.3-8.6,5.47-20.2,7.24-28.92c0.77-3.87,1.18-7.53,1.38-11.71
	c0.05-1.1-0.47-3.7-1.55-4.34c-0.95-0.55-3.36,1.94-4.03,2.73c-4.75,5.55-7.46,12.57-10.16,19.29c-6.45,15.91-8.7,30.09-4.95,47.31
	c0.86,3.88,1.23,11.02,3.09,14.68c0.67,1.34,1.3,2.72,2.38,3.84c1.42,1.48,2.85,1.21,4.38,2.06c2.54,1.42,0.97,2.23,0.68,4.23
	c-0.27,1.8,0.57,3.74,0.91,5.46c0.78,3.91,0.59,9.2,3.16,12.41c0.74,0.95,1.23,0.69,1.61,2.08c0.55,2.07,0.04,4.13,0.79,6.21
	c0.84,2.27,2.41,4.27,3.84,6.18c1.46,1.98,2.6,3.8,3.03,6.24c0.35,1.93-0.45,5.52,0.88,7.04c0.25-0.18-0.88,1.63-0.61,1.46
	c0.97,3.48,0.09,5.05,1.37,8.62c1.26,3.48,4.29,3.25,7.19,4.47c0.1,0.2,0.26,1.09,0.25,1.28c-1.34,0.84-4.61-0.16-6.15-0.41
	c-1.97-0.31-2.84-0.79-3.87-2.59c-1.88-3.28-2.9-7.34-4.38-10.73c-3.89-9.08-6.4-18.55-11.31-27.34c-2.31-4.16-4.53-9.28-6.24-13.73
	c-0.8-2.09-5.41-11.66-8.22-8.78c-1.95,2.01-1,9.15-0.9,11.17c0.2,4.3,0.26,6.54,1.41,11.3c0.91,3.77,1.5,6.3,3.19,9.88
	c1.94,4.17,4.1,9.77,6.47,13.74c2.12,3.54,4.12,5.66,7.06,8.55c1.72,1.7,5.69,8.52,7.31,7.55c0.78-2.3-3.92-9.16-5.65-12.34
	c-2.23-4.07-4.52-8.17-6.45-12.28c-2-4.34-7.39-15.22-9.1-19.69c-1.83-4.69-0.05-3.4-1.05-8.29c-0.18-0.89-0.31-1.74-0.46-2.63
	c1.55,7.76,4.09,15.45,7.98,22.44c4.11,7.38,7.05,15.56,11.59,22.72c2.42,3.82,4.81,7.34,7.24,11.05c2.49,3.73,3.41,8.22,6.53,11.45
	c1.37,1.43,3.02,2.87,4.95,3.53c2.02,0.68,4.11-0.33,5.73,0.92c1.31,1,2.65,3.62,3.74,5c1.55,1.95,2.96,4.09,4.36,6.14
	c0.91,1.34,1.92,3.25,3.38,4c2.09,1.08,4.3,0.28,6.48,0.4c4.59,0.27,7.21,4.38,10.36,7.15c4.43,3.93,9.59,7.2,14.59,10.37
	c1.63,1.05,3.35,1.91,5.07,2.72l-4.91,1.19c-4.38-2.46-8.55-5.3-12.44-8.48c-2.13-1.77-4.17-4.34-6.59-5.6
	c-2.67-1.41-5.88-2.74-8.7-3.87c-3.59-1.44-7.27-3.5-9.95-6.34c-2.77-2.89-3.98-6.83-7.13-9.51c-2.13-1.84-4.93-0.52-7.08-2.41
	c-2.34-2.1-3.87-5.16-6.22-7.33c-2.48-2.25-5.31-4.43-7.6-6.9c-2.83-3.11-6.05-6.71-8.59-10.21c-2.77-3.77-5.4-7.52-7.41-11.35
	c-4.05-7.77-7-14.28-8.27-22.74c-0.59-3.91-0.91-8.18-1.04-12.22c-0.09-2.8-0.68-8.53,1.42-10.47c2.13-1.98,5.45,0.55,6.8,2.39
	c2.23,2.98,3.91,6.56,5.52,9.92c3.41,7.11,5.99,14.05,9.48,21.05c1.54,3.09,2.88,6.36,4.21,9.48c1.06,2.5,1.46,9.51,3.75,11.19
	c1.05-3.27,0.88-10.51-0.7-13.44c-2.98-5.48-6.93-9.76-8.43-15.66c-0.84-3.3-2.02-6.68-3.12-9.98c-1.49-4.51-0.02-10.1-3.83-13.57
	c-1.38-1.27-2.57-2.74-3.37-4.53c-1.61-3.59-2-7.41-2.82-11.25c-0.84-3.87-1.99-7.85-2.37-11.8c-0.44-4.47-0.8-9.05-0.34-13.55
	c0.39-4.18,0.65-8.72,1.48-12.81c1.93-9.55,4-16.08,6.66-21.02c1.45-2.68,3.13-6.43,4.62-9.06c2.12-3.7,4.35-6.88,6.99-10.19
	c1.66-2.07,4.67-5.09,5.89-0.93c0.79,2.65,0.52,5.94,0.38,8.77c-0.1,2.48-0.02,5.44-0.6,7.61c1.82-3.7,2.81-6.58,4.72-10.33
	c4.23-8.31,7.08-18.38,12.23-26.21c2.52-3.84,5.59-7.28,9.49-9.73c1.73-1.09,6.77-4.86,7.03-0.59c0.19,3.16-1.17,6.34-1.95,9.28
	c-0.7,2.74-1.58,5.6-2.66,8.29c-1.02,2.49-2.97,5.02-3.7,7.58c-0.06,0.07-0.06,0.07,0-0.01c0.82-0.87,1.62-1.83,2.42-2.77
	c4.69-5.59,8.93-11.89,13.64-17.56c4.75-5.72,9.88-9.75,15.5-14.3c4.77-3.86,10.97-5.89,16.69-7.69c2.45-0.76,6.85-2.78,10.36,0.45
	c2.32,2.16,0.17,3.8,0.34,6.12c0.19,2.69,2.76,0.41,4.48,1.64c1.09,0.77,0.59,3.34,0.12,4.39c-1.26,2.94-4.26,5.59-6.77,7.41
	c-6.42,4.66-13.12,8.2-19.81,12.05c-3.05,1.77-6.62,2.95-9.55,5.1c-1.31,0.95-2.7,1.8-4.17,2.56c-1.09,0.58-2.84,0.94-3.62,1.95
	c-0.77,1.01-0.75,2.81-1.06,4.05c-0.79,3.16-2.01,6.23-3.7,9.02c-1.23,1.95-2.4,4-3.97,5.72c-0.6,0.69-2.51,1.18-2.88,1.95
	c-0.34,0.72,0.26,2.35,0.23,3.15c-0.23,4.64-1.02,9.24-2.27,13.72c-2.48,8.94-6.82,17.37-12.49,24.74
	c-2.62,3.43-5.64,6.09-8.22,9.52c-2.3,3.05-5.07,5.91-6.96,9.2c-2.5,4.3-5.5,8.3-7.52,12.87c-2.12,4.81-2.27,8.98-1.77,14.18
	c0.15,1.55-0.16,3.26,0.2,4.7c0.4,1.57,1.57,2.77,2.42,4.09c1.06,1.69,0.57,2.38,0.51,4.16c-0.07,1.63,0.74,2.99,1.42,4.3
	c1.27,2.48,1.93,5,3.57,7.17c1.49-2.59,1.84-5.48,3.49-8.02c2.89-4.45,4.84-9.39,7.7-14.09c2.34-3.84,4.43-7.86,5.99-12.08
	c0.76-2.1,1.66-8.52,5.22-7.21c0.94,0.34,1.79,1.38,2.19,2.25c0.39,0.84,0.15,2.16,0.73,2.73c0.88,0.81,3.38,0.22,4.52,0.71
	c1.77,0.77,1.93,1.72,2.04,3.57c0.08,1.55-0.19,2.98-0.5,4.34c-0.1,0.52-0.43,1.56-0.37,2.03c0.16,1.27,0.13,0.61,0.84,1.24
	c1.14,1.02,1.96,1.16,2.43,2.73c0.42,1.42,0.18,3.28,0.18,4.83c0,3.44-0.41,6.66-1.04,9.95c-0.71,3.78-2.3,7.65-3.91,11.09
	c-0.69,1.47-1.66,2.59-2.25,4.11c-0.58,1.52-0.88,3.08-1.46,4.65c-1.18,3.23-2.35,6.26-3.2,9.63c-0.39,1.62-0.41,3.24-0.72,4.84
	c-0.62,3.08-0.04,4.07,2.91,4.51c1.86,0.27,3.38,0.43,3.98,2.53c0.44,1.52,0.16,3.54,0.34,5.13c0.16,1.64,0.46,3.28,0.87,4.87
	c0.7,2.84,1.71,5.42,3.56,7.79c1.55,1.97,3.22,3.53,5,5.34c1.81,1.84,8.02,10.11,11.07,7.37c1.93-1.73,3.52-4.12,6.35-4.21
	c2.3-0.09,4.69,1.03,6.79,1.82c6.27,2.39,12.61,5.62,17.99,9.48c2.31,1.7,3.33,3.9,5.24,5.96c3.18,3.43,8.98-0.53,12.37-1.51
	c1.3-0.38,2.89-0.09,4.3-0.17c2.52-0.14,5.09-2.14,7.28-2.1c3.2,0.05,3.58,3.34,5.81,4.34c0.92,0.41,2.59,0.52,3.62,0.35
	c1.38-0.27,1.06-0.2,1.93-1.52c1.65-2.51,3.24-4.49,5.78-6.23c1.18-0.8,2.31-1.69,3.6-2.29c1.56-0.7,3.51-0.86,5.03-1.49
	c4.02-1.66,7.67-3.97,11.55-5.89c2.25-1.12,8.19-4.77,10.56-2.42c0.95,0.94,0.32,2.55,1.29,3.34c1.44,1.16,5.41-0.98,6.37-2.31
	c0.74-1.02,0.38-2.27,0.72-3.4c0.37-1.21,1.25-2.06,1.95-3.08c2.61-3.84,4.67-7.15,5.67-11.77c0.44-2.06,0.3-4.32,0.3-6.49
	c0-2.52-0.67-3.59,1.52-5.18c1.95-1.41,2.66-1.27,4.82-0.7c0.65-1.18,0.59-2.42,1.12-3.6c0.45-1.01,1.43-1.7,1.8-2.76
	c0.7-2.05-1.02-3.71,0-5.75c0.52-1.04,1.37-1.1,1.21-2.58c-0.11-1.04-0.87-1.95-1.55-2.66c-1.87-1.91-4.51-2.71-6.42-4.56
	c-2.44-2.34-1.53-5.59-2.15-8.56c-0.7-3.33-0.47-4.27,2.58-6.06c3.05-1.79,1.74-4.28,1.91-7.37c0.19-3.84-1.09-5.25-3.09-8.38
	c-1.7-2.62-3.29-4.8-0.73-7.52c1.9-1.98,3.85-3.28,4.98-5.87c0.66-1.46,0.98-2.31,2.8-2.7c1.51-0.32,2.59,0.74,4.01,0.88
	c1.12,0.09,1.98-0.52,3.13-0.3c2.05,0.39,3.67,2.88,4.27,4.7c0.88,2.8,0.64,5.84,0.64,8.88c0,1.78,0,3.56-0.18,5.3
	c-0.09,1.05-0.78,3.55-0.34,4.48c0.68,1.46,2.55,0.68,3.77,1.24c0.98,0.45,1.78,1.41,2.41,2.24c2.16,2.94,2.49,0.39,5.04-0.73
	c1.12-0.48,2.62-0.48,3.77-1.02c1.45-0.69,1.42-1.66,1.73-3.13c0.98-4.9,1.88-9.84,2.05-14.83c0.07-2.07,0.12-3.83-1.03-5.62
	c-0.91-1.42-2.42-2.47-2.95-4.15c-0.75-2.51-1.27-4.43-3.02-6.59c-1.82-2.21-3.84-4.34-5.41-6.67c-1.21-1.78-2.58-3.48-3.75-5.28
	c-0.86-1.3-1.1-2.67-1.72-4.09c-1.66-3.87-4.62-7.19-7.81-9.88c-1.3-1.1-2.94-1.26-4.48-1.89c-1.51-0.61-2.39-1.59-3.56-2.64
	c-2.52-2.23-6.52-2.22-6.72-6.19c-0.09-1.77-0.02-2.96,1.02-4.31c0.91-1.2,1.9-1.57,1.25-3.31c-0.96-2.67-3.91-4.27-2.42-7.71
	c0.52-1.17,1.67-1.69,2.08-2.93c0.53-1.63-0.48-2.98-0.21-4.66c0.2-1.29,1.04-2.42,1.25-3.66c0.22-1.34,0.54-2.47,1.66-3.35
	c-2.41-0.9-4.86-0.04-7.2-1.38c-3.52-2.03-2.8-6.58-6.78-8.17c-1.83-0.73-6.34-1.2-5.62-4.1c0.52-2.14,5.94-2.59,4.05-5.5
	c-1.39-2.15-5.31-2.78-7.48-3.94c-3.05-1.63-2.11-5.46-5.88-6.23c-1.77-0.35-3.36-0.06-3.62-2.23c-0.11-0.8,0.63-1.83-0.16-2.42
	c-0.62-0.46-2.06,0.23-2.79,0.35c-1.68,0.24-3.7,0.86-5.34,0.16c-1.56-0.66-2.1-2.02-3.75-2.27c-1.98-0.33-3.9,0.19-3.98-2.38
	c-0.04-1.65,1.18-2.91-0.98-3.84c-1.56-0.69-3.11,0.51-4.63,0.44c-1.41-0.07-2.04-1.41-2.96-2.34c-0.99-0.97-1.72-1.41-1.77-2.89
	c-0.04-1.41,0.11-2.16-1.06-3.13c-1-0.83-2.84-0.84-3.38-2.23c-0.67-1.71-0.62-5.18,1.27-6.08c1.73-0.8,3.93,0.38,5.76-0.26
	c2.73-0.94,0.05-3.1,4.44-2.69c1.41,0.12,2.78-0.27,3.95,0.45c1.48,0.95,1.98,0.55,3.66,0.86c1.25,0.22,2.48,1.53,3.8,1.38
	c1.38-0.16,1.93-1.4,3.62-0.92c1.87,0.54,4.66,2.15,6.17,3.34c1.87,1.42,4.04,2.95,5.34,4.85c0.51,0.72,1.13,2.46,1.85,2.95
	c1.11,0.72,1.27-0.12,2.33-0.55c3.36-1.36,3.72,1.36,5.16,3.56c0.32,0.48,5.09-0.58,5.92-0.45c1.88,0.28,3.57,1.15,5.02,2.34
	c1.01,0.83,1.77,1.7,3.04,1.82c1.56,0.14,2.54-1.23,3.91-1.31c2.59-0.16,4.7,2.8,5.36,5.06c0.39,1.38,0.82,2.63,1.47,3.99
	c0.52,1.12,0.55,2.77,1.38,3.57c2.38-1.22,4.87-3.8,6.29,0.11c0.5,1.41,0.64,2.73,1.44,4.2c0.81,1.52,1.48,2.62,1.88,4.25
	c0.42,1.63,0.46,3.02,0.52,4.72c0.05,1.83,0.18,2.66,1.86,1.99c1.44-0.59,1.8-1.91,3.21-2.02c1.14-0.08,2.38,0.8,3.15,1.59
	c1.47,1.51,2.13,1.94,3.64,3.34c0.77,0.7,1.05,3.22,1.94,3.66c1.41,0.69,3.17-0.01,4.03,1.36c1.04,1.66,2.4,3.77,3.08,5.58
	c0.91,2.42-0.18,4.97-0.18,7.42c2.2-0.3,5.33-0.87,6.2,1.88c0.39,1.2,0.49,3.05,0.54,4.32c0.14,2.77,2.09,5.94,1.37,8.62
	c-0.23,0.84-0.98,2.17-0.52,3.05c0.67,1.23,1.53,0.4,2.59,0.41c1.6,0.03,2.57,0.93,3.24,2.34c1.36,2.81,1.18,6.65,0.74,9.68
	c-0.3,2.02-1.42,2.65-2.12,4.43c-0.75,1.87,0.69,2.06,1.94,3.36c2.64,2.73-1.15,5.64-2.45,8.12c-0.7,1.33-1.45,2.98-1.41,4.52
	c0.05,1.34,1.02,3.57,0.18,4.88c-0.49,0.78-1.2,0.41-1.73,0.96c-0.57,0.59-0.25,0.77-0.5,1.55c-0.59,1.96-0.5,4.38-2.17,5.77
	c-1.19,1.01-2.75,0.74-2.68,2.8c0.1,3.02,4.03,1.13,5.52-0.01c1.68-1.3,2.11-0.54,3.92-0.97c1.59-0.36,2.27-1.98,4.2-1.19
	c1.91,0.8,3.47,5.84,3.55,7.94c0.06,1.58-1.54,2.69-1.37,4.08c0.16,1.11,0.81,0.72,1.52,1.47c0.63,0.64,1.05,1.83,1.18,2.69
	c0.52,3.12-2.32,5.7-3.54,8.27c1.2,1.18,2.12,1.52,1.57,3.41c-0.48,1.67-1.98,2.27-2.88,3.58c-1.16,1.72-0.41,6.14-0.67,8.56
	c-0.32,2.98-1.32,5.89-2.86,8.43c-0.8,1.3-1.51,2.65-2.32,3.95c-0.63,1.04-2.09,2.35-2.47,3.44c-0.66,1.85,1.72,3.46,1.37,5.55
	c-0.34,2.06-2.52,4.48-3.87,6.05c-1.14,1.34-2.47,2.64-3.71,3.87c-1.18,1.17-2.39,1.82-3.63,2.84c-1.85,1.56-0.05,2.52-0.41,4.8
	c-0.25,1.56-1.36,2.49-2.66,3.38c-2.68,1.81-6.11,1.6-8.8,2.95c-1.3,0.67-2.37,1.83-3.59,2.57c-2.71,1.64-5.95,0.69-8.73,1.73
	c-1.28,0.48-2.2,1.73-2.99,2.8c-0.99,1.4-1.73,2.93-2.85,4.22c-1.03,1.2-2.28,2.18-3.04,3.58c-1.91,3.48-3.31,6.45-5.99,9.4
	c-1.2,1.35-2.16,1.72-3.85,1.89c-1.96,0.21-2.02,0.89-3.52,2.12c-3.08,2.49-6.56,4.34-9.48,7.09c-1.71,1.61-2.3,2.12-4.62,2.45
	c-1.31,0.18-3.65,0.19-3.71,1.59c-0.12,2.19,4.05,3.51,4.7,4.7L1230.81,257.91z M1231.73,286.46c2.06,2.27,4.83,4.66,7.39,6.48
	c3.41,2.44,6.97,5.04,11.12,6.07c1.12,0.27,2.85,0.57,3.37,1.76c1.38,3.11-2.86,3.52-4.64,4.72c-1.19,0.79-2.47,1.38-3.77,1.99
	c-3.09,1.48-6.47,3.37-10.09,1.86c-1.4-0.61-2.94-1.63-3.73-2.88c-1.12-1.8-0.88-2.46-3.16-3.05c-3.11-0.77-4.53-4.21-6.83-6.39
	c-2.36-2.29-5.08-4.15-7.53-6.41c-2.56-2.36-5.95-4.84-7.7-7.67c-0.82-1.31-1.53-2.6-2.31-3.78l10.05,3.28
	c0.89,1.74,1.8,3.45,2.91,5.02c2.55,3.56,5.83,5.78,9.13,8.36c2.16,1.67,3.94,4.07,6.46,5.23c1.61,0.75,6.82,1.12,7.28-1.47
	c0.2-1.09-2.55-3.73-3.29-4.62c-2.51-3.2-6.16-4.53-9.06-7.39c-0.61-0.59-1.25-1.23-1.93-1.92L1231.73,286.46z M1187.13,282.36
	c-2.65,1.26-5.58,3.65-7.81,5.53c-0.62,0.53-1.19,1.04-1.84,1.53c-1.36,0.96-0.98,0.34-1.36,1.86c-0.41,1.6-0.27,1.42-1.52,2.57
	c-0.44,0.42-0.75,1.02-1.33,1.3c-0.43,0.2-0.88-0.29-1.19-0.12c-0.88,0.46-1.38,1.59-2.21,2.16c-0.77,0.56-1.74,0.7-2.53,1.19
	c-1.25,0.77-1.9,1.57-2.39,2.86c-0.57,1.52-0.49,2.95-1.67,4.16c-1.3,1.36-3.14,1.73-4.55,2.76c-1.23,0.88-1.38,2.31-2.31,3.2
	c-1,1.01-3.88,1.41-5.18,1.52c-2.8,0.24-6.31-0.79-8.2-2.81c-0.88-0.94-1.33-2.51-2.64-3.08c-1.65-0.73-2.91,0.05-3.59-2.02
	c-0.33-1.07-0.19-3.2,0.52-4.09c0.78-1,3.14-0.89,4.61-1.43c2.99-1.09,4.59-3.39,7.18-5.1c1.5-0.99,2.79-2.23,4.41-3.08
	c1.73-0.88,3.69-1.45,5.2-2.68c0.58-0.5,1.05-1.08,1.5-1.66l5.78-0.98c-0.95,1.88-3.89,2.21-5.87,3.19
	c-1.12,0.56-2.12,1.64-3.34,2.23c-1.55,0.76-3.19,1.22-4.77,1.84c-0.11,0.89,0.25,1.72,0.84,2.35c-1.68,1.27-3.96,1.05-5.73,2.27
	c-1.52,1.06-3.34,3.3-5.29,3.59c-0.23,1.98,4.16,1.67,5.55,1.74c3.02,0.13,4.2-1.23,6.62-2.66c3.74-2.27,7.06-6.55,12.07-8
	c5.53,2.67-7.02,5.7-9.41,9.78c0.12,0.27-2.23,0.88-1.99,1.06c1.32-0.8,2.45-2.26,3.79-3.26c1.39-0.98,4.94-2.37,6.27-3.21
	c2.66-1.62,3.84-3.45,5.86-5.9c1.87-2.3,3.07-4.74,5.93-6.88c0.94-0.7,1.88-1.41,2.84-2.15L1187.13,282.36z"/>
<path class="st1" d="M1216.25,270.22c0,0,0.47,3.2-0.68,4.59c-1.16,1.38-4.81,2.75-5.74,3.46c-0.92,0.69-0.93,1.6,0.23,2.3
	c1.15,0.68,20.21,5.27,28.25,6.41c8.02,1.15,20.89,2.06,25.72,2.29c4.81,0.23,13.55,0,15.84-1.38c2.28-1.38,13.31-8.72,16.52-11.03
	c3.22-2.29,17.23-11.7,18.84-13.32c1.6-1.6,4.14-5.74,4.6-6.88c0.46-1.16,0.91-2.98,0.68-4.14c-0.22-1.14-4.12-13.79-5.05-16.06
	c-0.9-2.31,0-4.38-0.9-5.06c-0.93-0.69-0.93,1.62-1.62,2.53c-0.69,0.92-2.75,1.38-3.89,2.29c-1.16,0.93-9.43,5.75-10.8,6.9
	c-1.38,1.14-21.59,16.77-24.12,18.82c-2.52,2.07-5.97,1.85-8.51,2.07c-2.52,0.23-17.22-2.07-21.58-2.52
	c-4.37-0.47-21.12-4.83-22.95-5.28c-1.84-0.47-9.66-0.7-11.26-0.7s-2.3,1.16-2.3,1.16C1209.37,259.2,1216.25,270.22,1216.25,270.22
	 M1070.45,247.03c-0.25,2.76-3.45,8.97-3.91,10.34c-0.46,1.38,1.14,4.14,1.59,4.81c0.46,0.7,4.13,5.74,6.44,7.11
	c2.3,1.4,13.08,8.28,16.53,10.12c3.45,1.84,17.23,12.41,21.12,13.33c3.9,0.91,28.48-2.3,33.98-3.46c5.52-1.14,19.52-4.81,24.57-5.96
	c5.06-1.14,20.68-5.96,21.59-6.44c0.91-0.45,2.99,0,3.44-2.98c0.46-2.98-2.98-15.14-2.98-16.08c0-0.91-1.38-1.35-1.38-1.35
	l-25.28,0.22c0,0-3.2-0.22-6.42,0.69c-3.2,0.91-17.23,4.81-20.66,5.51c-3.45,0.68-19.3,2.52-20.45,2.76
	c-1.13,0.22-4.83,0.68-6.43-0.7c-1.61-1.38-19.52-14.23-22.97-16.75s-17.2-10.1-17.2-10.1
	C1071.13,237.6,1070.67,244.27,1070.45,247.03z M1078.01,239.9c0,0,12.41,6.9,17.23,9.88c4.82,2.98,16.07,13.09,18.38,14.02
	c2.28,0.91,15.84-0.7,19.97-1.38c4.14-0.7,13.32-2.77,16.78-3.67c3.42-0.94,8.94-3.23,9.63-3.69c0.7-0.46,30.31-0.91,31.7-0.46
	c1.36,0.46,1.82,0.92,2.05,1.63c0.23,0.67,2.3,8.95,2.52,9.86c0.23,0.93,2.77,7.58,2.3,8.97c-0.47,1.38-3.91,5.05-5.29,5.96
	c-1.38,0.92-0.91-1.84-0.91-1.84s-2.06,0.46-2.76,1.39c-0.69,0.91-1.16,1.6-0.69,2.3c0.45,0.67,4.82,3.2,6.44,2.76
	c1.61-0.47,8.73-7.35,9.41-8.27c0.69-0.92,2.3-3.46,2.3-3.46l1.16,2.08c0,0,2.28-0.48,3.42-1.84c1.16-1.38,2.09-3.22,1.16-4.59
	c-0.93-1.38-8.95-14.48-10.56-15.39c-1.59-0.91-4.84-0.91-5.98-1.16c-1.16-0.22-5.28-0.69-6.2-0.22l-2.99,3.23l-3.66-0.71l2.28-2.52
	c0,0,0.7-0.69,1.85-0.91c1.15-0.24,5.96-0.24,8.49-0.93s3.21-1.6,4.13-0.92c0.92,0.7,3.91,3.44,5.52,4.14
	c1.59,0.69,5.51-0.45,7.34,0c1.84,0.45,8.73,0.69,10.1,1.14c1.39,0.47,7.37,2.08,10.12,2.52c2.75,0.46,14,3.46,20.42,3.46
	c6.43,0,15.85,0.68,16.55,0.68c0.67,0,16.76-12.16,17.91-12.62c1.14-0.47,19.75-14.24,19.75-14.24s-0.46-2.05-1.16-2.75
	c-0.68-0.7,0.23-0.92-1.83-1.16c-2.06-0.23-11.48-0.45-11.48-0.45l-1.84-1.84l0.23-1.6h2.53c0,0,0.91-1.38,0.44-2.07
	c-0.44-0.69-2.04-1.16-3.2,0c-1.14,1.14-2.05,3.2-1.38,3.91c0.69,0.7,3.45,0.23,3.45,0.23s-2.52,0.46-2.52,1.37
	c0,0.91,0,14.23,0,14.93c0,0.67,0,2.52,0,2.52l-2.77,2.06c0,0,1.38-17.45,1.16-18.6c-0.24-1.16-2.06-2.52-1.16-4.6
	c0,0,1.16-3.2,2.77-3.89c1.61-0.7,4.81-1.6,5.27-0.91c0.47,0.67-0.45,4.8,0.7,5.72c1.15,0.93,2.05,1.4,3.9,1.4s10.34-0.47,11.48,0
	c1.15,0.46,4.35,0.67,4.82,2.05s-0.47,2.3-0.23,3.67c0.23,1.39,4.58,14.92,5.51,16.31c0.91,1.38,2.05,2.3,1.84,3.2
	c-0.23,0.92-4.36,6.91-5.05,8.05c-0.69,1.15-2.07,3.43-2.98,4.12c-0.93,0.7-34.45,23.43-35.38,23.65
	c-0.93,0.23-20.66,1.16-23.63,0.91c-3.01-0.22-20.45-2.52-21.14-2.29c-0.69,0.23-25.73-5.05-30.54-8.27
	c-4.81-3.21-1.84,0.47-2.75,1.16c-0.93,0.7-5.52,5.29-6.22,5.74c-0.68,0.45-2.98-0.46-2.98-0.46s-6.2-3-7.58-3.68
	c-1.38-0.67-11.95,0.68-15.62,1.84c-3.68,1.14-16.52,4.59-21.11,5.73c-4.59,1.16-24.12,3.67-26.64,3.91
	c-2.53,0.24-11.02,0.69-11.95,0.24c-0.92-0.48-15.61-10.8-18.14-12.62c-2.53-1.86-14.01-8.51-16.77-10.13
	c-2.76-1.59-8.73-8.7-8.73-8.7s-3.21-3.46-2.98-5.53c0.22-2.05,1.37-2.27,2.75-5.97c1.38-3.67,2.29-11.02,2.29-12.85
	c0-1.85,0-3.67,0.91-4.13c0.94-0.45,4.38-0.91,6.45-0.91c2.06,0,11.24,0,12.87-0.46c1.59-0.45,1.12-4.12,0.91-5.05
	c-0.23-0.93,0.22-2.98,1.16-2.76c0.92,0.23,6.2,3.69,6.64,4.81c0.47,1.16,0.7,2.09,0,4.84c-0.68,2.76-0.68,7.57-0.45,8.73
	c0.23,1.14,0.68,5.49,0.68,6.19s0,2.29,0,2.29l-3.45-2.06c0,0,0.47-14.23,0.7-14.91c0.23-0.7,0.92-2.07,0.69-3.46
	c-0.23-1.38-1.61-0.67-2.06,0.7s-1.38,2.3-4.37,2.3c-2.98,0-11.7-0.69-12.16,0.46C1077.33,237.16,1076.87,239.21,1078.01,239.9z"/>
<path class="st1" d="M1234.24,196.62l-45.12-30.95l-45.17,30.95l16.56-54.11l-44.99-32.82l55.2-0.06l18.39-53.23l18.37,53.23
	l55.18,0.06l-44.97,32.82L1234.24,196.62z M1128.91,114.05l36.7,26.76l-13.82,45.14l37.33-25.58l37.28,25.58l-13.81-45.14
	l36.68-26.76l-44.91-0.05l-15.26-44.21L1173.83,114L1128.91,114.05z"/>
<path class="st1" d="M1196.92,242.92c-0.04,0-0.04-0.01-0.11,0c-0.25,0-6.32-0.05-6.32-0.05c-0.02,0-6.13-0.12-6.35-0.13l0,0
	c-0.8,0-1.58-0.31-2.12-0.86c-0.37-0.38-0.8-1.04-0.78-2.09l0.09-7.07c0-0.04-0.01-0.08-0.02-0.13c-0.52-0.14-1.99-0.46-5.98-1.12
	l-0.22-0.04c-2.88-0.47-4.88-0.73-5.59-0.77c-0.03,0.06-0.05,0.11-0.06,0.13c-0.01,0.03-2.07,6.12-2.27,6.72
	c-0.55,1.64-2.09,2.41-3.74,1.89c-0.27-0.09-3.73-1.19-6-1.92c-0.98-0.32-5.87-1.89-6.07-1.96c-0.76-0.24-1.4-0.75-1.75-1.44
	c-0.24-0.47-0.46-1.24-0.13-2.25c0.21-0.61,2.23-6.74,2.23-6.74c0.01-0.03,0.02-0.08,0.03-0.13c-0.47-0.29-1.85-1.04-5.34-2.78
	l-1.38-0.69c-1.09-0.55-3.49-1.75-4.38-2.11c-0.06,0.05-0.12,0.12-0.14,0.14c-0.15,0.2-3.89,5.22-4.29,5.72
	c-0.52,0.7-1.28,1.14-2.12,1.19c-0.69,0.03-1.4-0.18-2-0.63c-0.16-0.12-5.1-3.65-5.1-3.65c-0.01,0-4.82-3.49-5.07-3.67
	c-0.68-0.46-1.14-1.13-1.26-1.9c-0.09-0.53-0.06-1.35,0.6-2.23c0.36-0.51,4.1-5.51,4.26-5.72c0.01-0.02,0.04-0.06,0.05-0.1
	c-0.42-0.43-1.36-1.25-2.02-1.82c-0.79-0.69-1.6-1.4-2.22-1.99c-0.42-0.41-0.94-0.95-1.49-1.52c-0.89-0.92-2.32-2.38-2.91-2.88
	c-0.06,0.03-0.13,0.07-0.18,0.1c0,0-5.3,3.89-5.82,4.28l-1.67-2.24c0.52-0.39,5.84-4.3,5.84-4.3c0.26-0.19,1.62-1.11,2.95-0.45
	c0.54,0.25,1.39,1.06,3.8,3.54c0.54,0.55,1.05,1.08,1.44,1.47c0.55,0.53,1.34,1.22,2.1,1.89c1.81,1.58,2.51,2.22,2.8,2.77
	c0.66,1.31-0.23,2.66-0.42,2.92c-1.09,1.46-3.95,5.29-4.25,5.71c-0.04,0.06-0.07,0.1-0.08,0.12c0.01,0,0.03,0.02,0.06,0.04
	c0.18,0.12,3.98,2.87,5.13,3.71c0,0,4.96,3.54,5.13,3.67c0.07,0.05,0.13,0.08,0.15,0.08c0-0.01,0.04-0.04,0.08-0.1
	c0.33-0.42,3.2-4.25,4.27-5.7c0.2-0.26,1.22-1.5,2.63-1.3c0.64,0.12,1.83,0.67,5.38,2.45l1.37,0.69c4.75,2.37,5.82,3,6.21,3.39
	c1.06,1.01,0.61,2.6,0.51,2.9c0,0-2.03,6.15-2.23,6.75c-0.02,0.05-0.02,0.08-0.02,0.1c0.02-0.01,0.06,0.02,0.13,0.04
	c0.31,0.11,6.05,1.96,6.05,1.96c1.75,0.55,5.85,1.86,6.04,1.93c0.05,0.02,0.12,0.01,0.14,0.01c-0.01,0,0.02-0.04,0.04-0.12
	c0.19-0.59,2.27-6.71,2.27-6.71c0.09-0.28,0.66-1.84,2.14-2.04c0.23-0.04,0.93-0.15,6.63,0.79l0.22,0.04
	c5.74,0.95,6.58,1.23,6.99,1.45c1.3,0.6,1.35,2.27,1.35,2.6l-0.09,7.09c0,0.05,0,0.08,0,0.1c0.01-0.01,0.06,0,0.15,0
	c0.32,0.01,6.32,0.12,6.34,0.13l0,0c0.01,0,6.11,0.05,6.32,0.05c0.09,0.01,0.15-0.01,0.18-0.01c0-0.01,0-0.05,0-0.09
	c0.02-0.54,0.1-4.87,0.13-7.08c0-0.32,0.1-1.95,1.43-2.59c0.51-0.25,1.8-0.49,5.44-1.1c0.94-0.16,1.79-0.3,2.29-0.4
	c0.29-0.06,0.67-0.13,1.12-0.22c3.03-0.62,4.48-0.89,5.13-0.83c1.17,0.08,1.95,1.11,2.26,1.97l0,0c0,0,2.39,5.93,2.63,6.52
	c0.03,0.08,0.07,0.12,0.08,0.13c-0.01-0.01,0.06-0.01,0.16-0.05c0.19-0.08,4.96-1.76,7-2.49c0,0,4.57-1.97,4.76-2.05
	c0.1-0.04,0.15-0.07,0.18-0.08c-0.01-0.01-0.02-0.05-0.03-0.09l-2.61-6.6c-0.11-0.27-0.69-1.82,0.33-2.92
	c0.41-0.45,1.19-0.83,4.08-2.12c1.13-0.5,2.3-1.03,2.92-1.36c0.52-0.28,1.1-0.61,1.68-0.94c1.91-1.09,2.76-1.55,3.41-1.66
	c1.48-0.2,2.46,1.07,2.65,1.33l0,0c0,0,3.83,5.26,4.2,5.78c0.03,0.05,0.08,0.08,0.09,0.08c0,0,0.07-0.02,0.18-0.09
	c0.02-0.02,0.17-0.13,7.45-4.43c3.28-2.58,4.01-3.14,4.21-3.29l0,0c0.05-0.04,0.09-0.07,0.11-0.09c-0.01-0.01-0.03-0.04-0.05-0.08
	c-0.37-0.51-4.16-5.78-4.16-5.78c-0.19-0.26-1.1-1.64-0.4-2.94c0.6-1.04,5.85-5.31,5.91-5.36c0.84-0.69,2.26-2.26,3.39-3.52
	c1.51-1.67,1.93-2.12,2.33-2.35c1.3-0.73,2.7,0.1,2.97,0.27c0,0,3.4,2.21,5.11,3.31l-1.51,2.36c-1.71-1.1-5.13-3.32-5.13-3.32
	c-0.04-0.02-0.09-0.05-0.15-0.07c-0.35,0.35-1,1.08-1.55,1.68c-1.26,1.4-2.69,2.98-3.71,3.82c-1.13,0.9-4.14,3.47-5.06,4.39
	c0.02,0.04,0.05,0.08,0.07,0.12c0.01,0.01,3.78,5.25,4.15,5.76c0.62,0.86,0.65,1.65,0.56,2.17c-0.12,0.75-0.57,1.44-1.26,1.93
	l-0.08,0.06c-0.2,0.15-2.63,2.05-4.1,3.21l-0.15,0.11c-2.79,1.65-7.06,4.18-7.38,4.39c-1.4,0.96-3.09,0.69-4.11-0.67
	c-0.39-0.55-4.19-5.78-4.2-5.78c-0.03-0.04-0.08-0.09-0.13-0.14c-0.44,0.21-1.52,0.83-2.27,1.25c-0.6,0.34-1.21,0.69-1.74,0.98
	c-0.71,0.38-1.87,0.9-3.11,1.45c-0.96,0.43-2.34,1.04-2.97,1.38c0.01,0.02,0.01,0.04,0.02,0.06l2.62,6.62c0.39,1,0.21,1.78,0,2.27
	c-0.32,0.71-0.93,1.25-1.72,1.54c-0.15,0.06-4.75,2.05-4.75,2.05c-2.73,0.97-6.75,2.39-7,2.49c-1.6,0.63-3.19-0.04-3.85-1.63
	c-0.25-0.6-2.66-6.59-2.66-6.59c-0.02-0.05-0.05-0.11-0.07-0.16c-0.83,0.09-3.11,0.56-4.14,0.77c-0.45,0.09-0.85,0.17-1.14,0.23
	c-0.52,0.1-1.39,0.25-2.36,0.41c-1.42,0.24-3.69,0.62-4.51,0.82c-0.01,0.06-0.02,0.12-0.02,0.17c0,0.25-0.11,6.44-0.13,7.08
	c-0.01,1.02-0.46,1.68-0.85,2.05C1198.46,242.64,1197.73,242.92,1196.92,242.92z M1088.56,175.62c-0.07-0.16-0.8-2.16-2.18-5.95
	c-0.78-2.21-1.98-5.57-2.08-5.82c-0.3-0.85-0.27-1.67,0.07-2.36c0.23-0.48,0.73-1.12,1.76-1.46c0.62-0.2,6.89-2.34,6.89-2.34
	c0.05-0.02,0.12-0.05,0.18-0.08c-0.05-0.45-0.23-1.79-0.92-5.42l-0.17-0.85c-0.22-1.09-0.85-4.22-1.14-5.2
	c-0.07-0.01-0.14-0.02-0.2-0.02c-2.3,0.07-6.79,0.2-7.3,0.23c-1.75,0.06-3.02-1.12-3.11-2.83c-0.01-0.39-0.21-6.21-0.21-6.21
	l2.8-0.1c0.06,1.81,0.21,6.03,0.21,6.24c0,0.04,0.03,0.09,0.04,0.11c-0.01-0.01,0.04,0,0.13,0c0.01,0,0.02,0,0.03,0
	c0.63-0.03,7.05-0.22,7.33-0.23c0.31-0.02,1.97,0,2.68,1.29c0.26,0.43,0.54,1.44,1.49,6.17l0.17,0.86c1.07,5.63,1,6.19,0.96,6.52
	c-0.21,1.49-1.77,2.08-2.08,2.18l0,0c0,0-6.29,2.14-6.91,2.34c-0.06,0.02-0.1,0.04-0.12,0.05c0.01,0.01,0.02,0.06,0.04,0.13
	c0.05,0.11,1.17,3.25,2.09,5.86c0.76,2.1,2.01,5.53,2.11,5.8L1088.56,175.62z M1295.39,165.84l-2.64-0.93
	c0.54-1.52,1.7-4.77,1.79-4.98c0-0.02,0.01-0.05,0.01-0.07c-0.01,0-0.05-0.02-0.1-0.04c-0.64-0.23-6.8-2.41-6.8-2.41
	c-0.29-0.1-1.82-0.7-2.01-2.17c-0.07-0.52,0.07-1.84,1.01-7.58l0.1-0.59c0.08-0.51,0.21-1.38,0.34-2.34
	c0.49-3.54,0.69-4.8,0.92-5.32c0.61-1.33,2.24-1.47,2.56-1.48l0,0c0,0,6.56-0.33,7.21-0.35c0.07,0,0.11-0.01,0.13-0.02
	c-0.01-0.01,0-0.06,0-0.13c-0.01-0.25-0.08-2.02-0.15-3.61l-0.04-1l2.8-0.12l0.04,1c0.12,2.85,0.15,3.54,0.15,3.66
	c0.04,0.76-0.22,1.54-0.74,2.1c-0.36,0.39-1.01,0.87-2.07,0.91c-0.65,0.02-7.19,0.35-7.19,0.35c-0.05,0-0.12,0.02-0.19,0.03
	c-0.15,0.73-0.46,2.96-0.65,4.36c-0.14,0.99-0.26,1.89-0.35,2.41l-0.1,0.6c-0.58,3.56-0.91,5.77-0.98,6.58
	c0.05,0.03,0.1,0.05,0.15,0.07l0,0c0,0,6.19,2.18,6.79,2.4c0.98,0.32,1.47,0.96,1.7,1.44c0.34,0.69,0.37,1.5,0.09,2.29
	C1297.07,161.15,1295.99,164.15,1295.39,165.84z M1289.81,125.15c-0.52,0-1.91-0.11-2.54-1.26c-0.31-0.54-0.89-2.91-1.71-7.03
	c-0.07-0.27-0.17-0.8-0.27-1.4l2.76-0.46c0.09,0.52,0.17,0.96,0.24,1.25c0.55,2.77,1.11,5.25,1.37,6.09
	c0.07,0.01,0.14,0.02,0.19,0.01c0,0,1.41-0.05,2.98-0.12l0.12,2.8c-1.58,0.07-2.99,0.13-2.99,0.13
	C1289.93,125.15,1289.88,125.15,1289.81,125.15z M1263.27,71.21c-0.3,0-0.61-0.06-0.92-0.2c-0.56-0.26-1.21-0.9-2.81-2.55
	c-0.73-0.76-1.49-1.54-2.09-2.08c-0.45-0.42-1.05-0.95-1.68-1.5c-2.49-2.21-3.32-2.98-3.61-3.54c-0.71-1.31,0.21-2.69,0.4-2.95
	c0,0,1.92-2.69,3.15-4.44l2.29,1.61c-1.23,1.75-3.16,4.46-3.16,4.46c-0.03,0.04-0.05,0.09-0.08,0.14c0.48,0.5,1.95,1.8,2.88,2.62
	c0.65,0.57,1.26,1.12,1.72,1.54c0.66,0.6,1.44,1.41,2.21,2.19c0.62,0.64,1.43,1.47,1.85,1.84c0.06-0.03,0.12-0.06,0.16-0.1
	l1.68,2.24C1265.04,70.64,1264.22,71.21,1263.27,71.21z M1120.15,70.1l-1.84-2.11c1.06-0.92,4.17-4.03,4.97-4.99
	c-0.03-0.06-0.06-0.11-0.09-0.16l0,0c0,0-0.82-1.14-1.76-2.42l2.26-1.65c0.94,1.29,1.77,2.44,1.77,2.44
	c0.19,0.26,1.11,1.63,0.42,2.95C1125.37,65.16,1120.75,69.57,1120.15,70.1z M1138.25,54.86c-1.21,0-2.08-1.1-2.26-1.34l0,0
	c0,0-3.86-5.26-4.25-5.78c-0.06-0.08-0.1-0.11-0.11-0.12c0,0.01-0.05,0.03-0.12,0.08l-0.12,0.08c-0.04,0.03-0.34,0.25-0.75,0.54
	l-1.31,0.94l-1.63-2.28l1.3-0.94c0.39-0.28,0.7-0.5,0.86-0.61l0,0c1.4-1.01,3.09-0.76,4.12,0.63c0.38,0.5,4.27,5.8,4.27,5.8
	c0.03,0.04,0.07,0.08,0.11,0.12c0.71-0.33,2.54-1.4,3.58-2.01c0.62-0.36,1.2-0.7,1.63-0.94c0.46-0.26,1.08-0.59,1.75-0.94
	c1.05-0.56,2.73-1.45,3.38-1.88c-0.01-0.06-0.03-0.11-0.04-0.13l-2.7-6.7c-0.4-0.96-0.24-1.75-0.04-2.24
	c0.3-0.71,0.9-1.28,1.68-1.59c0.47-0.21,2.43-1.01,5.82-2.4c1.35-0.54,5.73-2.31,5.94-2.39c0.73-0.3,1.55-0.31,2.26-0.01
	c0.49,0.21,1.16,0.66,1.56,1.64c0.24,0.6,2.72,6.65,2.72,6.65c0.02,0.05,0.06,0.11,0.1,0.17c0.72-0.09,2.97-0.53,6.65-1.32
	l0.59-0.12c0.52-0.11,1.39-0.27,2.36-0.45c1.42-0.26,3.69-0.68,4.5-0.89c0.01-0.06,0.02-0.13,0.02-0.18c0-0.01,0.02-6.54,0.02-7.2
	c0-1.71,1.25-2.95,2.96-2.95c0.22,0,6.33-0.02,6.33-0.02c0.01,0,6.11,0.02,6.31,0.02c1.76,0,2.99,1.21,2.99,2.95
	c0,0.66,0.02,7.21,0.02,7.21c0,0.05,0.01,0.12,0.02,0.18c0.51,0.12,2.02,0.41,5.8,1.01l0.4,0.06c3.37,0.52,5,0.68,5.59,0.71
	c0.03-0.06,0.06-0.13,0.07-0.15c0,0,1.97-6.25,2.16-6.87c0.32-1.02,0.95-1.53,1.42-1.77c0.68-0.36,1.5-0.41,2.3-0.15l6.01,1.85
	c2.28,0.72,5.75,1.82,6.01,1.89c1.71,0.54,2.51,2.06,2.01,3.71c-0.19,0.61-2.13,6.88-2.13,6.88c-0.01,0.05-0.02,0.12-0.03,0.18
	c0.48,0.29,1.85,1.04,5.7,2.92c0.39,0.19,0.89,0.44,1.46,0.72c1.07,0.53,3.18,1.58,3.99,1.89c0.05-0.04,0.09-0.1,0.13-0.14
	c0,0,3.8-5.31,4.17-5.83c0.62-0.87,1.37-1.16,1.9-1.25c0.76-0.13,1.57,0.07,2.26,0.56l0.13,0.1c0.04,0.03,0.44,0.3,0.96,0.67
	c0.54,0.38,1.21,0.85,1.84,1.31l-1.63,2.28c-0.63-0.45-1.3-0.92-1.83-1.3c-0.76-0.54-1.01-0.71-1.12-0.8
	c-0.07-0.05-0.12-0.06-0.14-0.06c0.01,0-0.03,0.03-0.07,0.1c-0.37,0.52-4.19,5.87-4.19,5.87c-0.19,0.27-1.2,1.56-2.63,1.33
	c-0.62-0.09-1.85-0.66-5-2.22c-0.56-0.28-1.04-0.52-1.38-0.68c-5.54-2.7-6.32-3.23-6.64-3.54c-1.05-1.07-0.64-2.63-0.54-2.93
	c0,0,1.94-6.26,2.13-6.88c0.03-0.09,0.03-0.13,0.03-0.15c0,0.01-0.06-0.03-0.15-0.06c-0.14-0.03-3.86-1.21-6.05-1.91l-6.01-1.86
	c-0.08-0.03-0.15-0.03-0.17-0.03c0,0.01-0.02,0.05-0.04,0.12c-0.2,0.62-2.17,6.88-2.17,6.88c-0.1,0.31-0.66,1.88-2.14,2.08
	c-0.24,0.05-0.88,0.17-6.61-0.71l-0.4-0.06c-5.08-0.8-6.3-1.08-6.79-1.32c-1.33-0.67-1.4-2.31-1.4-2.64l0,0c0,0-0.02-6.55-0.02-7.21
	c0-0.09-0.01-0.13-0.02-0.15c0,0.01-0.06-0.01-0.18-0.01c-0.2,0-6.31-0.02-6.31-0.02c0.01,0-6.11,0.02-6.33,0.02
	c-0.08,0-0.13,0.01-0.16,0.02c0,0.01-0.01,0.06-0.01,0.13c0,0.66-0.02,7.22-0.02,7.22c0,0.32-0.07,1.97-1.41,2.63
	c-0.5,0.25-1.79,0.51-5.41,1.17c-0.94,0.17-1.79,0.33-2.29,0.43l-0.58,0.12c-5.79,1.23-7.13,1.43-7.66,1.38
	c-1.43-0.12-2.13-1.61-2.26-1.9c-0.01-0.01-2.5-6.09-2.73-6.69c-0.03-0.08-0.06-0.11-0.07-0.12c0.01,0.01-0.05,0.02-0.14,0.05
	c-0.35,0.13-5.91,2.38-5.91,2.38c-2.07,0.85-5.48,2.25-5.76,2.38c-0.12,0.05-0.18,0.09-0.21,0.11c0.01,0.01,0.02,0.05,0.04,0.09
	l2.7,6.7c0.12,0.29,0.71,1.87-0.31,2.97c-0.41,0.47-1.39,1.03-4.31,2.58c-0.64,0.34-1.25,0.66-1.69,0.91
	c-0.42,0.23-0.98,0.56-1.58,0.92c-3.02,1.77-4.07,2.34-4.73,2.43C1138.49,54.85,1138.37,54.86,1138.25,54.86z"/>
<path class="st1" d="M1087.32,130.68l-0.11-2.8c1.56-0.06,2.93-0.1,2.93-0.1c0.06,0,0.15-0.02,0.22-0.04
	c0.17-0.75,0.55-3.19,0.76-4.57c0.14-0.89,0.26-1.69,0.35-2.17c0.15-0.8,0.52-2.9,0.83-4.71l2.76,0.46
	c-0.31,1.84-0.68,3.96-0.83,4.76c-0.08,0.45-0.2,1.23-0.33,2.1c-0.57,3.68-0.8,4.99-1.04,5.52c-0.65,1.32-2.29,1.44-2.61,1.45
	C1090.22,130.57,1088.87,130.61,1087.32,130.68z"/>
<path class="st1" d="M1187.2,216.03c-11.82,0-22.99-2.52-32.73-7.57l-1.59-0.82l36.32-44.93l37.89,44.39l-1.83,0.78
	C1212.45,213.31,1199.47,216.03,1187.2,216.03z M1157.41,206.67c18.38,8.83,41.8,8.58,64.85-0.72l-33.01-38.67L1157.41,206.67z
	 M1130.74,190.8l-1.25-1.48c-3.48-4.12-7.47-10.19-10.41-15.83l2.59-1.35c2.5,4.81,5.79,9.92,8.83,13.78l28.71-42.87l-45.34-14.75
	c-0.11,1.36-0.21,2.28-0.29,3.01c-0.19,1.77-0.26,2.37-0.01,5.76l-2.91,0.21c-0.27-3.66-0.18-4.43,0.02-6.29
	c0.11-1,0.26-2.36,0.41-4.75l0.12-1.88l52.57,17.1L1130.74,190.8z M1248.12,187.63l-33.56-45.71l53.34-20.6l0.24,1.84
	c2.94,22.65-3.92,45.64-18.82,63.07L1248.12,187.63z M1219.17,143.27l29.11,39.65c13.15-16.13,19.35-36.9,17.18-57.52
	L1219.17,143.27z M1206.62,113.83l-2.98-57.1l1.83,0.35c22.43,4.24,42.14,17.91,54.07,37.51l0.96,1.57L1206.62,113.83z
	 M1206.75,60.31l2.58,49.55l46.73-15.32C1244.82,77.01,1227.01,64.65,1206.75,60.31z M1171.71,113.83l-53.88-17.67l0.96-1.57
	c11.92-19.6,31.63-33.27,54.08-37.51l1.83-0.35L1171.71,113.83z M1122.26,94.54l46.74,15.32l2.58-49.55
	C1151.3,64.66,1133.5,77.01,1122.26,94.54z"/>
<path class="st1" d="M1078.13,266.43c-0.67-0.63-0.84-1.28-0.86-2.09l-0.06-7.5c1.02,0.55,3.57,1.96,5.39-0.45
	c2.11-2.77-0.43-5.52-1.95-6.79l-4.73-3.94l-0.24,0.34c1.09,1.12,1.23,1.49,0.21,2.84l-5.91,7.81c-1.04,1.35-1.37,1.67-2.82,0.6
	l-0.26,0.34l4.73,3.96l0.25-0.33c-1.31-1.23-1.22-1.72-0.3-2.93l2.67-3.55l1,0.78l-0.14,8.95l2.76,2.3L1078.13,266.43
	 M1078.13,249.67c0.38-0.53,0.65-0.53,1.55,0.23c0.7,0.59,2.89,2.51,1.09,4.9c-1.96,2.58-4.54,0.48-6.01-0.69L1078.13,249.67z"/>
<path class="st1" d="M1088.44,272.4l-9.62-7.15l0.24-0.38c1.2,0.8,1.72,0.92,2.7-0.53l5.62-8.34c0.99-1.49,0.65-1.91-0.4-2.85
	l0.22-0.35l9.48,7.03l-1.76,2.73l-0.45-0.32c0.88-1.87,0.6-2.52-1.36-3.98l-2.41-1.8c-0.39-0.28-0.61-0.44-1.03,0.21l-2.81,4.16
	l2.75,2.04c1.59,1.17,2.06,0.87,3.16-0.34l0.41,0.31l-2.95,4.38l-0.41-0.31c0.79-1.66,0.7-2.12-0.77-3.24l-2.73-2.08l-3.13,4.66
	c-0.52,0.78-0.54,0.8,2.12,2.77c2.24,1.65,3.51,1.75,5.57,0.42l0.5,0.38L1088.44,272.4"/>
<path class="st1" d="M1097.32,260.08c1.22,1.11,1.27,1.47,0.38,2.8l-5.41,8.2c-0.9,1.37-1.19,1.8-2.77,0.82l-0.24,0.38l5.04,3.63
	l0.24-0.35c-1.37-1.05-1.49-1.55-0.58-2.93l2.27-3.45c0.41,0.34,0.74,0.62,1.17,0.94c1.88,1.35,3.27,1.86,4.55,1.65
	c0.51-0.09,1.8-0.3,2.77-1.77c1.58-2.41,0.01-5.02-2.45-6.82l-4.76-3.44L1097.32,260.08 M1100,263.5c0.41-0.63,0.62-0.5,1.16-0.11
	c0.79,0.57,3.39,2.52,1.61,5.23c-1.91,2.88-4.31,1.13-4.98,0.65c-0.38-0.3-0.71-0.55-1.05-0.86L1100,263.5z"/>
<path class="st1" d="M1118.85,273.28c-0.95-0.45-1.37-0.33-2.73,0.88l-10.18,8.88l-0.27-0.16l1.05-13.8
	c0.16-2.28-0.04-2.73-0.91-3.28l0.17-0.38l5.12,2.92l-0.2,0.4c-1.12-0.56-1.48-0.75-1.82-0.09c-0.17,0.32-0.25,1.33-0.34,2.61
	l-0.68,8.5l6.69-5.8c0.11-0.11,0.88-0.77,1.09-1.19c0.42-0.83-0.2-1.29-0.91-1.73l0.18-0.39l3.95,2.26L1118.85,273.28"/>
<path class="st1" d="M1122.61,272.6c0-0.34,0.05-0.66,0.49-0.65c0.23,0,0.55,0,1,0c1.55,0.07,3.8,0.59,3.7,3.34
	c-0.09,2.71-2.7,2.67-3.31,2.65l-2.09-0.05L1122.61,272.6 M1118.31,271.32c1.79,0.16,2.08,0.45,2.01,2.17l-0.37,10.2
	c-0.05,1.62-0.34,2.02-2.16,1.99l-0.02,0.45l7.3,0.27c4.86,0.16,5.41-2.98,5.46-3.88c0.08-2.39-1.63-3.56-3.52-4.05v-0.05
	c0.99-0.2,2.92-0.64,3.02-3.2c0.13-3.56-3.67-4.02-5.57-4.09l-6.14-0.26L1118.31,271.32z M1122.38,278.79
	c2.1,0.07,2.79,0.22,3.52,0.48c1.12,0.4,2.17,1.2,2.1,3.09c-0.12,3.06-2.77,3.19-4.22,3.13c-1.26-0.07-1.65-0.16-1.62-1.01
	L1122.38,278.79z"/>
<path class="st1" d="M1134.79,271.63c-0.02-0.35,0.01-0.66,0.48-0.69c0.2,0,0.52-0.03,0.98-0.05c1.55-0.02,3.84,0.35,3.9,3.09
	c0.09,2.73-2.52,2.88-3.12,2.88l-2.09,0.06L1134.79,271.63 M1130.43,270.65c1.8,0.03,2.11,0.29,2.15,2l0.27,10.22
	c0.06,1.63-0.2,2.03-2.05,2.12l0.02,0.43l7.3-0.2c4.85-0.12,5.23-3.29,5.2-4.18c-0.07-2.4-1.84-3.48-3.76-3.85v-0.03
	c0.97-0.27,2.89-0.83,2.82-3.38c-0.1-3.56-3.94-3.79-5.82-3.73l-6.13,0.16V270.65z M1134.95,277.82c2.1-0.06,2.8,0.05,3.55,0.25
	c1.14,0.33,2.23,1.06,2.28,2.95c0.09,3.08-2.55,3.36-4,3.41c-1.27,0.03-1.66-0.05-1.69-0.91L1134.95,277.82z"/>
<path class="st1" d="M1147.95,268.38c-1.34,0.24-1.8,0.45-1.54,2.24l1.72,10.69c0.15,0.91,0.52,0.88,2.17,0.71
	c3.02-0.34,4.28-0.56,4.95-3.66l0.48-0.05l-0.33,4.05l-10.77,1.17l-0.09-0.42c1.28-0.23,1.7-0.48,1.43-2.23l-1.61-10.05
	c-0.29-1.78-0.79-1.86-2.06-1.84l-0.07-0.43l5.64-0.62L1147.95,268.38"/>
<path class="st1" d="M1156.52,280.46c1.87-0.28,2.08-0.7,1.8-2.27l-1.72-9.88c-0.29-1.65-0.64-1.88-2.5-1.73l-0.06-0.43l6.56-0.8
	l0.09,0.41c-1.61,0.28-2.12,0.51-1.84,2.29l1.72,9.86c0.29,1.73,0.87,1.89,2.51,1.73l0.09,0.43l-6.58,0.82L1156.52,280.46"/>
<path class="st1" d="M1174.38,266.43c-1.02-2.23-2.99-3.75-5.69-3.32c-1.11,0.17-2.3,0.81-3.03,1.87c-0.68,0.98-1.36,2.55-0.69,5.72
	c0.96,4.69,4,6.2,6.77,5.77c2.71-0.45,3.98-2.26,4.52-3.03l0.48,0.35c-0.02,0.03-1.34,3.09-5.4,3.74c-3.54,0.58-7.81-0.96-8.95-6.45
	c-1.04-4.95,2.12-8.21,5.9-8.8c1.98-0.33,3.55,0.18,4.03,0.09c0.11,0,0.86-0.12,0.87-0.88l0.47-0.08l1.23,4.94L1174.38,266.43"/>
<path class="st1" d="M1192.43,273.26c-0.97,0.05-1.33-0.14-2.35-1.67l-7.86-11.84l-0.44,0.06l-2.55,11.53
	c-0.23,1.03-0.61,2.75-1.02,3.37c-0.31,0.49-0.68,0.58-1.03,0.66l0.08,0.41l4.38-0.6l-0.07-0.43c-0.47,0.08-1.52,0.21-1.68-0.71
	c-0.05-0.25-0.04-0.57,0.02-0.88l0.52-2.74l5.78-0.79l1.3,2c0.19,0.3,0.62,0.98,0.69,1.34c0.16,0.84-0.56,0.96-1.39,1.07l0.08,0.41
	l5.64-0.78L1192.43,273.26 M1180.62,269.46l1.4-6.44l3.71,5.75L1180.62,269.46z"/>
<path class="st1" d="M1215.49,274.97c1.8,0.55,2.16,0.28,2.59-1.27l2.74-9.65c0.46-1.61,0.25-1.97-1.48-2.63l0.11-0.42l6.28,2.12
	l-0.12,0.4c-1.56-0.45-2.12-0.47-2.63,1.27l-2.72,9.64c-0.48,1.71-0.03,2.08,1.52,2.65l-0.11,0.42l-6.29-2.12L1215.49,274.97"/>
<path class="st1" d="M1233,279.48l-6.38-1.26l0.05-0.42c2.01,0.3,2.15-0.2,2.39-1.84l1.65-11.18l-1.18-0.23
	c-2.42-0.47-3.05-0.16-3.91,2.17l-0.52-0.1l0.68-3.78l12.35,2.45l-0.42,3.84l-0.52-0.11c-0.1-2.54-0.64-3.08-3.05-3.55l-1.19-0.23
	l-1.7,11.4c-0.23,1.53-0.02,2.02,1.82,2.44L1233,279.48"/>
<path class="st1" d="M1249.67,283.27c-0.96-0.23-1.24-0.55-1.71-2.33l-3.76-13.69l-0.45-0.09l-6.03,10.13
	c-0.55,0.92-1.45,2.42-2.03,2.91c-0.45,0.33-0.83,0.31-1.18,0.26l-0.06,0.43l4.35,0.81l0.05-0.44c-0.45-0.07-1.48-0.27-1.37-1.21
	c0.02-0.23,0.15-0.55,0.3-0.8l1.36-2.43l5.75,1.05l0.6,2.34c0.09,0.32,0.28,1.12,0.23,1.47c-0.12,0.83-0.84,0.73-1.65,0.58
	l-0.07,0.43l5.6,1.01L1249.67,283.27 M1239.64,275.96l3.35-5.68l1.72,6.61L1239.64,275.96z"/>
<path class="st1" d="M1257.52,269.35c-1.42-0.03-1.92,0.09-1.99,1.86l-0.38,10.67c-0.04,0.91,0.34,0.95,2.06,1.09
	c3.12,0.27,4.46,0.3,5.75-2.57l0.52,0.05l-1.14,3.84l-11.19-0.94l0.02-0.41c1.33,0,1.81-0.16,1.88-1.9l0.34-10.01
	c0.08-1.78-0.42-1.98-1.72-2.2l0.02-0.42l5.84,0.49L1257.52,269.35"/>
<path class="st1" d="M1265.07,283.24c1.88,0.07,2.15-0.3,2.17-1.89l0.1-10.03c0.02-1.67-0.3-1.95-2.15-2.16l0.02-0.42l6.61,0.38
	v0.43c-1.63-0.04-2.19,0.09-2.21,1.91l-0.09,10.02c-0.02,1.76,0.51,2.02,2.16,2.16v0.41l-6.61-0.38L1265.07,283.24"/>
<path class="st1" d="M1290.2,273.82c-0.89,0.51-1.3,0.49-2.9-0.47l-12.47-7.3l-0.38,0.25l2.7,11.69c0.24,1.05,0.65,2.8,0.54,3.55
	c-0.09,0.59-0.39,0.84-0.67,1.04l0.24,0.37l3.79-2.52l-0.26-0.34c-0.4,0.27-1.29,0.86-1.88,0.1c-0.13-0.2-0.28-0.51-0.37-0.81
	l-0.7-2.74l5.01-3.32l2.08,1.25c0.31,0.2,1,0.62,1.23,0.91c0.51,0.69-0.13,1.12-0.82,1.59l0.25,0.35l4.88-3.24L1290.2,273.82
	 M1277.6,275.65l-1.52-6.53l5.95,3.6L1277.6,275.65z"/>
<path class="st1" d="M1295.14,252.96c-1,0.98-1.51,1.48,0.21,3.5l7.7,9.03l-0.3,0.24l-15.78-3.43l-0.05,0.02l5.7,6.71
	c1.51,1.77,2.21,1.85,3.55,0.89l0.27,0.36l-4.16,3.19l-0.27-0.33c1.26-1.13,1.41-1.66-0.18-3.52l-6.45-7.58
	c-1.45-0.3-1.8-0.18-2.52,0.37l-0.27-0.33l3-2.33l13.84,3.05l0.02-0.02l-4.9-5.76c-1.66-1.97-2.28-1.72-3.55-0.88l-0.27-0.33
	l4.16-3.2L1295.14,252.96"/>
<path class="st1" d="M1316.37,254.88c-0.83,0.55-1.23,0.55-2.86-0.28l-12.7-6.4l-0.36,0.3l3.48,11.27c0.31,1.01,0.83,2.69,0.78,3.45
	c-0.04,0.56-0.33,0.84-0.58,1.06l0.28,0.34l3.51-2.7l-0.28-0.33c-0.38,0.29-1.21,0.92-1.8,0.2c-0.16-0.2-0.31-0.48-0.42-0.77
	l-0.89-2.64l4.62-3.56l2.13,1.1c0.3,0.16,1.02,0.55,1.26,0.82c0.53,0.64-0.04,1.11-0.69,1.6l0.28,0.33l4.49-3.45L1316.37,254.88
	 M1304.23,257.44l-2.01-6.28l6.09,3.14L1304.23,257.44z"/>
<path class="st0" d="M368.34,118.55c0-5.84-2.15-10.91-6.46-15.21c-4.3-4.3-9.47-6.45-15.52-6.45c-6.02,0-11.2,2.15-15.5,6.45
	c-4.3,4.3-6.45,9.37-6.45,15.21c0,5.91,2.15,10.98,6.45,15.25c4.3,4.27,9.48,6.41,15.5,6.41c6.05,0,11.21-2.14,15.52-6.41
	C366.2,129.53,368.34,124.46,368.34,118.55 M368.34,88.02v-4.75h18.57c4.02,0,6.87,0.74,8.5,2.2c1.62,1.47,2.43,3.38,2.43,5.76
	c0,2.37-0.81,4.28-2.43,5.75c-1.63,1.45-4.48,2.19-8.5,2.19h-2.7v57.82c0,5.58-1.16,10.45-3.53,14.61
	c-2.34,4.16-5.95,7.74-10.8,10.74s-10.34,4.5-16.45,4.5h-17.99c-3.83,0-6.54-0.74-8.18-2.22c-1.63-1.46-2.45-3.38-2.45-5.69
	c0-2.38,0.81-4.31,2.45-5.77c1.63-1.48,4.36-2.22,8.2-2.22h17.56c4.87,0,8.65-1.3,11.31-3.92c2.67-2.64,4-5.95,4-9.98v-7.71
	c-3.5,2.24-7.09,3.95-10.7,5.08c-3.63,1.12-7.36,1.7-11.16,1.7c-10.78,0-19.79-3.6-27.06-10.8c-7.26-7.21-10.89-16.11-10.89-26.7
	c0-10.64,3.63-19.57,10.89-26.77c7.27-7.21,16.28-10.8,27.06-10.8c4.01,0,7.83,0.58,11.47,1.73
	C361.59,83.89,365.05,85.66,368.34,88.02z"/>
<path class="st0" d="M468.37,110.5c-2.45-4.49-5.62-7.85-9.55-10.08c-3.95-2.23-8.63-3.34-14.06-3.34c-5.4,0-10.05,1.11-13.98,3.34
	c-3.93,2.23-7.16,5.59-9.65,10.08H468.37 M485.9,126.39h-65.19c1.65,4.13,4.59,7.46,8.8,10.01c4.21,2.54,9.9,3.81,17.08,3.81
	c5.88,0,13.69-1.27,23.45-3.81c4.02-1.04,6.8-1.56,8.35-1.56c2.11,0,3.9,0.76,5.34,2.25c1.44,1.5,2.16,3.38,2.16,5.66
	c0,2.07-0.78,3.83-2.32,5.27c-2.07,1.91-7.09,3.73-15.09,5.47c-7.99,1.73-15.68,2.59-23.05,2.59c-12.7,0-22.84-3.59-30.45-10.75
	c-7.61-7.16-11.41-15.98-11.41-26.45c0-11.14,4.11-20.22,12.34-27.2c8.22-6.98,17.7-10.47,28.43-10.47c6.45,0,12.36,1.12,17.74,3.38
	c5.41,2.27,9.41,4.72,12.03,7.34c3.72,3.8,6.79,8.52,9.21,14.13c1.65,3.91,2.48,8.44,2.48,13.59L485.9,126.39z"/>
<path class="st0" d="M525.07,83.27v5.16c2.88-2.39,6.05-4.21,9.52-5.41c3.47-1.2,7.23-1.8,11.3-1.8c9.35,0,16.74,2.91,22.2,8.73
	c4.32,4.65,6.47,10.74,6.47,18.28v29.49c4.04,0,6.88,0.74,8.5,2.19c1.62,1.48,2.44,3.38,2.44,5.77c0,2.37-0.81,4.29-2.44,5.75
	c-1.62,1.45-4.46,2.19-8.5,2.19h-15.88c-3.9,0-6.66-0.73-8.28-2.19c-1.62-1.46-2.44-3.38-2.44-5.75c0-2.38,0.81-4.29,2.44-5.77
	c1.62-1.45,4.38-2.19,8.28-2.19v-29.95c0-3.46-0.92-6-2.76-7.59c-2.42-2.06-6.02-3.1-10.84-3.1c-3.66,0-6.85,0.7-9.6,2.09
	c-2.73,1.4-6.22,4.36-10.41,8.85v29.7c4.02,0,6.57,0.49,7.62,1.46c2.2,1.95,3.3,4.11,3.3,6.49c0,2.37-0.81,4.29-2.43,5.75
	c-1.62,1.45-4.47,2.19-8.49,2.19h-15.9c-3.9,0-6.66-0.73-8.28-2.19c-1.63-1.46-2.43-3.38-2.43-5.75c0-2.38,1.08-4.54,3.24-6.52
	c1.09-0.95,3.57-1.43,7.47-1.43V99.16c-3.9,0-6.66-0.73-8.28-2.19c-1.63-1.47-2.43-3.38-2.43-5.75c0-2.38,0.8-4.29,2.43-5.76
	c1.62-1.45,4.38-2.2,8.28-2.2L525.07,83.27"/>
<path class="st0" d="M627.45,137.73h27.75c0-4.03,0.73-6.88,2.2-8.51c1.44-1.62,3.37-2.42,5.73-2.42c2.38,0,4.3,0.8,5.75,2.42
	c1.47,1.63,2.2,4.48,2.2,8.51v15.89h-68.9v-13.18l41.84-41.28h-24.31v1.65c0,3.91-0.73,6.67-2.19,8.29
	c-1.45,1.62-3.38,2.44-5.75,2.44c-2.36,0-4.29-0.81-5.74-2.44c-1.47-1.62-2.2-4.38-2.2-8.29l0.09-17.54h65.52v13.02L627.45,137.73"
	/>
<path class="st0" d="M717.88,53.36h18.98v16.71h-18.98V53.36z M739.13,83.27v54.46h18.98c4.02,0,6.88,0.74,8.51,2.19
	c1.61,1.48,2.42,3.38,2.42,5.77c0,2.37-0.81,4.29-2.42,5.75c-1.63,1.45-4.48,2.19-8.51,2.19h-53.85c-3.89,0-6.66-0.73-8.29-2.19
	c-1.62-1.46-2.45-3.38-2.45-5.75c0-2.38,0.83-4.29,2.45-5.77c1.63-1.45,4.4-2.19,8.29-2.19h18.98V99.16h-12.78
	c-3.9,0-6.66-0.73-8.29-2.19c-1.62-1.47-2.44-3.38-2.44-5.75c0-2.38,0.81-4.29,2.44-5.76c1.62-1.45,4.39-2.2,8.29-2.2L739.13,83.27
	L739.13,83.27z"/>
<path class="st0" d="M840.59,125.14c-6.37-1.23-12.2-1.86-17.59-1.86c-6.45,0-12,1.56-16.65,4.7c-2.91,1.99-4.34,4.02-4.34,6.07
	c0,1.48,0.7,2.69,2.09,3.62c2.58,1.69,6.12,2.54,10.62,2.54c3.82,0,8.15-0.74,12.97-2.24c4.82-1.48,9.12-3.5,12.9-6.06
	L840.59,125.14 M840.59,153.62v-3.72c-3.98,2.07-8.38,3.61-13.18,4.63c-4.82,1.04-9.2,1.55-13.12,1.55
	c-8.52,0-15.45-2.27-20.78-6.74c-5.32-4.51-7.99-9.48-7.99-14.94c0-6.62,3.4-12.79,10.2-18.48c6.81-5.67,16.2-8.52,28.19-8.52
	c4.81,0,10.38,0.52,16.69,1.55v-3.8c0-2.37-1.02-4.31-3.06-5.8c-2.05-1.5-5.92-2.26-11.66-2.26c-4.7,0-10.8,0.91-18.27,2.73
	c-2.8,0.65-4.97,0.98-6.51,0.98c-2.09,0-3.88-0.76-5.34-2.27c-1.48-1.52-2.21-3.47-2.21-5.82c0-1.34,0.27-2.5,0.77-3.48
	c0.53-0.97,1.25-1.76,2.19-2.34c0.91-0.61,2.85-1.31,5.79-2.13c3.91-1.09,7.93-1.93,11.99-2.59c4.08-0.64,7.77-0.95,11.06-0.95
	c9.86,0,17.52,2.12,22.96,6.38c5.44,4.27,8.16,10.09,8.16,17.46v32.67h2.67c4.04,0,6.87,0.74,8.5,2.19
	c1.63,1.48,2.42,3.38,2.42,5.77c0,2.37-0.79,4.29-2.42,5.75c-1.63,1.45-4.46,2.19-8.5,2.19h-18.55V153.62z"/>
<path class="st1" d="M409.98,227.48v6.29c3.38-2.92,7.12-5.12,11.21-6.6c4.08-1.48,8.52-2.2,13.3-2.2
	c11.01,0,19.72,3.55,26.14,10.65c5.09,5.68,7.63,13.11,7.63,22.3v35.98c4.76,0,8.09,0.88,10,2.66c1.91,1.79,2.87,4.12,2.87,7.02
	c0,2.88-0.95,5.2-2.87,7c-1.91,1.8-5.24,2.68-10,2.68h-18.7c-4.59,0-7.84-0.88-9.76-2.68c-1.91-1.8-2.87-4.12-2.87-7
	c0-2.9,0.95-5.23,2.87-7.02c1.91-1.79,5.17-2.66,9.76-2.66v-36.55c0-4.2-1.08-7.29-3.25-9.23c-2.84-2.52-7.1-3.77-12.78-3.77
	c-4.28,0-8.05,0.84-11.28,2.53c-3.23,1.7-7.32,5.29-12.27,10.8v36.22c4.76,0,7.75,0.59,8.96,1.79c2.6,2.34,3.91,5,3.91,7.9
	c0,2.88-0.95,5.2-2.87,7c-1.91,1.8-5.24,2.68-10,2.68h-18.7c-4.59,0-7.84-0.88-9.76-2.68c-1.91-1.8-2.88-4.12-2.88-7
	c0-2.9,1.28-5.55,3.84-7.96c1.27-1.15,4.21-1.73,8.8-1.73v-47.04c-4.59,0-7.84-0.88-9.76-2.68c-1.91-1.78-2.88-4.12-2.88-7.01
	s0.96-5.23,2.88-7.02c1.91-1.8,5.17-2.67,9.76-2.67H409.98"/>
<path class="st1" d="M530.71,246.1v37.4c0,4,0.8,6.65,2.44,7.91c2.56,2.01,7.11,3.02,13.66,3.02c9.52,0,18.3-2.03,26.38-6.14
	c3.09-1.58,5.52-2.37,7.28-2.37c2.42,0,4.53,0.93,6.31,2.73c1.8,1.81,2.69,4.06,2.69,6.68c0,2.44-0.97,4.52-2.91,6.28
	c-2.98,2.86-8.84,5.49-17.62,7.9c-8.77,2.4-16.16,3.61-22.17,3.61c-11.58,0-20.27-2.5-26.09-7.51c-5.8-5.01-8.67-11.16-8.67-18.45
	V246.1h-6.73c-4.48,0-7.68-0.87-9.6-2.6c-1.91-1.74-2.86-3.98-2.86-6.8c0-2.73,0.95-4.96,2.86-6.7c1.92-1.73,5.12-2.6,9.6-2.6h6.73
	v-16.88c0-4.48,0.86-7.71,2.59-9.62c1.73-1.91,3.98-2.89,6.8-2.89c2.73,0,4.95,0.98,6.69,2.89c1.73,1.91,2.61,5.14,2.61,9.62v16.88
	h34.42c4.48,0,7.66,0.88,9.59,2.6c1.9,1.73,2.84,3.98,2.84,6.78c0,2.75-0.95,4.97-2.84,6.71c-1.93,1.73-5.12,2.6-9.59,2.6
	L530.71,246.1"/>
<path class="st1" d="M648.87,227.48v12.12c7.83-5.86,14-9.76,18.52-11.71c4.5-1.95,8.74-2.91,12.68-2.91
	c6.05,0,11.95,2.33,17.63,6.95c3.89,3.13,5.81,6.34,5.81,9.58c0,2.77-0.93,5.09-2.75,7.02c-1.87,1.92-4.09,2.87-6.7,2.87
	c-2.3,0-4.73-1.16-7.28-3.52c-2.54-2.37-4.8-3.52-6.8-3.52c-2.61,0-6.51,1.69-11.7,5.09c-5.17,3.4-11.65,8.48-19.41,15.32v29.14
	h26.72c4.77,0,8.09,0.88,10.02,2.66c1.9,1.79,2.86,4.12,2.86,7.02c0,2.88-0.96,5.2-2.86,7c-1.92,1.8-5.25,2.68-10.02,2.68h-56.57
	c-4.6,0-7.85-0.88-9.77-2.68c-1.92-1.8-2.87-4.12-2.87-7c0-2.9,0.95-5.23,2.87-7.02c1.91-1.79,5.16-2.66,9.77-2.66h11.16v-47.04
	h-6.8c-4.59,0-7.85-0.88-9.76-2.68c-1.91-1.78-2.87-4.12-2.87-7.01s0.95-5.23,2.87-7.02c1.91-1.8,5.16-2.67,9.76-2.67L648.87,227.48
	"/>
<path class="st1" d="M781.44,276.69c-7.45-1.45-14.38-2.18-20.7-2.18c-7.59,0-14.12,1.84-19.61,5.53c-3.4,2.34-5.11,4.73-5.11,7.14
	c0,1.76,0.83,3.19,2.48,4.28c3.02,1.96,7.19,2.97,12.49,2.97c4.5,0,9.59-0.88,15.27-2.61c5.69-1.77,10.76-4.16,15.18-7.17V276.69
	 M781.44,310.21v-4.38c-4.7,2.44-9.87,4.24-15.52,5.45c-5.66,1.22-10.8,1.84-15.45,1.84c-10.04,0-18.2-2.65-24.46-7.95
	c-6.28-5.28-9.41-11.14-9.41-17.59c0-7.79,4-15.06,12.02-21.73c8-6.71,19.06-10.05,33.18-10.05c5.68,0,12.22,0.62,19.64,1.83v-4.48
	c0-2.82-1.21-5.09-3.6-6.85c-2.41-1.76-6.98-2.64-13.72-2.64c-5.53,0-12.7,1.07-21.54,3.21c-3.27,0.77-5.82,1.16-7.62,1.16
	c-2.48,0-4.59-0.88-6.3-2.67c-1.73-1.79-2.58-4.06-2.58-6.85c0-1.58,0.3-2.95,0.91-4.1c0.59-1.15,1.45-2.06,2.54-2.77
	c1.09-0.7,3.38-1.51,6.84-2.48c4.6-1.28,9.32-2.3,14.1-3.07c4.8-0.74,9.15-1.12,13.05-1.12c11.6,0,20.6,2.52,27.01,7.52
	c6.41,5,9.62,11.87,9.62,20.57v38.45h3.16c4.75,0,8.08,0.85,10,2.58c1.89,1.73,2.86,3.98,2.86,6.77c0,2.8-0.97,5.04-2.86,6.78
	c-1.92,1.73-5.25,2.58-10,2.58L781.44,310.21L781.44,310.21z"/>
<path class="st1" d="M866.48,246.1v37.4c0,4,0.8,6.65,2.44,7.91c2.57,2.01,7.11,3.02,13.66,3.02c9.52,0,18.32-2.03,26.38-6.14
	c3.09-1.58,5.52-2.37,7.28-2.37c2.43,0,4.53,0.93,6.31,2.73c1.8,1.81,2.7,4.06,2.7,6.68c0,2.44-0.98,4.52-2.91,6.28
	c-2.98,2.86-8.84,5.49-17.61,7.9c-8.78,2.4-16.18,3.61-22.19,3.61c-11.57,0-20.28-2.5-26.09-7.51c-5.79-5.01-8.67-11.16-8.67-18.45
	V246.1h-6.75c-4.46,0-7.67-0.87-9.59-2.6c-1.91-1.74-2.85-3.98-2.85-6.8c0-2.73,0.94-4.96,2.85-6.7c1.91-1.73,5.12-2.6,9.59-2.6
	h6.75v-16.88c0-4.48,0.86-7.71,2.61-9.62c1.73-1.91,3.97-2.89,6.78-2.89c2.75,0,4.97,0.98,6.7,2.89c1.73,1.91,2.62,5.14,2.62,9.62
	v16.88h34.41c4.49,0,7.69,0.88,9.59,2.6c1.9,1.73,2.87,3.98,2.87,6.78c0,2.75-0.97,4.97-2.87,6.71c-1.9,1.73-5.09,2.6-9.59,2.6
	L866.48,246.1"/>
<path class="st1" d="M1014.75,259.45c-2.87-5.28-6.62-9.23-11.26-11.87c-4.62-2.61-10.15-3.91-16.54-3.91
	c-6.35,0-11.84,1.3-16.45,3.91c-4.66,2.63-8.45,6.59-11.36,11.87H1014.75 M1035.39,278.15h-76.73c1.93,4.88,5.4,8.8,10.35,11.79
	c4.94,2.98,11.66,4.48,20.12,4.48c6.92,0,16.13-1.5,27.59-4.5c4.73-1.2,8.02-1.81,9.84-1.81c2.49,0,4.59,0.88,6.28,2.64
	c1.7,1.74,2.55,3.99,2.55,6.67c0,2.42-0.91,4.5-2.73,6.2c-2.42,2.26-8.34,4.4-17.75,6.43c-9.41,2.04-18.46,3.07-27.14,3.07
	c-14.95,0-26.88-4.22-35.83-12.66c-8.96-8.44-13.44-18.82-13.44-31.13c0-13.12,4.84-23.79,14.52-32.01
	c9.69-8.23,20.84-12.34,33.47-12.34c7.59,0,14.58,1.33,20.91,4c6.34,2.67,11.05,5.55,14.15,8.62c4.38,4.49,7.98,10.05,10.85,16.62
	c1.93,4.63,2.91,9.97,2.91,16.02L1035.39,278.15z"/>
<g>
	<defs>
		<path id="SVGID_1_" d="M104.66,170.91c7.51-13.58,17.21-23.66,29.12-30.38c6.44-3.63,13.54-6.25,21.26-7.91l23.58-49.66
			l24.23,51.06c5.61,1.62,10.86,3.77,15.72,6.5c11.9,6.72,21.52,16.8,28.89,30.38H104.66 M244.73,100.44
			c-4.84-2.65-10.22-5.23-16.17-7.73c-16.29-6.85-34.18-10.27-53.66-10.27c-21.49,0-41.3,4.66-59.47,13.95l-58.7,134.05
			c5.43,17.2,15.23,32.48,29.43,45.84c14.3,13.49,31.56,22.77,51.8,27.86c1.9-0.94,3.55-2.03,4.95-3.28
			c5.37-4.84,8.04-11.2,8.04-19.03c0-7.83-2.67-14.17-8.04-19.04c-5.37-4.85-14.6-7.3-27.68-7.3H102.5L115.4,225l0.02-0.01H241.8
			l0.01,0.01h56.55L244.73,100.44z"/>
	</defs>
	
		<linearGradient id="SVGID_00000176732443227453916270000004814093070463226303_" gradientUnits="userSpaceOnUse" x1="76.2506" y1="193.2965" x2="284.6334" y2="193.2965">
		<stop  offset="0" style="stop-color:#15427C;stop-opacity:0"/>
		<stop  offset="0.9944" style="stop-color:#15427C;stop-opacity:0.85"/>
	</linearGradient>
	<use xlink:href="#SVGID_1_"  style="overflow:visible;fill:url(#SVGID_00000176732443227453916270000004814093070463226303_);"/>
	<clipPath id="SVGID_00000152946470423460692860000004844228486764320907_">
		<use xlink:href="#SVGID_1_"  style="overflow:visible;"/>
	</clipPath>
</g>
</svg>
