<?xml version="1.0" encoding="utf-8"?>
<!-- Generator: Adobe Illustrator 26.0.3, SVG Export Plug-In . SVG Version: 6.00 Build 0)  -->
<svg version="1.1" xmlns="http://www.w3.org/2000/svg" xmlns:xlink="http://www.w3.org/1999/xlink" x="0px" y="0px"
	 viewBox="0 0 1035.39 313.26" style="enable-background:new 0 0 1035.39 313.26;" xml:space="preserve">
<style type="text/css">
	.st0{fill:#FFFFFF;}
</style>
<path class="st0" d="M228.55,79.96c5.95,2.5,11.33,5.07,16.17,7.73L207.3,0.81H94.13c-13.15,0-22.41,2.45-27.76,7.3
	c-5.36,4.86-8.04,11.21-8.04,19.03c0,7.84,2.68,14.18,8.04,19.04c5.35,4.87,14.61,7.3,27.76,7.3h34.5l-13.21,30.16
	c18.17-9.27,37.98-13.95,59.47-13.95C194.38,69.68,212.27,73.11,228.55,79.96"/>
<path class="st0" d="M346.51,265.37c-3.56-3.19-11.84-4.77-24.8-4.77l-13.13-30.48h-56.55l10.3,24.35c0.15-0.04,0.27-0.07,0.42-0.11
	c12.16-3.12,20.58-4.7,25.26-4.7c6.39,0,11.77,2.27,16.13,6.8c4.36,4.53,6.55,10.23,6.55,17.11c0,6.25-2.34,11.56-7.02,15.94
	c-6.23,5.78-21.42,11.29-45.59,16.52c-8.53,1.84-16.95,3.35-25.24,4.55c5.07,1.76,11.51,2.66,19.38,2.66h69.52
	c12.97,0,22.13-2.42,27.5-7.29c5.36-4.85,8.04-11.21,8.04-19.04C357.24,279.1,353.67,271.92,346.51,265.37"/>
<path class="st0" d="M46.51,235.55L35.55,260.6c-12.98,0-22.13,2.45-27.5,7.29C2.68,272.76,0,279.1,0,286.93
	c0,7.83,2.68,14.19,8.05,19.04c5.37,4.87,14.52,7.29,27.5,7.29H105c9.7,0,17.27-1.34,22.73-4.02c-20.23-5.1-37.49-14.38-51.8-27.84
	C61.74,268.02,51.94,252.73,46.51,235.55"/>
<path class="st0" d="M300.46,225l-0.23-26.3c0-15.55-2.49-29.25-7.49-41.09c-7.32-16.95-16.6-31.2-27.82-42.71
	c-5.05-5.03-11.79-9.86-20.2-14.45L298.37,225H300.46"/>
<path class="st0" d="M88.95,114.13c-24.86,21.13-37.3,48.52-37.3,82.19c0,12.11,1.7,23.48,5.07,34.12l58.7-134.05
	C106.17,101.11,97.34,107,88.95,114.13"/>
<path class="st0" d="M202.85,134.03l-24.23-51.06l-23.58,49.66c6.55-1.43,13.54-2.17,21.02-2.17
	C185.79,130.46,194.71,131.67,202.85,134.03"/>
<path class="st0" d="M293.91,251.38c-4.36-4.54-9.74-6.82-16.13-6.82c-4.68,0-13.1,1.59-25.26,4.7c-0.14,0.05-0.27,0.08-0.41,0.1
	c-29.27,7.61-52.77,11.41-70.48,11.41c-21.71,0-38.91-3.82-51.64-11.49c-7.95-4.78-14.38-8.17-19.32-13.09l-8.17,19.3h12.71
	c13.08,0,22.31,2.45,27.68,7.3c5.37,4.87,8.04,11.21,8.04,19.04c0,7.83-2.67,14.19-8.04,19.03c-1.39,1.25-3.05,2.34-4.95,3.28
	c12.3,3.11,25.7,4.66,40.22,4.66c14.41,0,29.23-1.11,44.44-3.3c8.3-1.2,16.71-2.7,25.25-4.55c24.16-5.22,39.36-10.73,45.59-16.51
	c4.68-4.38,7.02-9.69,7.02-15.94C300.46,261.6,298.28,255.91,293.91,251.38"/>
<path class="st0" d="M293.91,251.38c-4.36-4.54-9.74-6.82-16.13-6.82c-4.68,0-13.1,1.59-25.26,4.7c-0.14,0.05-0.27,0.08-0.41,0.1
	c-29.27,7.61-52.77,11.41-70.48,11.41c-21.71,0-38.91-3.82-51.64-11.49c-7.95-4.78-14.38-8.17-19.32-13.09l-8.17,19.3h12.71
	c13.08,0,22.31,2.45,27.68,7.3c5.37,4.87,8.04,11.21,8.04,19.04c0,7.83-2.67,14.19-8.04,19.03c-1.39,1.25-3.05,2.34-4.95,3.28
	c12.3,3.11,25.7,4.66,40.22,4.66c14.41,0,29.23-1.11,44.44-3.3c8.3-1.2,16.71-2.7,25.25-4.55c24.16-5.22,39.36-10.73,45.59-16.51
	c4.68-4.38,7.02-9.69,7.02-15.94C300.46,261.6,298.28,255.91,293.91,251.38"/>
<g>
	<defs>
		<path id="SVGID_1_" d="M104.66,170.91c7.51-13.58,17.21-23.66,29.12-30.38c6.44-3.63,13.54-6.25,21.26-7.91l23.58-49.66
			l24.23,51.06c5.61,1.62,10.86,3.77,15.72,6.5c11.9,6.72,21.52,16.8,28.89,30.38H104.66 M244.73,100.44
			c-4.84-2.65-10.22-5.23-16.17-7.73c-16.29-6.85-34.18-10.27-53.66-10.27c-21.49,0-41.3,4.66-59.47,13.95l-58.7,134.05
			c5.43,17.2,15.23,32.48,29.43,45.84c14.3,13.49,31.56,22.77,51.8,27.86c1.9-0.94,3.55-2.03,4.95-3.28
			c5.37-4.84,8.04-11.2,8.04-19.03c0-7.83-2.67-14.17-8.04-19.04c-5.37-4.85-14.6-7.3-27.68-7.3H102.5L115.4,225l0.02-0.01H241.8
			l0.01,0.01h56.55L244.73,100.44z"/>
	</defs>
	
		<linearGradient id="SVGID_00000126283779224507157880000011441026726026192030_" gradientUnits="userSpaceOnUse" x1="76.2506" y1="193.2965" x2="284.6334" y2="193.2965">
		<stop  offset="0" style="stop-color:#FFFFFF;stop-opacity:0"/>
		<stop  offset="1" style="stop-color:#FFFFFF;stop-opacity:0.85"/>
	</linearGradient>
	<use xlink:href="#SVGID_1_"  style="overflow:visible;fill:url(#SVGID_00000126283779224507157880000011441026726026192030_);"/>
	<clipPath id="SVGID_00000000199194316549028980000015892255520878878340_">
		<use xlink:href="#SVGID_1_"  style="overflow:visible;"/>
	</clipPath>
</g>
<path class="st0" d="M368.34,118.55c0-5.84-2.15-10.91-6.46-15.21c-4.3-4.3-9.47-6.45-15.52-6.45c-6.02,0-11.2,2.15-15.5,6.45
	c-4.3,4.3-6.45,9.37-6.45,15.21c0,5.91,2.15,10.98,6.45,15.25c4.3,4.27,9.48,6.41,15.5,6.41c6.05,0,11.21-2.14,15.52-6.41
	C366.2,129.53,368.34,124.46,368.34,118.55 M368.34,88.02v-4.75h18.57c4.02,0,6.87,0.74,8.5,2.2c1.62,1.47,2.43,3.38,2.43,5.76
	c0,2.37-0.81,4.28-2.43,5.75c-1.63,1.45-4.48,2.19-8.5,2.19h-2.7v57.82c0,5.58-1.16,10.45-3.53,14.61
	c-2.34,4.16-5.95,7.74-10.8,10.74s-10.34,4.5-16.45,4.5h-17.99c-3.83,0-6.54-0.74-8.18-2.22c-1.63-1.46-2.45-3.38-2.45-5.69
	c0-2.38,0.81-4.31,2.45-5.77c1.63-1.48,4.36-2.22,8.2-2.22h17.56c4.87,0,8.65-1.3,11.31-3.92c2.67-2.64,4-5.95,4-9.98v-7.71
	c-3.5,2.24-7.09,3.95-10.7,5.08c-3.63,1.12-7.36,1.7-11.16,1.7c-10.78,0-19.79-3.6-27.06-10.8c-7.26-7.21-10.89-16.11-10.89-26.7
	c0-10.64,3.63-19.57,10.89-26.77c7.27-7.21,16.28-10.8,27.06-10.8c4.01,0,7.83,0.58,11.47,1.73
	C361.59,83.89,365.05,85.66,368.34,88.02z"/>
<path class="st0" d="M468.37,110.5c-2.45-4.49-5.62-7.85-9.55-10.08c-3.95-2.23-8.63-3.34-14.06-3.34c-5.4,0-10.05,1.11-13.98,3.34
	c-3.93,2.23-7.16,5.59-9.65,10.08H468.37 M485.9,126.39h-65.19c1.65,4.13,4.59,7.46,8.8,10.01c4.21,2.54,9.9,3.81,17.08,3.81
	c5.88,0,13.69-1.27,23.45-3.81c4.02-1.04,6.8-1.56,8.35-1.56c2.11,0,3.9,0.76,5.34,2.25c1.44,1.5,2.16,3.38,2.16,5.66
	c0,2.07-0.78,3.83-2.32,5.27c-2.07,1.91-7.09,3.73-15.09,5.47c-7.99,1.73-15.68,2.59-23.05,2.59c-12.7,0-22.84-3.59-30.45-10.75
	c-7.61-7.16-11.41-15.98-11.41-26.45c0-11.14,4.11-20.22,12.34-27.2c8.22-6.98,17.7-10.47,28.43-10.47c6.45,0,12.36,1.12,17.74,3.38
	c5.41,2.27,9.41,4.72,12.03,7.34c3.72,3.8,6.79,8.52,9.21,14.13c1.65,3.91,2.48,8.44,2.48,13.59L485.9,126.39z"/>
<path class="st0" d="M525.07,83.27v5.16c2.88-2.39,6.05-4.21,9.52-5.41c3.47-1.2,7.23-1.8,11.3-1.8c9.35,0,16.74,2.91,22.2,8.73
	c4.32,4.65,6.47,10.74,6.47,18.28v29.49c4.04,0,6.88,0.74,8.5,2.19c1.62,1.48,2.44,3.38,2.44,5.77c0,2.37-0.81,4.29-2.44,5.75
	c-1.62,1.45-4.46,2.19-8.5,2.19h-15.88c-3.9,0-6.66-0.73-8.28-2.19c-1.62-1.46-2.44-3.38-2.44-5.75c0-2.38,0.81-4.29,2.44-5.77
	c1.62-1.45,4.38-2.19,8.28-2.19v-29.95c0-3.46-0.92-6-2.76-7.59c-2.42-2.06-6.02-3.1-10.84-3.1c-3.66,0-6.85,0.7-9.6,2.09
	c-2.73,1.4-6.22,4.36-10.41,8.85v29.7c4.02,0,6.57,0.49,7.62,1.46c2.2,1.95,3.3,4.11,3.3,6.49c0,2.37-0.81,4.29-2.43,5.75
	c-1.62,1.45-4.47,2.19-8.49,2.19h-15.9c-3.9,0-6.66-0.73-8.28-2.19c-1.63-1.46-2.43-3.38-2.43-5.75c0-2.38,1.08-4.54,3.24-6.52
	c1.09-0.95,3.57-1.43,7.47-1.43V99.16c-3.9,0-6.66-0.73-8.28-2.19c-1.63-1.47-2.43-3.38-2.43-5.75c0-2.38,0.8-4.29,2.43-5.76
	c1.62-1.45,4.38-2.2,8.28-2.2H525.07"/>
<path class="st0" d="M627.45,137.73h27.75c0-4.03,0.73-6.88,2.2-8.51c1.44-1.62,3.37-2.42,5.73-2.42c2.38,0,4.3,0.8,5.75,2.42
	c1.47,1.63,2.2,4.48,2.2,8.51v15.89h-68.9v-13.18l41.84-41.28h-24.31v1.65c0,3.91-0.73,6.67-2.19,8.29
	c-1.45,1.62-3.38,2.44-5.75,2.44c-2.36,0-4.29-0.81-5.74-2.44c-1.47-1.62-2.2-4.38-2.2-8.29l0.09-17.54h65.52v13.02L627.45,137.73"
	/>
<path class="st0" d="M717.88,53.36h18.98v16.71h-18.98V53.36z M739.13,83.27v54.46h18.98c4.02,0,6.88,0.74,8.51,2.19
	c1.61,1.48,2.42,3.38,2.42,5.77c0,2.37-0.81,4.29-2.42,5.75c-1.63,1.45-4.48,2.19-8.51,2.19h-53.85c-3.89,0-6.66-0.73-8.29-2.19
	c-1.62-1.46-2.45-3.38-2.45-5.75c0-2.38,0.83-4.29,2.45-5.77c1.63-1.45,4.4-2.19,8.29-2.19h18.98V99.16h-12.78
	c-3.9,0-6.66-0.73-8.29-2.19c-1.62-1.47-2.44-3.38-2.44-5.75c0-2.38,0.81-4.29,2.44-5.76c1.62-1.45,4.39-2.2,8.29-2.2H739.13z"/>
<path class="st0" d="M840.59,125.14c-6.37-1.23-12.2-1.86-17.59-1.86c-6.45,0-12,1.56-16.65,4.7c-2.91,1.99-4.34,4.02-4.34,6.07
	c0,1.48,0.7,2.69,2.09,3.62c2.58,1.69,6.12,2.54,10.62,2.54c3.82,0,8.15-0.74,12.97-2.24c4.82-1.48,9.12-3.5,12.9-6.06V125.14
	 M840.59,153.62v-3.72c-3.98,2.07-8.38,3.61-13.18,4.63c-4.82,1.04-9.2,1.55-13.12,1.55c-8.52,0-15.45-2.27-20.78-6.74
	c-5.32-4.51-7.99-9.48-7.99-14.94c0-6.62,3.4-12.79,10.2-18.48c6.81-5.67,16.2-8.52,28.19-8.52c4.81,0,10.38,0.52,16.69,1.55v-3.8
	c0-2.37-1.02-4.31-3.06-5.8c-2.05-1.5-5.92-2.26-11.66-2.26c-4.7,0-10.8,0.91-18.27,2.73c-2.8,0.65-4.97,0.98-6.51,0.98
	c-2.09,0-3.88-0.76-5.34-2.27c-1.48-1.52-2.21-3.47-2.21-5.82c0-1.34,0.27-2.5,0.77-3.48c0.53-0.97,1.25-1.76,2.19-2.34
	c0.91-0.61,2.85-1.31,5.79-2.13c3.91-1.09,7.93-1.93,11.99-2.59c4.08-0.64,7.77-0.95,11.06-0.95c9.86,0,17.52,2.12,22.96,6.38
	c5.44,4.27,8.16,10.09,8.16,17.46v32.67h2.67c4.04,0,6.87,0.74,8.5,2.19c1.63,1.48,2.42,3.38,2.42,5.77c0,2.37-0.79,4.29-2.42,5.75
	c-1.63,1.45-4.46,2.19-8.5,2.19H840.59z"/>
<path class="st0" d="M409.98,227.48v6.29c3.38-2.92,7.12-5.12,11.21-6.6c4.08-1.48,8.52-2.2,13.3-2.2
	c11.01,0,19.72,3.55,26.14,10.65c5.09,5.68,7.63,13.11,7.63,22.3v35.98c4.76,0,8.09,0.88,10,2.66c1.91,1.79,2.87,4.12,2.87,7.02
	c0,2.88-0.95,5.2-2.87,7c-1.91,1.8-5.24,2.68-10,2.68h-18.7c-4.59,0-7.84-0.88-9.76-2.68c-1.91-1.8-2.87-4.12-2.87-7
	c0-2.9,0.95-5.23,2.87-7.02c1.91-1.79,5.17-2.66,9.76-2.66v-36.55c0-4.2-1.08-7.29-3.25-9.23c-2.84-2.52-7.1-3.77-12.78-3.77
	c-4.28,0-8.05,0.84-11.28,2.53c-3.23,1.7-7.32,5.29-12.27,10.8v36.22c4.76,0,7.75,0.59,8.96,1.79c2.6,2.34,3.91,5,3.91,7.9
	c0,2.88-0.95,5.2-2.87,7c-1.91,1.8-5.24,2.68-10,2.68h-18.7c-4.59,0-7.84-0.88-9.76-2.68c-1.91-1.8-2.88-4.12-2.88-7
	c0-2.9,1.28-5.55,3.84-7.96c1.27-1.15,4.21-1.73,8.8-1.73v-47.04c-4.59,0-7.84-0.88-9.76-2.68c-1.91-1.78-2.88-4.12-2.88-7.01
	c0-2.89,0.96-5.23,2.88-7.02c1.91-1.8,5.17-2.67,9.76-2.67H409.98"/>
<path class="st0" d="M530.71,246.1v37.4c0,4,0.8,6.65,2.44,7.91c2.56,2.01,7.11,3.02,13.66,3.02c9.52,0,18.3-2.03,26.38-6.14
	c3.09-1.58,5.52-2.37,7.28-2.37c2.42,0,4.53,0.93,6.31,2.73c1.8,1.81,2.69,4.06,2.69,6.68c0,2.44-0.97,4.52-2.91,6.28
	c-2.98,2.86-8.84,5.49-17.62,7.9c-8.77,2.4-16.16,3.61-22.17,3.61c-11.58,0-20.27-2.5-26.09-7.51c-5.8-5.01-8.67-11.16-8.67-18.45
	V246.1h-6.73c-4.48,0-7.68-0.87-9.6-2.6c-1.91-1.74-2.86-3.98-2.86-6.8c0-2.73,0.95-4.96,2.86-6.7c1.92-1.73,5.12-2.6,9.6-2.6h6.73
	v-16.88c0-4.48,0.86-7.71,2.59-9.62c1.73-1.91,3.98-2.89,6.8-2.89c2.73,0,4.95,0.98,6.69,2.89c1.73,1.91,2.61,5.14,2.61,9.62v16.88
	h34.42c4.48,0,7.66,0.88,9.59,2.6c1.9,1.73,2.84,3.98,2.84,6.78c0,2.75-0.95,4.97-2.84,6.71c-1.93,1.73-5.12,2.6-9.59,2.6H530.71"/>
<path class="st0" d="M648.87,227.48v12.12c7.83-5.86,14-9.76,18.52-11.71c4.5-1.95,8.74-2.91,12.68-2.91
	c6.05,0,11.95,2.33,17.63,6.95c3.89,3.13,5.81,6.34,5.81,9.58c0,2.77-0.93,5.09-2.75,7.02c-1.87,1.92-4.09,2.87-6.7,2.87
	c-2.3,0-4.73-1.16-7.28-3.52c-2.54-2.37-4.8-3.52-6.8-3.52c-2.61,0-6.51,1.69-11.7,5.09c-5.17,3.4-11.65,8.48-19.41,15.32v29.14
	h26.72c4.77,0,8.09,0.88,10.02,2.66c1.9,1.79,2.86,4.12,2.86,7.02c0,2.88-0.96,5.2-2.86,7c-1.92,1.8-5.25,2.68-10.02,2.68h-56.57
	c-4.6,0-7.85-0.88-9.77-2.68c-1.92-1.8-2.87-4.12-2.87-7c0-2.9,0.95-5.23,2.87-7.02c1.91-1.79,5.16-2.66,9.77-2.66h11.16v-47.04
	h-6.8c-4.59,0-7.85-0.88-9.76-2.68c-1.91-1.78-2.87-4.12-2.87-7.01c0-2.89,0.95-5.23,2.87-7.02c1.91-1.8,5.16-2.67,9.76-2.67H648.87
	"/>
<path class="st0" d="M781.44,276.69c-7.45-1.45-14.38-2.18-20.7-2.18c-7.59,0-14.12,1.84-19.61,5.53c-3.4,2.34-5.11,4.73-5.11,7.14
	c0,1.76,0.83,3.19,2.48,4.28c3.02,1.96,7.19,2.97,12.49,2.97c4.5,0,9.59-0.88,15.27-2.61c5.69-1.77,10.76-4.16,15.18-7.17V276.69
	 M781.44,310.21v-4.38c-4.7,2.44-9.87,4.24-15.52,5.45c-5.66,1.22-10.8,1.84-15.45,1.84c-10.04,0-18.2-2.65-24.46-7.95
	c-6.28-5.28-9.41-11.14-9.41-17.59c0-7.79,4-15.06,12.02-21.73c8-6.71,19.06-10.05,33.18-10.05c5.68,0,12.22,0.62,19.64,1.83v-4.48
	c0-2.82-1.21-5.09-3.6-6.85c-2.41-1.76-6.98-2.64-13.72-2.64c-5.53,0-12.7,1.07-21.54,3.21c-3.27,0.77-5.82,1.16-7.62,1.16
	c-2.48,0-4.59-0.88-6.3-2.67c-1.73-1.79-2.58-4.06-2.58-6.85c0-1.58,0.3-2.95,0.91-4.1c0.59-1.15,1.45-2.06,2.54-2.77
	c1.09-0.7,3.38-1.51,6.84-2.48c4.6-1.28,9.32-2.3,14.1-3.07c4.8-0.74,9.15-1.12,13.05-1.12c11.6,0,20.6,2.52,27.01,7.52
	c6.41,5,9.62,11.87,9.62,20.57v38.45h3.16c4.75,0,8.08,0.85,10,2.58c1.89,1.73,2.86,3.98,2.86,6.77c0,2.8-0.97,5.04-2.86,6.78
	c-1.92,1.73-5.25,2.58-10,2.58H781.44z"/>
<path class="st0" d="M866.48,246.1v37.4c0,4,0.8,6.65,2.44,7.91c2.57,2.01,7.11,3.02,13.66,3.02c9.52,0,18.32-2.03,26.38-6.14
	c3.09-1.58,5.52-2.37,7.28-2.37c2.43,0,4.53,0.93,6.31,2.73c1.8,1.81,2.7,4.06,2.7,6.68c0,2.44-0.98,4.52-2.91,6.28
	c-2.98,2.86-8.84,5.49-17.61,7.9c-8.78,2.4-16.18,3.61-22.19,3.61c-11.57,0-20.28-2.5-26.09-7.51c-5.79-5.01-8.67-11.16-8.67-18.45
	V246.1h-6.75c-4.46,0-7.67-0.87-9.59-2.6c-1.91-1.74-2.85-3.98-2.85-6.8c0-2.73,0.94-4.96,2.85-6.7c1.91-1.73,5.12-2.6,9.59-2.6
	h6.75v-16.88c0-4.48,0.86-7.71,2.61-9.62c1.73-1.91,3.97-2.89,6.78-2.89c2.75,0,4.97,0.98,6.7,2.89c1.73,1.91,2.62,5.14,2.62,9.62
	v16.88h34.41c4.49,0,7.69,0.88,9.59,2.6c1.9,1.73,2.87,3.98,2.87,6.78c0,2.75-0.97,4.97-2.87,6.71c-1.9,1.73-5.09,2.6-9.59,2.6
	H866.48"/>
<path class="st0" d="M1014.75,259.45c-2.87-5.28-6.62-9.23-11.26-11.87c-4.62-2.61-10.15-3.91-16.54-3.91
	c-6.35,0-11.84,1.3-16.45,3.91c-4.66,2.63-8.45,6.59-11.36,11.87H1014.75 M1035.39,278.15h-76.73c1.93,4.88,5.4,8.8,10.35,11.79
	c4.94,2.98,11.66,4.48,20.12,4.48c6.92,0,16.13-1.5,27.59-4.5c4.73-1.2,8.02-1.81,9.84-1.81c2.49,0,4.59,0.88,6.28,2.64
	c1.7,1.74,2.55,3.99,2.55,6.67c0,2.42-0.91,4.5-2.73,6.2c-2.42,2.26-8.34,4.4-17.75,6.43c-9.41,2.04-18.46,3.07-27.14,3.07
	c-14.95,0-26.88-4.22-35.83-12.66c-8.96-8.44-13.44-18.82-13.44-31.13c0-13.12,4.84-23.79,14.52-32.01
	c9.69-8.23,20.84-12.34,33.47-12.34c7.59,0,14.58,1.33,20.91,4c6.34,2.67,11.05,5.55,14.15,8.62c4.38,4.49,7.98,10.05,10.85,16.62
	c1.93,4.63,2.91,9.97,2.91,16.02L1035.39,278.15z"/>
</svg>
